<svg width="136" height="102" viewBox="0 0 136 102" fill="none" xmlns="http://www.w3.org/2000/svg">
<path d="M135.846 88.9522H0V89.0201H135.846V88.9522Z" fill="#EBEBEB"/>
<path d="M110.612 90.8024H90.5635V90.8704H110.612V90.8024Z" fill="#EBEBEB"/>
<path d="M30.5138 91.2589H28.1528V91.3268H30.5138V91.2589Z" fill="#EBEBEB"/>
<path d="M116.097 93.3237H110.883V93.3917H116.097V93.3237Z" fill="#EBEBEB"/>
<path d="M67.5617 92.4054H54.3384V92.4733H67.5617V92.4054Z" fill="#EBEBEB"/>
<path d="M51.9207 92.4054H45.2969V92.4733H51.9207V92.4054Z" fill="#EBEBEB"/>
<path d="M23.2595 91.2589H14.2529V91.3268H23.2595V91.2589Z" fill="#EBEBEB"/>
<path d="M64.3912 76.8347H11.93C11.519 76.834 11.1251 76.6702 10.8348 76.3794C10.5444 76.0885 10.3813 75.6943 10.3813 75.2833V1.53778C10.3849 1.12916 10.5496 0.738455 10.8395 0.450526C11.1295 0.162597 11.5214 0.000699986 11.93 0H64.3912C64.8026 0 65.1972 0.163447 65.4881 0.454384C65.7791 0.745322 65.9425 1.13992 65.9425 1.55137V75.2833C65.9425 75.6948 65.7791 76.0894 65.4881 76.3803C65.1972 76.6713 64.8026 76.8347 64.3912 76.8347V76.8347ZM11.93 0.0543388C11.537 0.0550585 11.1604 0.211666 10.8828 0.489788C10.6052 0.767909 10.4493 1.14482 10.4493 1.53778V75.2833C10.4493 75.6763 10.6052 76.0532 10.8828 76.3313C11.1604 76.6094 11.537 76.7661 11.93 76.7668H64.3912C64.7844 76.7661 65.1613 76.6095 65.4393 76.3315C65.7174 76.0534 65.8739 75.6765 65.8746 75.2833V1.53778C65.8739 1.14457 65.7174 0.767666 65.4393 0.489622C65.1613 0.211578 64.7844 0.055057 64.3912 0.0543388H11.93Z" fill="#EBEBEB"/>
<path d="M123.161 76.8347H70.6974C70.2861 76.834 69.892 76.6703 69.6012 76.3795C69.3104 76.0887 69.1467 75.6946 69.146 75.2833V1.53778C69.1503 1.12891 69.3155 0.73821 69.6059 0.450356C69.8963 0.162502 70.2885 0.000692352 70.6974 0H123.161C123.569 0.00141402 123.961 0.163627 124.25 0.451479C124.539 0.739332 124.704 1.12963 124.707 1.53778V75.2833C124.707 75.6938 124.544 76.0876 124.255 76.3784C123.965 76.6692 123.572 76.8333 123.161 76.8347V76.8347ZM70.6974 0.0543388C70.3041 0.055057 69.9272 0.211578 69.6492 0.489622C69.3712 0.767666 69.2146 1.14457 69.2139 1.53778V75.2833C69.2146 75.6765 69.3712 76.0534 69.6492 76.3315C69.9272 76.6095 70.3041 76.7661 70.6974 76.7668H123.161C123.554 76.7661 123.931 76.6095 124.209 76.3315C124.487 76.0534 124.644 75.6765 124.645 75.2833V1.53778C124.644 1.14457 124.487 0.767666 124.209 0.489622C123.931 0.211578 123.554 0.055057 123.161 0.0543388H70.6974Z" fill="#EBEBEB"/>
<path d="M89.3191 88.1697H47.272V88.9495H89.3191V88.1697Z" fill="#F0F0F0"/>
<path d="M105.436 56.58C105.436 56.58 108.916 61.4705 114.019 57.2946C118.757 53.4229 114.1 44.055 114.1 44.055C114.1 44.055 119.607 45.7857 120.496 38.5233C121.384 31.261 113.568 33.1058 113.568 33.1058C116.352 27.5687 113.16 27.4002 110.777 27.8893C111.5 26.5308 111.728 24.8626 110.008 23.458C106.072 20.2438 103.387 24.0013 103.387 24.0013C103.387 24.0013 101.339 16.9591 96.4917 21.0698V60.3837C102.781 65.7116 105.436 56.58 105.436 56.58Z" fill="#F5F5F5"/>
<path d="M98.3067 18.1273H18.0215V88.9522H98.3067V18.1273Z" fill="#FAFAFA"/>
<path d="M92.5305 7.12378H23.7977L18.0215 18.1273H98.3067L92.5305 7.12378Z" fill="#F0F0F0"/>
<path d="M86.2487 81.6817V74.4085H81.5321V67.138H47.1929V74.4085H51.9095V81.6817H56.6288V88.9522H90.9653V81.6817H86.2487Z" fill="#F5F5F5"/>
<path d="M47.1931 67.138V74.4085H51.9097V81.6817H56.629V88.9522H18.0215V67.138H47.1931Z" fill="#EBEBEB"/>
<path d="M81.5321 73.6287H47.1929V74.4085H81.5321V73.6287Z" fill="#F0F0F0"/>
<path d="M86.2489 80.8992H51.9097V81.679H86.2489V80.8992Z" fill="#F0F0F0"/>
<path d="M44.8294 24.542H22.249V67.138H44.8294V24.542Z" fill="#F0F0F0"/>
<path d="M21.8252 67.138H22.249L22.249 24.542H21.8252L21.8252 67.138Z" fill="#E6E6E6"/>
<path d="M41.4551 47.0925C42.1469 47.0925 42.7076 46.5317 42.7076 45.84C42.7076 45.1483 42.1469 44.5875 41.4551 44.5875C40.7634 44.5875 40.2026 45.1483 40.2026 45.84C40.2026 46.5317 40.7634 47.0925 41.4551 47.0925Z" fill="#FAFAFA"/>
<path d="M85.4907 24.542H52.6675V57.2973H85.4907V24.542Z" fill="#F5F5F5"/>
<path d="M84.124 55.7595V26.0798L54.0395 26.0798V55.7595H84.124Z" fill="white"/>
<path d="M54.0371 26.0825V55.7595H54.9228C54.9228 55.7595 58.9819 46.0465 60.1122 26.0798L54.0371 26.0825Z" fill="#FAFAFA"/>
<path d="M84.1244 26.0825V55.7595H83.2359C83.2359 55.7595 79.1796 46.0465 78.0493 26.0825H84.1244Z" fill="#FAFAFA"/>
<path d="M84.9256 39.8872H53.2354V41.9521H84.9256V39.8872Z" fill="#F5F5F5"/>
<path d="M70.1128 56.7648V25.0745H68.0479V56.7648H70.1128Z" fill="#F5F5F5"/>
<path d="M67.9236 101.222C97.0172 101.222 120.602 99.8449 120.602 98.1463C120.602 96.4477 97.0172 95.0707 67.9236 95.0707C38.8301 95.0707 15.2451 96.4477 15.2451 98.1463C15.2451 99.8449 38.8301 101.222 67.9236 101.222Z" fill="#F5F5F5"/>
<path d="M50.152 98.1463H41.5909C41.2681 98.1463 40.9585 98.018 40.7302 97.7898C40.502 97.5615 40.3737 97.2519 40.3737 96.9291V82.0104H51.3691V96.9318C51.3684 97.2542 51.2399 97.563 51.0117 97.7907C50.7835 98.0184 50.4743 98.1463 50.152 98.1463Z" fill="#92E3A9"/>
<path opacity="0.2" d="M51.3692 82.0105H40.3765V88.4849L51.3692 86.1022V82.0105Z" fill="black"/>
<path d="M56.0991 62.4377C56.0991 58.3304 57.7307 54.3914 60.635 51.4871C63.5393 48.5828 67.4783 46.9512 71.5856 46.9512C75.6929 46.9512 79.6319 48.5828 82.5362 51.4871C85.4405 54.3914 87.0721 58.3304 87.0721 62.4377V81.9996H56.0991V62.4377Z" fill="#92E3A9"/>
<path opacity="0.3" d="M56.0991 62.4377C56.0991 58.3304 57.7307 54.3914 60.635 51.4871C63.5393 48.5828 67.4783 46.9512 71.5856 46.9512C75.6929 46.9512 79.6319 48.5828 82.5362 51.4871C85.4405 54.3914 87.0721 58.3304 87.0721 62.4377V81.9996H56.0991V62.4377Z" fill="black"/>
<path d="M19.6406 62.435V80.0814C19.6406 80.335 19.6906 80.5861 19.7877 80.8203C19.8848 81.0545 20.0272 81.2673 20.2066 81.4464C20.386 81.6256 20.599 81.7676 20.8333 81.8644C21.0677 81.9612 21.3188 82.0108 21.5724 82.0105H56.0991V62.435C56.0991 58.3277 57.7307 54.3887 60.635 51.4844C63.5392 48.5801 67.4783 46.9485 71.5856 46.9485H35.1271C31.0198 46.9485 27.0808 48.5801 24.1765 51.4844C21.2722 54.3887 19.6406 58.3277 19.6406 62.435V62.435Z" fill="#92E3A9"/>
<path opacity="0.2" d="M19.6431 76.2343H56.1016V70.8004H19.6431V76.2343Z" fill="black"/>
<path opacity="0.2" d="M19.6431 69.1132H56.1016V63.6794L19.6431 63.6794V69.1132Z" fill="black"/>
<path d="M58.384 45.9976H53.9473V46.2693H58.384V45.9976Z" fill="#92E3A9"/>
<path d="M51.6218 45.9976H49.2363V46.2693H51.6218V45.9976Z" fill="#92E3A9"/>
<path d="M37.4718 67.5265V45.5194C37.4719 45.4317 37.4528 45.345 37.4159 45.2654C37.379 45.1858 37.3251 45.1152 37.2581 45.0585C37.1911 45.0019 37.1126 44.9605 37.028 44.9374C36.9433 44.9142 36.8547 44.9098 36.7682 44.9244L29.0874 46.1878V49.3747H34.9587V67.4776C34.3658 67.75 33.8828 68.2154 33.5887 68.7978C33.2947 69.3803 33.2069 70.0452 33.3397 70.684C33.4726 71.3228 33.8182 71.8977 34.3201 72.3146C34.822 72.7315 35.4505 72.9658 36.1028 72.9792C36.7551 72.9926 37.3927 72.7843 37.9113 72.3883C38.4299 71.9924 38.7988 71.4322 38.9578 70.7994C39.1167 70.1666 39.0563 69.4986 38.7864 68.9046C38.5165 68.3106 38.0531 67.8257 37.4718 67.5292V67.5265Z" fill="#263238"/>
<path d="M58.3025 84.2248H98.0349C98.3249 84.2255 98.6034 84.1117 98.81 83.9082C99.0165 83.7047 99.1344 83.4279 99.138 83.138V83.138C99.138 82.8454 99.0218 82.5649 98.8149 82.358C98.608 82.1511 98.3274 82.0349 98.0349 82.0349H56.0991C56.1027 82.6169 56.3364 83.1739 56.7493 83.5842C57.1621 83.9945 57.7205 84.2248 58.3025 84.2248V84.2248Z" fill="#92E3A9"/>
<path opacity="0.2" d="M58.3025 84.2248H74.5389C74.8289 84.2255 75.1074 84.1117 75.314 83.9082C75.5205 83.7047 75.6384 83.4279 75.642 83.138V83.138C75.642 82.8454 75.5258 82.5649 75.3189 82.358C75.112 82.1511 74.8315 82.0349 74.5389 82.0349H56.0991C56.1027 82.6169 56.3364 83.1739 56.7493 83.5842C57.1621 83.9945 57.7205 84.2248 58.3025 84.2248V84.2248Z" fill="black"/>
<path d="M96.3099 95.7391L94.0114 95.7581L93.3838 90.4356L95.685 90.4166L96.3099 95.7391Z" fill="#FF8B7B"/>
<path opacity="0.2" d="M93.3838 90.4384L93.7071 93.1825L96.0083 93.1607L95.685 90.4193L93.3838 90.4384Z" fill="black"/>
<path d="M114.991 90.0961L113.014 91.2698L109.794 86.9852L111.772 85.8115L114.991 90.0961Z" fill="#FF8B7B"/>
<path opacity="0.2" d="M109.797 86.9852L111.454 89.194L113.435 88.0203L111.775 85.8115L109.797 86.9852Z" fill="black"/>
<path d="M94.006 95.4919L96.5192 95.4701C96.5656 95.4705 96.6107 95.4857 96.6479 95.5136C96.685 95.5415 96.7123 95.5805 96.7256 95.625L97.3342 97.6654C97.3498 97.7127 97.3539 97.7631 97.3461 97.8123C97.3383 97.8615 97.3188 97.9081 97.2893 97.9483C97.2597 97.9885 97.221 98.021 97.1764 98.0431C97.1318 98.0653 97.0825 98.0764 97.0327 98.0757C96.1252 98.0757 94.8129 98.0267 93.6718 98.0376C92.3405 98.0376 91.7482 98.1327 90.186 98.1463C89.2405 98.1463 88.9091 97.2008 89.2976 97.1111C91.0663 96.7036 91.9819 96.6493 93.4653 95.6766C93.624 95.5643 93.8118 95.5002 94.006 95.4919V95.4919Z" fill="#263238"/>
<path d="M93.0575 95.9075C93.3054 95.9028 93.5521 95.8728 93.7938 95.8179C93.8049 95.816 93.815 95.8104 93.8224 95.802C93.8298 95.7936 93.8341 95.7829 93.8346 95.7717C93.8357 95.7607 93.8335 95.7496 93.8282 95.7399C93.8228 95.7301 93.8146 95.7223 93.8047 95.7174C93.696 95.663 92.7179 95.2011 92.4653 95.3642C92.4408 95.3798 92.421 95.4016 92.4076 95.4274C92.3943 95.4531 92.3879 95.4819 92.3892 95.5109C92.3863 95.5627 92.3959 95.6144 92.4172 95.6616C92.4384 95.7089 92.4708 95.7504 92.5114 95.7826C92.6752 95.8822 92.8668 95.9261 93.0575 95.9075V95.9075ZM93.6009 95.7445C93.1037 95.8315 92.7261 95.8125 92.5739 95.6902C92.5474 95.6687 92.5261 95.6413 92.512 95.6102C92.4979 95.579 92.4911 95.545 92.4924 95.5109C92.4914 95.5005 92.4931 95.49 92.4974 95.4804C92.5017 95.4709 92.5084 95.4627 92.5169 95.4565C92.6663 95.3642 93.2124 95.5598 93.6064 95.7391L93.6009 95.7445Z" fill="#92E3A9"/>
<path d="M93.7828 95.8152C93.7936 95.8175 93.8047 95.8175 93.8154 95.8152C93.8234 95.8095 93.8295 95.8015 93.8329 95.7923C93.8363 95.7831 93.8368 95.7731 93.8344 95.7636C93.8344 95.7201 93.6551 94.7311 93.1063 94.7936C92.9623 94.8099 92.9216 94.8806 92.9134 94.9403C92.8754 95.212 93.4568 95.6956 93.7611 95.8206L93.7828 95.8152ZM93.1525 94.8887C93.4812 94.8887 93.647 95.4321 93.6959 95.6603C93.3943 95.4891 92.9895 95.0979 93.0112 94.9458C93.0112 94.9458 93.0112 94.8996 93.109 94.8887H93.1525Z" fill="#92E3A9"/>
<path d="M97.3421 32.2309C97.0405 33.9779 96.6574 35.6543 96.1928 37.3469C95.9609 38.191 95.7047 39.0323 95.4239 39.8709C95.2772 40.292 95.1386 40.7105 94.9729 41.1289C94.8941 41.3381 94.8153 41.5473 94.7257 41.7565L94.598 42.0716L94.5328 42.2265L94.4974 42.3107L94.4485 42.4167C94.2255 42.897 93.9523 43.3523 93.6334 43.7751C93.3618 44.1582 93.0656 44.5114 92.7749 44.8619C92.1935 45.5466 91.5876 46.1823 90.9736 46.8072C89.7473 48.0391 88.4578 49.2062 87.1101 50.3039L85.8848 49.084C86.9308 47.7554 87.985 46.4133 89.0038 45.0847C89.5119 44.4218 90.0064 43.748 90.4682 43.0823C90.6992 42.7509 90.9192 42.4167 91.1121 42.0906C91.2868 41.8131 91.4359 41.5203 91.5577 41.2158C91.574 41.1832 91.612 41.0528 91.6419 40.9658L91.7343 40.6778C91.7995 40.4904 91.8566 40.2948 91.9136 40.0991C92.0305 39.7106 92.1391 39.314 92.2505 38.92C92.4625 38.1239 92.6608 37.3197 92.8537 36.5101C93.2286 34.8799 93.59 33.2335 93.916 31.6196L97.3421 32.2309Z" fill="#FF8B7B"/>
<path d="M98.1546 32.5488C98.016 35.1733 96.7445 38.8575 96.7445 38.8575L93.1744 37.499L91.7046 36.9557C91.8982 35.218 92.3109 33.5118 92.9326 31.8777C94.0194 29.0793 96.538 28.3973 97.8231 30.4568C98.122 30.9214 98.2008 31.6767 98.1546 32.5488Z" fill="#92E3A9"/>
<path opacity="0.2" d="M98.1544 32.5488C98.0159 35.1733 96.7444 38.8575 96.7444 38.8575L93.1743 37.499C93.3868 36.5731 93.6646 35.6633 94.0057 34.7767C94.8968 32.4455 96.7987 31.5843 98.1544 32.5488Z" fill="black"/>
<path d="M86.4635 48.8259L84.04 49.2226L84.021 51.5999C84.021 51.5999 86.3467 51.2738 87.2569 50.1599L86.4635 48.8259Z" fill="#FF8B7B"/>
<path d="M81.7959 50.6001L81.8475 52.1623L84.0211 51.5999L84.0374 49.2226L81.7959 50.6001Z" fill="#FF8B7B"/>
<path d="M95.6032 49.2226C95.6032 49.2226 92.15 61.7938 91.2343 68.8306C90.2834 76.15 92.5276 91.8457 92.5276 91.8457L96.6818 91.7561C96.6818 91.7561 96.9942 75.7561 98.3527 68.559C99.8416 60.7152 102.678 49.0704 102.678 49.0704L95.6032 49.2226Z" fill="#263238"/>
<path d="M97.1929 91.9435L92.3079 92.0413L91.9492 90.4193L97.1304 90.4058L97.1929 91.9435Z" fill="#92E3A9"/>
<path opacity="0.4" d="M97.1929 91.9435L92.3079 92.0413L91.9492 90.4193L97.1304 90.4058L97.1929 91.9435Z" fill="white"/>
<path d="M112.875 91.0415L115.035 89.7591C115.076 89.7323 115.126 89.7206 115.176 89.726C115.225 89.7315 115.271 89.7537 115.306 89.789L116.858 91.2453C116.895 91.2783 116.925 91.3199 116.943 91.3666C116.961 91.4133 116.968 91.4636 116.962 91.5134C116.957 91.5632 116.94 91.611 116.912 91.6528C116.884 91.6946 116.847 91.729 116.803 91.7534C116.015 92.2044 114.861 92.8401 113.88 93.408C112.736 94.0899 112.25 94.4594 110.921 95.2555C110.106 95.7391 109.343 95.0843 109.633 94.8099C110.957 93.5656 111.72 93.0575 112.513 91.4735C112.59 91.2978 112.715 91.1478 112.875 91.0415V91.0415Z" fill="#263238"/>
<path d="M112.261 91.8729C112.472 91.7432 112.67 91.5941 112.853 91.4273C112.861 91.4193 112.867 91.4091 112.869 91.398C112.872 91.387 112.871 91.3755 112.867 91.3648C112.863 91.3541 112.855 91.3451 112.845 91.3392C112.836 91.3333 112.824 91.3308 112.813 91.3322C112.69 91.3322 111.623 91.4246 111.479 91.7017C111.463 91.7266 111.455 91.7553 111.455 91.7846C111.455 91.8139 111.463 91.8426 111.479 91.8675C111.502 91.9115 111.536 91.9494 111.577 91.9782C111.618 92.0069 111.665 92.0258 111.715 92.0332C111.91 92.0409 112.101 91.9846 112.261 91.8729V91.8729ZM112.655 91.4545C112.269 91.7805 111.932 91.9544 111.739 91.9245C111.706 91.9195 111.674 91.9069 111.646 91.8876C111.618 91.8682 111.596 91.8428 111.579 91.8131C111.573 91.8037 111.57 91.7929 111.57 91.7819C111.57 91.7708 111.573 91.76 111.579 91.7506C111.666 91.6039 112.223 91.4979 112.655 91.4545V91.4545Z" fill="#92E3A9"/>
<path d="M112.845 91.4328C112.855 91.4256 112.862 91.4163 112.867 91.4056C112.872 91.3976 112.875 91.3881 112.875 91.3784C112.875 91.3688 112.872 91.3593 112.867 91.3513C112.84 91.3187 112.19 90.5362 111.75 90.8785C111.633 90.9655 111.633 91.0497 111.655 91.104C111.753 91.3458 112.514 91.479 112.832 91.4409L112.845 91.4328ZM111.834 90.9492C112.12 90.7834 112.533 91.1638 112.701 91.3377C112.351 91.3377 111.807 91.2073 111.748 91.066C111.748 91.066 111.731 91.0252 111.805 90.9709L111.834 90.9492Z" fill="#92E3A9"/>
<path d="M99.8989 49.1302C99.8989 49.1302 99.8989 61.4814 100.222 68.5698C100.554 75.9436 109.764 88.6316 109.764 88.6316L113.31 86.4581C113.31 86.4581 107.088 74.384 107.183 67.0619C107.286 59.0769 107.906 48.9509 107.906 48.9509L99.8989 49.1302Z" fill="#263238"/>
<path d="M113.766 86.4554L109.84 88.8517L108.859 87.8763L113.179 84.9964L113.766 86.4554Z" fill="#92E3A9"/>
<path opacity="0.4" d="M113.766 86.4554L109.84 88.8517L108.859 87.8763L113.179 84.9964L113.766 86.4554Z" fill="white"/>
<path d="M95.3184 29.3428C95.3184 29.3428 92.7509 36.3471 95.6037 49.2253L107.906 48.9536C107.949 47.0653 106.566 37.8794 108.199 28.9434C106.83 28.7143 105.447 28.5754 104.059 28.5277C102.316 28.4622 100.57 28.4994 98.8314 28.6391C97.6438 28.7819 96.4693 29.0171 95.3184 29.3428V29.3428Z" fill="#92E3A9"/>
<path d="M103.425 22.6402C103.132 24.3274 102.868 27.4192 104.069 28.5169C104.069 28.5169 103.646 30.2421 100.521 30.2992C98.0242 30.3454 98.842 28.6283 98.842 28.6283C100.709 28.1392 100.63 26.7482 100.274 25.4495L103.425 22.6402Z" fill="#FF8B7B"/>
<path opacity="0.2" d="M102.14 23.784L100.276 25.4467C100.363 25.7488 100.423 26.0579 100.456 26.3705C101.17 26.2537 102.14 25.444 102.2 24.6914C102.236 24.3878 102.215 24.0803 102.14 23.784Z" fill="black"/>
<path opacity="0.2" d="M105.455 33.3992L107.506 34.8772C107.416 36.4503 107.389 37.9799 107.403 39.4145C106.145 38.1484 105.441 35.82 105.455 33.3992Z" fill="black"/>
<path d="M103.621 27.6773C103.621 27.6773 103.032 29.0956 100.279 30.3019C100.722 30.4797 101.123 30.748 101.456 31.0895C101.789 31.431 102.047 31.8383 102.214 32.2852C102.214 32.2852 104.216 30.3834 104.751 28.4815L103.621 27.6773Z" fill="white"/>
<path d="M98.2224 31.7718C98.2224 31.7718 99.0646 30.5491 100.279 30.3019C99.8525 29.7802 99.4124 28.6228 99.8199 28.074C99.4619 28.1684 99.1149 28.3005 98.7848 28.468C98.7848 28.468 97.1329 29.4597 98.2224 31.7718Z" fill="white"/>
<path d="M97.9806 17.8095C96.8585 18.2904 96.3016 21.3116 97.7633 21.9691C99.225 22.6266 100.105 16.902 97.9806 17.8095Z" fill="#263238"/>
<path d="M103.572 20.1053C103.48 22.3875 103.542 23.7269 102.417 24.9197C100.725 26.7156 97.8908 25.7347 97.2985 23.4715C96.7551 21.4338 97.0051 18.0377 99.2139 17.0922C99.7003 16.8793 100.233 16.7943 100.761 16.8453C101.29 16.8963 101.796 17.0815 102.233 17.3835C102.67 17.6854 103.022 18.0939 103.256 18.5703C103.491 19.0467 103.599 19.5751 103.572 20.1053Z" fill="#FF8B7B"/>
<path d="M100.13 20.8144C100.13 20.9991 100.04 21.1513 99.918 21.154C99.7957 21.1567 99.6952 21.0073 99.6924 20.8225C99.6897 20.6378 99.7821 20.4856 99.9044 20.4829C100.027 20.4802 100.127 20.6269 100.13 20.8144Z" fill="#263238"/>
<path d="M98.0322 20.8579C98.0322 21.0426 97.9426 21.1948 97.8203 21.1975C97.698 21.2002 97.5975 21.0535 97.5948 20.866C97.5921 20.6785 97.6844 20.5291 97.8067 20.5264C97.929 20.5237 98.0295 20.6731 98.0322 20.8579Z" fill="#263238"/>
<path d="M98.7032 20.9366C98.4936 21.5084 98.2066 22.0487 97.8501 22.5424C97.9786 22.63 98.1246 22.6886 98.2781 22.7139C98.4316 22.7393 98.5887 22.7308 98.7385 22.6891L98.7032 20.9366Z" fill="#FF5652"/>
<path d="M99.2903 23.189C99.5399 23.191 99.7863 23.1328 100.009 23.0193C100.231 22.9058 100.423 22.7403 100.567 22.5369C100.571 22.5309 100.574 22.5242 100.575 22.5172C100.576 22.5102 100.576 22.503 100.574 22.4961C100.572 22.4892 100.569 22.4827 100.564 22.4771C100.56 22.4716 100.554 22.4669 100.548 22.4636C100.536 22.4563 100.522 22.4539 100.508 22.457C100.495 22.46 100.483 22.4682 100.475 22.4799C100.338 22.6661 100.159 22.8175 99.9529 22.9218C99.7466 23.0261 99.5187 23.0804 99.2875 23.0803C99.2804 23.0806 99.2734 23.0824 99.2669 23.0855C99.2605 23.0885 99.2547 23.0928 99.2499 23.0981C99.2451 23.1034 99.2414 23.1096 99.239 23.1163C99.2366 23.1231 99.2355 23.1302 99.2359 23.1374C99.2366 23.1513 99.2426 23.1644 99.2528 23.174C99.2629 23.1836 99.2763 23.189 99.2903 23.189Z" fill="#263238"/>
<path d="M100.746 20.1243C100.771 20.1235 100.795 20.1149 100.814 20.0998C100.837 20.0817 100.851 20.0556 100.854 20.0271C100.857 19.9986 100.849 19.9701 100.831 19.9477C100.726 19.8095 100.591 19.6982 100.435 19.623C100.279 19.5479 100.107 19.5111 99.9341 19.5157C99.9052 19.5182 99.8786 19.5321 99.86 19.5542C99.8414 19.5764 99.8324 19.6051 99.8349 19.6339C99.8374 19.6627 99.8513 19.6893 99.8734 19.7079C99.8956 19.7265 99.9243 19.7356 99.9531 19.733V19.733C100.09 19.7318 100.225 19.7626 100.348 19.823C100.47 19.8834 100.577 19.9717 100.659 20.0808C100.669 20.0945 100.683 20.1055 100.698 20.1131C100.713 20.1207 100.73 20.1245 100.746 20.1243V20.1243Z" fill="#263238"/>
<path d="M97.0978 20.1569C97.1187 20.1567 97.1391 20.1507 97.1568 20.1397C97.1746 20.1287 97.1889 20.113 97.1984 20.0944C97.2519 19.9671 97.3355 19.8546 97.4419 19.7666C97.5484 19.6786 97.6746 19.6177 97.8097 19.589C97.8383 19.5844 97.864 19.5687 97.8813 19.5453C97.8985 19.522 97.906 19.4928 97.9021 19.4641C97.8967 19.4357 97.8809 19.4105 97.8577 19.3933C97.8345 19.3762 97.8057 19.3685 97.7771 19.3717C97.608 19.408 97.4501 19.4841 97.3163 19.5938C97.1826 19.7034 97.077 19.8434 97.0082 20.002C97.0018 20.0148 96.9981 20.0288 96.9973 20.043C96.9964 20.0573 96.9985 20.0716 97.0033 20.085C97.0081 20.0985 97.0156 20.1108 97.0253 20.1213C97.035 20.1318 97.0468 20.1402 97.0598 20.146C97.0717 20.1521 97.0846 20.1557 97.0978 20.1569Z" fill="#263238"/>
<path d="M108.593 30.5654C109.107 31.3044 109.558 32.0272 110.022 32.7716C110.487 33.516 110.916 34.2659 111.343 35.0266C112.208 36.5674 112.977 38.1598 113.647 39.7948C113.734 39.9986 113.81 40.216 113.888 40.4279L114.008 40.7485L114.068 40.9115L114.138 41.1343C114.312 41.7199 114.374 42.3326 114.323 42.941C114.216 44.0043 113.861 45.0277 113.288 45.9297C112.789 46.735 112.195 47.4775 111.519 48.1412C111.196 48.4673 110.854 48.7689 110.506 49.0596C110.154 49.3503 109.786 49.6224 109.406 49.8746L108.3 48.5488C108.542 48.2771 108.816 47.9402 109.06 47.6277C109.305 47.3153 109.544 46.9811 109.77 46.6551C110.209 46.0285 110.587 45.3606 110.897 44.6609C111.167 44.0784 111.309 43.4446 111.313 42.8025C111.303 42.5574 111.252 42.3157 111.161 42.0879L110.943 41.6043C110.859 41.425 110.783 41.243 110.691 41.0609C109.99 39.6074 109.18 38.162 108.33 36.7329C107.479 35.3038 106.588 33.8692 105.705 32.4972L108.593 30.5654Z" fill="#FF8B7B"/>
<path d="M108.199 28.9489C110.348 29.4135 113.44 36.0428 113.44 36.0428L107.683 38.8521C106.659 37.2861 105.808 35.6135 105.145 33.8638C104.143 31.0626 105.898 28.449 108.199 28.9489Z" fill="#92E3A9"/>
<path d="M106.153 45.9976L111.938 63.0843C112.162 63.7549 112.113 64.4871 111.8 65.1213C111.487 65.7555 110.936 66.2402 110.267 66.4696L71.3846 79.6522C70.7134 79.8774 69.9802 79.8275 69.3457 79.5133C68.7112 79.1991 68.2271 78.6462 67.9994 77.9758L62.2177 60.8945C62.1063 60.5708 62.0602 60.2282 62.0819 59.8865C62.1131 59.3557 62.3016 58.8461 62.6233 58.4228C62.9451 57.9994 63.3855 57.6814 63.8886 57.5092L102.779 44.3267C103.282 44.1572 103.825 44.1417 104.337 44.282C104.85 44.4223 105.309 44.7122 105.656 45.1146C105.878 45.3732 106.047 45.6733 106.153 45.9976Z" fill="#92E3A9"/>
<path opacity="0.8" d="M106.153 45.9976L111.938 63.0843C112.162 63.7549 112.113 64.4871 111.8 65.1213C111.487 65.7555 110.936 66.2402 110.267 66.4696L71.3846 79.6522C70.7134 79.8774 69.9802 79.8275 69.3457 79.5133C68.7112 79.1991 68.2271 78.6462 67.9994 77.9758L62.2177 60.8945C62.1063 60.5708 62.0602 60.2282 62.0819 59.8865C62.1131 59.3557 62.3016 58.8461 62.6233 58.4228C62.9451 57.9994 63.3855 57.6814 63.8886 57.5092L102.779 44.3267C103.282 44.1572 103.825 44.1417 104.337 44.282C104.85 44.4223 105.309 44.7122 105.656 45.1146C105.878 45.3732 106.047 45.6733 106.153 45.9976Z" fill="white"/>
<path opacity="0.6" d="M105.645 45.1146L89.5582 59.5007C88.7495 60.2232 87.8033 60.7748 86.7761 61.1227C85.749 61.4705 84.6623 61.6073 83.581 61.5248L62.0684 59.8947C62.0996 59.3638 62.288 58.8543 62.6098 58.4309C62.9316 58.0076 63.372 57.6896 63.8751 57.5174L102.765 44.3348C103.268 44.1638 103.811 44.1467 104.324 44.2856C104.837 44.4245 105.297 44.7131 105.645 45.1146V45.1146Z" fill="#92E3A9"/>
<path d="M108.881 48.2309L106.409 48.2472L107.933 50.7441C107.933 50.7441 109.693 50.3175 109.856 49.4318L108.881 48.2309Z" fill="#FF8B7B"/>
<path d="M104.863 49.7116L106.219 51.7194L107.933 50.7441L106.409 48.2472L104.863 49.7116Z" fill="#FF8B7B"/>
<path d="M105.129 18.2768C105.672 19.7657 104.028 23.2134 103.072 23.1482C102.116 23.083 101.855 19.4994 102.398 18.6082C101.882 18.8473 96.9644 18.8555 96.9889 18.3365C97.1138 16.451 100.458 15.7663 104.126 16.7064C105.08 16.6602 105.436 16.921 105.129 18.2768Z" fill="#263238"/>
<path d="M104.653 22.5913C104.508 22.8357 104.315 23.0487 104.087 23.218C103.858 23.3873 103.598 23.5095 103.322 23.5775C102.583 23.7568 102.235 23.0912 102.469 22.4065C102.673 21.7898 103.303 20.9557 104.037 21.0806C104.77 21.2056 105.012 21.9854 104.653 22.5913Z" fill="#FF8B7B"/>
<path d="M94.0577 17.3883L105.344 18.6925C105.401 18.6986 105.458 18.6821 105.502 18.6465C105.547 18.6109 105.576 18.5591 105.583 18.5023V18.5023C105.589 18.4458 105.573 18.3892 105.538 18.3445C105.503 18.2999 105.452 18.2707 105.395 18.2632L94.1066 16.9618C94.0501 16.9556 93.9935 16.9718 93.9488 17.0068C93.9041 17.0418 93.8749 17.093 93.8675 17.1493C93.8613 17.2061 93.8779 17.2631 93.9135 17.3078C93.9491 17.3526 94.0009 17.3815 94.0577 17.3883V17.3883Z" fill="#92E3A9"/>
<path d="M105.583 18.4914L105.778 16.8069C105.776 16.6227 105.705 16.446 105.58 16.3113C105.454 16.1766 105.283 16.0937 105.099 16.0788L98.1681 14.7692C97.6546 14.6714 97.1819 14.9594 97.1846 15.3669V17.5242L105.583 18.4914Z" fill="#92E3A9"/>
<path d="M97.8311 17.027L100.765 17.3666L100.866 16.5108L97.8338 16.163L97.8311 17.027Z" fill="white"/>
</svg>
