<svg width="476" height="466" viewBox="0 0 476 466" fill="none" xmlns="http://www.w3.org/2000/svg">
<path d="M40.7724 280.462L49.5219 274.797C49.5219 274.797 53.7703 252.23 50.6144 232.314C46.184 204.214 27.0867 194.554 20.1478 197.326C13.2088 200.097 11.5702 208.452 24.1027 224.636C31.4969 234.205 41.005 254.425 40.7724 280.462Z" fill="#59C59A"/>
<g opacity="0.3">
<path opacity="0.3" d="M40.7724 280.462L49.5219 274.797C49.5219 274.797 53.7703 252.23 50.6144 232.314C46.184 204.214 27.0867 194.554 20.1478 197.326C13.2088 200.097 11.5702 208.452 24.1027 224.636C31.4969 234.205 41.005 254.425 40.7724 280.462Z" fill="white"/>
</g>
<path d="M43.9584 269.325H43.8674C43.7034 269.3 43.5557 269.212 43.4556 269.08C43.3555 268.947 43.3109 268.781 43.3313 268.617C46.9626 242.318 36.4024 213.571 24.5273 201.969C24.408 201.852 24.3398 201.693 24.3379 201.526C24.336 201.359 24.4005 201.198 24.5172 201.078C24.6339 200.959 24.7933 200.891 24.9602 200.889C25.1271 200.887 25.288 200.952 25.4074 201.068C37.4949 212.873 48.2573 242.095 44.5754 268.779C44.5559 268.929 44.4826 269.067 44.3692 269.167C44.2558 269.268 44.1099 269.324 43.9584 269.325V269.325Z" fill="white"/>
<path d="M18.7415 294.693C17.4266 295.442 13.684 292.559 12.6725 291.861C10.896 290.65 9.46083 289.003 8.50508 287.077C7.43859 284.88 7.08495 282.404 7.49357 279.996C7.70398 278.726 8.00139 277.473 8.38369 276.244C8.73772 275.03 9.08163 273.816 9.3952 272.602C9.82066 271.427 9.9997 270.177 9.92119 268.93C9.60762 266.442 7.39242 264.702 5.38963 263.195C3.16432 261.536 0.858082 259.341 0.868197 256.347C1.02765 254.022 1.95646 251.815 3.50823 250.076C4.94457 248.255 6.6439 246.657 7.93863 244.735C8.95792 243.402 9.48982 241.76 9.44578 240.082C9.30643 239.057 8.96245 238.069 8.43427 237.179C7.42276 235.227 5.98642 233.437 5.25814 231.343C4.52985 229.249 4.631 226.639 6.26964 225.142C7.60483 223.908 9.60762 223.736 11.4182 223.858C13.1201 224.066 14.7562 224.642 16.2128 225.547C20.9668 228.187 23.6878 233.821 28.7352 235.854C30.7246 236.481 32.7517 236.981 34.8043 237.351C36.8273 237.887 38.9009 238.929 39.8618 240.8C41.7129 244.502 38.2737 249.064 39.5786 252.989C40.7317 256.469 44.1101 257.794 46.0016 260.929C46.7748 262.313 47.0866 263.908 46.8918 265.481C46.7267 268.14 46.0753 270.745 44.9699 273.169C43.7219 275.684 42.32 278.119 40.7722 280.462L18.7415 294.693Z" fill="#59C59A"/>
<g opacity="0.65">
<path opacity="0.65" d="M18.7415 294.693C17.4266 295.442 13.684 292.559 12.6725 291.861C10.896 290.65 9.46083 289.003 8.50508 287.077C7.43859 284.88 7.08495 282.404 7.49357 279.996C7.70398 278.726 8.00139 277.473 8.38369 276.244C8.73772 275.03 9.08163 273.816 9.3952 272.602C9.82066 271.427 9.9997 270.177 9.92119 268.93C9.60762 266.442 7.39242 264.702 5.38963 263.195C3.16432 261.536 0.858082 259.341 0.868197 256.347C1.02765 254.022 1.95646 251.815 3.50823 250.076C4.94457 248.255 6.6439 246.657 7.93863 244.735C8.95792 243.402 9.48982 241.76 9.44578 240.082C9.30643 239.057 8.96245 238.069 8.43427 237.179C7.42276 235.227 5.98642 233.437 5.25814 231.343C4.52985 229.249 4.631 226.639 6.26964 225.142C7.60483 223.908 9.60762 223.736 11.4182 223.858C13.1201 224.066 14.7562 224.642 16.2128 225.547C20.9668 228.187 23.6878 233.821 28.7352 235.854C30.7246 236.481 32.7517 236.981 34.8043 237.351C36.8273 237.887 38.9009 238.929 39.8618 240.8C41.7129 244.502 38.2737 249.064 39.5786 252.989C40.7317 256.469 44.1101 257.794 46.0016 260.929C46.7748 262.313 47.0866 263.908 46.8918 265.481C46.7267 268.14 46.0753 270.745 44.9699 273.169C43.7219 275.684 42.32 278.119 40.7722 280.462L18.7415 294.693Z" fill="white"/>
</g>
<path d="M31.4458 287.249C31.3679 287.246 31.2912 287.228 31.2204 287.196C31.1495 287.163 31.0858 287.117 31.0331 287.059C30.9803 287.002 30.9396 286.934 30.9132 286.861C30.8868 286.788 30.8753 286.71 30.8794 286.632C31.8909 263.124 20.7643 237.159 12.6723 229.623C12.5738 229.512 12.5203 229.368 12.522 229.22C12.5238 229.072 12.5807 228.929 12.6818 228.821C12.7829 228.712 12.9208 228.645 13.0686 228.633C13.2165 228.62 13.3636 228.663 13.4815 228.753C21.6949 236.451 33.0036 262.841 32.0123 286.682C32.0049 286.83 31.9429 286.97 31.8382 287.075C31.7335 287.179 31.5937 287.241 31.4458 287.249V287.249Z" fill="white"/>
<path d="M27.6227 258.512H27.4508C21.8931 256.973 16.1854 256.041 10.4271 255.73C10.3492 255.728 10.2725 255.71 10.2016 255.677C10.1308 255.644 10.0671 255.598 10.0144 255.541C9.96162 255.483 9.92086 255.416 9.89447 255.342C9.86808 255.269 9.85659 255.191 9.86067 255.113C9.86185 255.035 9.879 254.957 9.91108 254.886C9.94316 254.814 9.9895 254.75 10.0472 254.697C10.105 254.644 10.173 254.603 10.247 254.578C10.321 254.552 10.3995 254.541 10.4777 254.547C16.3509 254.853 22.1738 255.792 27.8453 257.349C27.9937 257.4 28.1166 257.506 28.1882 257.645C28.2599 257.785 28.2747 257.947 28.2296 258.097C28.1893 258.224 28.1076 258.334 27.9976 258.409C27.8876 258.484 27.7557 258.52 27.6227 258.512V258.512Z" fill="white"/>
<path d="M241.738 465.658C370.779 465.658 475.386 405.264 475.386 330.764C475.386 256.264 370.779 195.869 241.738 195.869C112.698 195.869 8.09033 256.264 8.09033 330.764C8.09033 405.264 112.698 465.658 241.738 465.658Z" fill="#FAFAFA"/>
<path d="M117.566 273.26C167.059 244.695 247.291 244.695 296.774 273.26C338.722 297.475 345.094 334.446 315.932 362.555L424.821 424.622C431.457 428.455 431.457 434.666 424.821 438.499L415.03 444.154C408.394 447.987 397.834 447.684 391.401 443.486L296.319 376.99C246.755 405.312 166.927 405.201 117.606 376.727C68.0827 348.152 68.0827 301.835 117.566 273.26Z" fill="#E6E6E6"/>
<path d="M137.624 22.0923L129.047 27.0487C129.09 26.6725 129.114 26.2944 129.117 25.9158V23.4275C129.117 18.9971 126.012 17.2067 122.179 19.3814C120.527 20.3895 119.115 21.7462 118.041 23.3567C117.404 17.7934 113.045 15.7198 107.734 18.7745C101.999 22.0923 97.3561 30.1439 97.3561 36.7692V40.4815C97.3163 41.9695 97.6173 43.4468 98.2361 44.8006L91.1556 48.9174C90.0273 49.6494 89.0893 50.6393 88.4192 51.8054C87.749 52.9715 87.366 54.2803 87.3018 55.6237C87.3018 58.0817 89.0213 59.073 91.1556 57.8491L137.685 30.9834C138.808 30.2555 139.743 29.2719 140.412 28.1133C141.082 26.9548 141.468 25.654 141.539 24.3176C141.478 21.8596 139.759 20.8684 137.624 22.0923Z" fill="#EBEBEB"/>
<path d="M24.487 44.4061L29.322 40.6737V30.0124C29.322 21.5562 36.0688 11.7445 43.382 7.52656C50.7053 3.29846 56.6428 6.72747 56.6428 15.1736V16.7212C58.1864 14.2206 60.2922 12.1148 62.7928 10.5712C68.0628 7.53668 72.3313 9.99464 72.3313 16.0738V16.7819L79.0781 12.8876C82.5475 10.8645 85.3595 12.5032 85.3595 16.5087C85.2418 18.689 84.6116 20.8107 83.5202 22.7017C82.4288 24.5928 80.9069 26.1999 79.0781 27.3926L24.487 58.9111C21.0176 60.9341 18.2056 59.2854 18.2056 55.2798C18.3233 53.101 18.9535 50.9807 20.045 49.0912C21.1365 47.2018 22.6584 45.5966 24.487 44.4061V44.4061Z" fill="#EBEBEB"/>
<path d="M96.2329 291.851V322.631C96.2329 339.341 107.279 356.011 129.36 368.807C173.522 394.307 245.137 394.307 289.299 368.807C311.38 356.051 322.426 339.341 322.426 322.631V291.851C322.426 275.141 311.38 258.471 289.299 245.686C245.137 220.186 173.522 220.186 129.36 245.686C107.279 258.431 96.2329 275.141 96.2329 291.851V291.851ZM311.482 291.851C311.482 305.223 301.66 318.251 283.827 328.549C264.103 339.938 237.652 346.209 209.33 346.209C181.007 346.209 154.556 339.938 134.832 328.549C116.999 318.251 107.177 305.223 107.177 291.851C107.177 278.479 116.999 265.451 134.832 255.154C154.556 243.764 181.007 237.493 209.33 237.493C237.652 237.493 264.113 243.764 283.827 255.154C301.67 265.451 311.482 278.509 311.482 291.851Z" fill="#59C59A"/>
<path opacity="0.2" d="M96.2329 291.851V322.631C96.2329 339.341 107.279 356.011 129.36 368.807C173.522 394.307 245.137 394.307 289.299 368.807C311.38 356.051 322.426 339.341 322.426 322.631V291.851C322.426 275.141 311.38 258.471 289.299 245.686C245.137 220.186 173.522 220.186 129.36 245.686C107.279 258.431 96.2329 275.141 96.2329 291.851V291.851ZM311.482 291.851C311.482 305.223 301.66 318.251 283.827 328.549C264.103 339.938 237.652 346.209 209.33 346.209C181.007 346.209 154.556 339.938 134.832 328.549C116.999 318.251 107.177 305.223 107.177 291.851C107.177 278.479 116.999 265.451 134.832 255.154C154.556 243.764 181.007 237.493 209.33 237.493C237.652 237.493 264.113 243.764 283.827 255.154C301.67 265.451 311.482 278.509 311.482 291.851Z" fill="white"/>
<path opacity="0.6" d="M322.315 325.504C320.555 336.094 315.892 344.065 297.108 358.722C270.556 379.458 203.321 387.924 164.297 375.048C127.488 362.909 115.745 339.149 115.745 322.854L115.846 313.275C110.161 306.508 107.167 299.235 107.167 291.851C107.167 284.285 110.313 276.83 116.271 269.922L116.402 256.428H114.309C102.261 267.18 96.2329 279.511 96.2329 291.831V322.611C96.2329 339.321 107.279 355.991 129.36 368.786C173.522 394.286 245.137 394.286 289.299 368.786C310.116 356.79 321.121 341.223 322.315 325.504Z" fill="#59C59A"/>
<path d="M289.309 245.686C245.137 220.186 173.532 220.186 129.37 245.686C85.2073 271.186 85.1972 312.526 129.37 338.026C173.542 363.527 245.137 363.527 289.309 338.026C333.482 312.526 333.472 271.186 289.309 245.686ZM283.837 328.549C264.113 339.938 237.652 346.21 209.339 346.21C181.027 346.21 154.566 339.938 134.832 328.549C116.999 318.251 107.177 305.223 107.177 291.851C107.177 278.479 116.999 265.451 134.832 255.154C154.556 243.764 181.017 237.493 209.339 237.493C237.662 237.493 264.113 243.764 283.837 255.154C301.67 265.451 311.492 278.489 311.492 291.851C311.492 305.213 301.67 318.251 283.837 328.549V328.549Z" fill="#59C59A"/>
<path opacity="0.5" d="M289.309 245.686C245.137 220.186 173.532 220.186 129.37 245.686C85.2073 271.186 85.1972 312.526 129.37 338.026C173.542 363.527 245.137 363.527 289.309 338.026C333.482 312.526 333.472 271.186 289.309 245.686ZM283.837 328.549C264.113 339.938 237.652 346.21 209.339 346.21C181.027 346.21 154.566 339.938 134.832 328.549C116.999 318.251 107.177 305.223 107.177 291.851C107.177 278.479 116.999 265.451 134.832 255.154C154.556 243.764 181.017 237.493 209.339 237.493C237.662 237.493 264.113 243.764 283.837 255.154C301.67 265.451 311.492 278.489 311.492 291.851C311.492 305.213 301.67 318.251 283.837 328.549V328.549Z" fill="white"/>
<path d="M311.502 291.851C311.437 297.287 309.91 302.604 307.081 307.246C302.6 299.488 294.701 292.205 283.817 285.944C264.113 274.544 237.641 268.273 209.319 268.273C180.997 268.273 154.546 274.544 134.832 285.944C123.958 292.205 116.068 299.488 111.567 307.246C108.761 302.596 107.246 297.282 107.177 291.851C107.177 278.489 116.999 265.451 134.842 255.144C154.556 243.774 181.017 237.493 209.329 237.493C237.641 237.493 264.123 243.774 283.827 255.144C301.68 265.451 311.502 278.509 311.502 291.851Z" fill="#59C59A"/>
<path opacity="0.3" d="M311.502 291.851C311.437 297.287 309.91 302.604 307.081 307.246C302.6 299.488 294.701 292.205 283.817 285.944C264.113 274.544 237.641 268.273 209.319 268.273C180.997 268.273 154.546 274.544 134.832 285.944C123.958 292.205 116.068 299.488 111.567 307.246C108.761 302.596 107.246 297.282 107.177 291.851C107.177 278.489 116.999 265.451 134.842 255.144C154.556 243.774 181.017 237.493 209.329 237.493C237.641 237.493 264.123 243.774 283.827 255.144C301.68 265.451 311.502 278.509 311.502 291.851Z" fill="white"/>
<path opacity="0.6" d="M134.842 255.144C116.999 265.451 107.177 278.489 107.177 291.851C107.249 297.283 108.768 302.597 111.577 307.246C116.089 299.488 123.978 292.205 134.842 285.944C139.436 283.316 144.208 281.015 149.124 279.056C144.815 280.725 131.585 284.983 136.41 272.369C142.145 257.389 170.133 241.165 190.697 238.474C169.547 240.568 150.156 246.313 134.842 255.144Z" fill="#59C59A"/>
<path opacity="0.4" d="M283.837 269.092C264.113 257.703 237.652 251.431 209.34 251.431C181.028 251.431 154.557 257.703 134.832 269.092C120.125 277.589 110.88 287.947 108.088 298.82C110.88 309.694 120.125 320.062 134.832 328.549C154.567 339.938 181.018 346.21 209.34 346.21C237.662 346.21 264.113 339.938 283.837 328.549C298.555 320.052 307.8 309.694 310.581 298.82C307.81 287.947 298.555 277.589 283.837 269.092Z" fill="white"/>
<path d="M127.276 305.881C133.598 310.837 140.769 313.973 148.083 316.461C155.416 318.89 162.927 320.743 170.548 322.004C185.777 324.477 201.221 325.358 216.632 324.634C224.33 324.29 232.038 323.572 239.695 322.54C247.328 321.515 254.891 320.025 262.342 318.079C269.758 316.224 276.931 313.509 283.716 309.987C285.39 309.095 287.012 308.106 288.571 307.024C290.137 305.955 291.621 304.772 293.011 303.483C294.414 302.189 295.666 300.74 296.744 299.164C297.859 297.546 298.709 295.76 299.262 293.874C299.296 295.942 298.953 297.998 298.251 299.943C297.508 301.898 296.537 303.759 295.358 305.486C294.192 307.226 292.865 308.852 291.393 310.341C289.936 311.838 288.385 313.24 286.75 314.539C280.159 319.564 272.852 323.573 265.073 326.435C257.404 329.324 249.493 331.528 241.435 333.019C233.418 334.537 225.307 335.5 217.158 335.902C200.803 336.757 184.415 335.013 168.606 330.733C160.698 328.566 153.059 325.513 145.837 321.63C142.24 319.658 138.822 317.377 135.621 314.812C134.822 314.175 134.073 313.477 133.304 312.789C132.536 312.102 131.807 311.404 131.109 310.665C129.701 309.18 128.418 307.58 127.276 305.881V305.881Z" fill="white"/>
<path d="M285.941 357.619C286.077 354.869 286.861 352.189 288.228 349.798C289.596 347.408 291.508 345.374 293.81 343.863C295.975 342.598 297.948 342.467 299.384 343.276L324.591 357.69C326.017 358.509 326.907 360.28 326.917 362.748C326.779 365.498 325.994 368.177 324.627 370.567C323.259 372.957 321.348 374.991 319.048 376.504C316.863 377.779 314.88 377.91 313.444 377.081L288.247 362.677C286.851 361.928 285.951 360.158 285.941 357.619Z" fill="#37474F"/>
<path d="M288.298 362.748C286.851 361.928 285.951 360.158 285.941 357.619C285.977 355.572 286.435 353.554 287.286 351.692L323.508 372.448C322.33 374.105 320.83 375.509 319.098 376.575C316.913 377.849 314.931 377.981 313.494 377.152L288.298 362.748V362.748Z" fill="#263238"/>
<path d="M410.417 398.687L330.205 357.812L330.104 357.751C328.242 356.739 325.714 356.921 322.932 358.54C317.247 361.858 312.665 369.869 312.695 376.443C312.695 379.741 313.879 382.047 315.73 383.119L391.118 431.672C393.287 433.045 395.71 433.967 398.243 434.383C400.776 434.799 403.367 434.701 405.862 434.094C408.356 433.487 410.702 432.384 412.761 430.85C414.82 429.317 416.549 427.385 417.845 425.169C419.141 422.953 419.977 420.499 420.304 417.952C420.631 415.406 420.442 412.82 419.747 410.349C419.053 407.877 417.868 405.571 416.264 403.567C414.659 401.564 412.667 399.904 410.407 398.687H410.417Z" fill="#455A64"/>
<path d="M315.74 383.14L391.128 431.692C393.93 433.451 397.142 434.452 400.448 434.597C403.754 434.741 407.041 434.024 409.986 432.516C412.932 431.007 415.435 428.759 417.25 425.992C419.065 423.225 420.13 420.034 420.34 416.732C418.894 423.013 408.516 428.354 395.649 421.162C382.783 413.97 335.121 383.838 313.464 371.366C312.956 373.004 312.69 374.708 312.675 376.423C312.685 379.761 313.879 382.067 315.74 383.14Z" fill="#37474F"/>
<path d="M315.74 383.14C313.859 382.067 312.706 379.761 312.706 376.464C312.706 369.889 317.257 361.878 322.942 358.56C325.724 356.942 328.252 356.77 330.114 357.771L337.194 361.372C335.282 360.361 332.703 360.522 329.841 362.181C324.014 365.58 319.311 373.803 319.341 380.55C319.341 383.929 320.504 386.346 322.426 387.439" fill="#59C59A"/>
<path opacity="0.2" d="M322.416 387.439C320.494 386.346 319.382 383.929 319.331 380.55C319.342 378.763 319.618 376.987 320.15 375.28C317.733 373.844 315.477 372.529 313.464 371.366C313.209 372.211 313.01 373.073 312.868 373.945C312.807 374.37 312.756 374.795 312.716 375.22C312.716 375.644 312.665 376.059 312.716 376.464C312.716 379.761 313.899 382.067 315.75 383.14L322.416 387.439Z" fill="black"/>
<path d="M123.928 429.993L63.2375 399.637L39.0625 410.339L123.928 429.993Z" fill="#59C59A"/>
<g opacity="0.15">
<path opacity="0.15" d="M123.928 429.993L63.2375 399.637L39.0625 410.339L123.928 429.993Z" fill="white"/>
</g>
<path d="M123.928 429.993L70.4697 394.256L80.0386 380.5L123.928 429.993Z" fill="#59C59A"/>
<g opacity="0.15">
<path opacity="0.15" d="M123.928 429.993L70.4697 394.256L80.0386 380.5L123.928 429.993Z" fill="white"/>
</g>
<path d="M70.4697 394.256L71.4711 403.754L123.928 429.993L70.4697 394.256Z" fill="#59C59A"/>
<g opacity="0.2">
<path opacity="0.2" d="M70.4697 394.256L71.4711 403.754L123.928 429.993L70.4697 394.256Z" fill="black"/>
</g>
<path d="M61.8113 392.435C61.9582 392.432 62.0987 392.374 62.2058 392.274C62.3296 392.152 62.4042 391.988 62.4154 391.815C62.4266 391.641 62.3736 391.47 62.2665 391.333L61.1032 389.775C61.0561 389.709 60.9954 389.655 60.9253 389.614C60.8552 389.574 60.7773 389.549 60.6968 389.542C60.6163 389.534 60.5351 389.544 60.4587 389.57C60.3822 389.596 60.3123 389.639 60.2536 389.694C60.1302 389.816 60.0551 389.978 60.0421 390.151C60.0291 390.324 60.079 390.496 60.1828 390.635C60.5672 391.151 60.9616 391.646 61.3561 392.162C61.4058 392.24 61.4727 392.305 61.5517 392.352C61.6306 392.4 61.7195 392.428 61.8113 392.435V392.435Z" fill="#455A64"/>
<path d="M56.4809 385.537C55.7593 384.485 55.0614 383.423 54.3871 382.351C54.2958 382.203 54.2609 382.028 54.2888 381.857C54.3167 381.686 54.4055 381.531 54.5388 381.42C54.6017 381.37 54.6747 381.335 54.7527 381.316C54.8308 381.297 54.912 381.295 54.9908 381.31C55.0696 381.326 55.1441 381.358 55.2093 381.405C55.2744 381.452 55.3287 381.512 55.3682 381.582C56.0459 382.644 56.7338 383.696 57.3912 384.738C57.4903 384.88 57.5328 385.055 57.5103 385.227C57.4879 385.399 57.4021 385.556 57.2699 385.668C57.1717 385.754 57.0459 385.8 56.9158 385.8C56.8285 385.791 56.7442 385.763 56.669 385.717C56.5938 385.672 56.5296 385.61 56.4809 385.537V385.537ZM51.13 376.848C50.513 375.725 49.9061 374.582 49.3295 373.439C49.2503 373.285 49.2302 373.108 49.2731 372.94C49.316 372.772 49.4188 372.626 49.5622 372.529C49.6318 372.486 49.7099 372.459 49.791 372.449C49.8722 372.439 49.9545 372.447 50.0324 372.472C50.1102 372.497 50.1817 372.538 50.242 372.594C50.3023 372.649 50.3499 372.717 50.3815 372.792C50.9479 373.915 51.5447 375.037 52.1516 376.15C52.2378 376.301 52.2658 376.477 52.2304 376.647C52.195 376.817 52.0986 376.967 51.9595 377.071C51.865 377.129 51.7567 377.16 51.6459 377.162C51.5398 377.16 51.4361 377.13 51.3454 377.075C51.2547 377.02 51.1804 376.941 51.13 376.848V376.848ZM46.6187 367.583C46.1129 366.379 45.6072 365.165 45.1824 363.961C45.1203 363.802 45.119 363.625 45.1786 363.465C45.2383 363.305 45.3548 363.172 45.506 363.092C45.5814 363.06 45.6626 363.044 45.7444 363.045C45.8262 363.046 45.9069 363.065 45.9812 363.099C46.0555 363.133 46.1218 363.183 46.1758 363.244C46.2299 363.306 46.2705 363.378 46.295 363.456C46.73 364.639 47.2054 365.833 47.7111 367.016C47.7791 367.175 47.7868 367.353 47.7328 367.517C47.6788 367.681 47.5668 367.819 47.4178 367.906C47.3392 367.946 47.2527 367.966 47.1649 367.967C47.0463 367.963 46.9313 367.925 46.8342 367.857C46.7371 367.788 46.6622 367.693 46.6187 367.583V367.583ZM43.1189 357.791C42.7547 356.527 42.4108 355.242 42.1074 353.998C42.0591 353.833 42.0763 353.656 42.1554 353.503C42.2346 353.351 42.3695 353.234 42.5322 353.179C42.6114 353.158 42.694 353.154 42.7749 353.166C42.8558 353.178 42.9333 353.207 43.0025 353.251C43.0718 353.295 43.1313 353.352 43.1775 353.42C43.2236 353.487 43.2553 353.564 43.2706 353.644C43.5639 354.878 43.8977 356.132 44.2821 357.377C44.3336 357.539 44.3228 357.715 44.2517 357.87C44.1807 358.026 44.0545 358.149 43.8977 358.216H43.7157C43.5839 358.218 43.4548 358.178 43.3474 358.102C43.24 358.025 43.1599 357.917 43.1189 357.791V357.791ZM40.7722 347.565C40.5699 346.28 40.3878 344.965 40.2361 343.661C40.2065 343.493 40.244 343.321 40.3405 343.18C40.4371 343.04 40.5849 342.944 40.752 342.912C40.9178 342.901 41.0815 342.955 41.2081 343.062C41.3347 343.17 41.4142 343.323 41.4297 343.489C41.5713 344.773 41.7533 346.068 41.9556 347.332C41.9897 347.497 41.9594 347.668 41.871 347.811C41.7826 347.954 41.6427 348.058 41.4802 348.101H41.369C41.2231 348.094 41.0843 348.036 40.9756 347.939C40.867 347.841 40.7952 347.709 40.7722 347.565V347.565ZM39.7607 337.086C39.7607 336.074 39.7 335.063 39.7 333.98V333.131C39.6959 333.048 39.7081 332.966 39.7359 332.888C39.7637 332.811 39.8066 332.739 39.862 332.678C39.9174 332.617 39.9844 332.568 40.059 332.532C40.1336 332.497 40.2144 332.477 40.2968 332.473C40.4641 332.486 40.6196 332.565 40.7294 332.692C40.8393 332.818 40.8946 332.984 40.8835 333.151V333.98C40.8835 334.992 40.8835 336.003 40.8835 337.015C40.8976 337.184 40.8452 337.351 40.7375 337.481C40.6297 337.612 40.4751 337.695 40.3069 337.713V337.713C40.155 337.693 40.0155 337.618 39.9149 337.503C39.8143 337.387 39.7594 337.239 39.7607 337.086V337.086ZM40.5598 327.284C40.3942 327.254 40.2464 327.162 40.1466 327.027C40.0469 326.891 40.0029 326.723 40.0237 326.556C40.1349 325.251 40.2765 323.926 40.4384 322.621C40.4445 322.539 40.4675 322.458 40.506 322.385C40.5444 322.311 40.5975 322.246 40.662 322.194C40.7264 322.142 40.8008 322.104 40.8807 322.081C40.9605 322.059 41.0441 322.054 41.1262 322.065C41.2914 322.099 41.4368 322.196 41.5312 322.336C41.6257 322.476 41.6618 322.647 41.632 322.813C41.4701 324.098 41.3285 325.403 41.2172 326.677C41.2101 326.834 41.1452 326.983 41.035 327.095C40.9249 327.207 40.7772 327.274 40.6205 327.284H40.5598ZM41.9759 316.947C41.8139 316.895 41.6777 316.784 41.595 316.635C41.5123 316.487 41.4893 316.312 41.5308 316.148C41.7938 314.863 42.0973 313.578 42.4311 312.314C42.4462 312.234 42.4779 312.158 42.5242 312.09C42.5704 312.023 42.6302 311.966 42.6997 311.923C42.7692 311.88 42.8469 311.853 42.9278 311.841C43.0087 311.83 43.091 311.836 43.1695 311.859C43.3296 311.92 43.4609 312.04 43.5376 312.193C43.6143 312.347 43.6309 312.523 43.5842 312.688C43.2605 313.922 42.957 315.197 42.6941 316.451C42.673 316.591 42.6039 316.719 42.4986 316.813C42.3934 316.907 42.2586 316.961 42.1175 316.967L41.9759 316.947ZM44.7069 306.943C44.5531 306.868 44.4331 306.738 44.3712 306.578C44.3093 306.419 44.31 306.242 44.3732 306.083C44.8081 304.869 45.2936 303.645 45.7994 302.452C45.828 302.376 45.8719 302.307 45.9285 302.249C45.985 302.191 46.053 302.145 46.1281 302.115C46.2031 302.085 46.2837 302.07 46.3646 302.072C46.4456 302.075 46.5252 302.094 46.5985 302.128C46.7458 302.217 46.8565 302.355 46.9103 302.519C46.9642 302.682 46.9576 302.859 46.8918 303.018C46.3861 304.192 45.8803 305.385 45.4858 306.579C45.4479 306.697 45.3739 306.801 45.2741 306.875C45.1744 306.95 45.0539 306.991 44.9295 306.993C44.8522 306.996 44.7755 306.979 44.7069 306.943V306.943ZM48.8642 297.546C48.7217 297.446 48.6213 297.296 48.5821 297.126C48.5429 296.956 48.5677 296.778 48.6518 296.625C49.2688 295.503 49.9162 294.38 50.5737 293.298C50.6126 293.226 50.6664 293.163 50.7317 293.114C50.7969 293.065 50.872 293.031 50.9517 293.014C51.0314 292.997 51.1139 292.997 51.1936 293.014C51.2732 293.032 51.3482 293.066 51.4132 293.116C51.5464 293.226 51.6358 293.38 51.6655 293.551C51.6951 293.722 51.6631 293.897 51.5751 294.046C50.9176 295.108 50.2804 296.211 49.6836 297.313C49.6354 297.409 49.5619 297.49 49.4709 297.547C49.38 297.604 49.2751 297.635 49.1677 297.637C49.0599 297.637 48.9544 297.605 48.8642 297.546ZM54.2353 288.958C54.1127 288.838 54.038 288.677 54.0249 288.506C54.0119 288.335 54.0615 288.165 54.1645 288.028C54.9232 287.016 55.7223 286.005 56.5214 285.054C56.5736 284.992 56.6386 284.942 56.712 284.908C56.7854 284.874 56.8653 284.857 56.9462 284.857C57.0271 284.857 57.107 284.874 57.1804 284.908C57.2537 284.942 57.3188 284.992 57.371 285.054C57.4862 285.183 57.5498 285.351 57.5498 285.524C57.5498 285.698 57.4862 285.865 57.371 285.995C56.582 286.935 55.8032 287.906 55.0547 288.908C55.0019 288.982 54.9321 289.043 54.8512 289.085C54.7704 289.127 54.6806 289.15 54.5894 289.15C54.5122 289.149 54.4362 289.131 54.3665 289.098C54.2967 289.065 54.2348 289.017 54.1848 288.958H54.2353ZM60.7393 281.392C60.6242 281.263 60.5605 281.095 60.5605 280.922C60.5605 280.748 60.6242 280.581 60.7393 280.451C61.6295 279.571 62.5499 278.712 63.4704 277.902C63.5311 277.848 63.6028 277.808 63.6804 277.784C63.7581 277.76 63.8401 277.753 63.9207 277.764C64.0013 277.774 64.0787 277.802 64.1476 277.845C64.2165 277.888 64.2753 277.946 64.3201 278.014C64.418 278.157 64.4616 278.33 64.4431 278.503C64.4245 278.675 64.345 278.835 64.2189 278.954C63.3086 279.743 62.4083 280.583 61.5283 281.443C61.4246 281.55 61.2828 281.611 61.1338 281.615C61.0477 281.613 60.9631 281.592 60.8861 281.554C60.809 281.515 60.7416 281.46 60.6888 281.392H60.7393ZM68.184 274.989C68.101 274.839 68.0738 274.664 68.1071 274.496C68.1404 274.327 68.2321 274.176 68.3661 274.069C69.3776 273.341 70.3891 272.663 71.4006 272.046C71.4699 272.005 71.5471 271.979 71.6271 271.97C71.7071 271.961 71.7881 271.969 71.8647 271.994C71.9413 272.019 72.0117 272.06 72.0712 272.114C72.1307 272.169 72.178 272.235 72.2098 272.309C72.2884 272.461 72.3082 272.637 72.2652 272.803C72.2223 272.969 72.1198 273.114 71.9772 273.209C70.9657 273.816 69.9542 274.484 68.9427 275.232C68.8479 275.299 68.7348 275.334 68.619 275.333C68.5156 275.321 68.4169 275.284 68.332 275.224C68.2471 275.164 68.1788 275.083 68.1335 274.989H68.184Z" fill="#455A64"/>
<path d="M77.0849 270.62H77.267C77.8013 270.417 78.3532 270.265 78.9157 270.164C79.0817 270.128 79.2272 270.028 79.3215 269.887C79.4158 269.746 79.4516 269.573 79.4215 269.406C79.4152 269.324 79.3925 269.244 79.3548 269.171C79.3171 269.097 79.2651 269.033 79.202 268.98C79.1388 268.927 79.0658 268.887 78.9871 268.863C78.9084 268.839 78.8256 268.831 78.7438 268.839C78.1171 268.957 77.5014 269.126 76.9028 269.345C76.7427 269.409 76.6127 269.531 76.5394 269.687C76.4662 269.843 76.455 270.021 76.5083 270.185C76.5466 270.309 76.6228 270.417 76.7263 270.495C76.8298 270.573 76.9553 270.617 77.0849 270.62Z" fill="#455A64"/>
<path d="M361.116 37.9224L298.909 18.8554L346.834 51.78L361.116 37.9224Z" fill="#59C59A"/>
<path opacity="0.15" d="M361.116 37.9224L298.909 18.8554L346.834 51.78L361.116 37.9224Z" fill="white"/>
<path d="M298.909 18.8555L365.86 29.628L380.143 15.7704L298.909 18.8555Z" fill="#59C59A"/>
<path opacity="0.15" d="M298.909 18.8555L365.86 29.628L380.143 15.7704L298.909 18.8555Z" fill="white"/>
<path d="M365.86 29.628L365.921 46.1762L361.116 37.9224L298.909 18.8554L365.86 29.628Z" fill="#59C59A"/>
<path opacity="0.2" d="M365.86 29.628L365.921 46.1762L361.116 37.9224L298.909 18.8554L365.86 29.628Z" fill="black"/>
<path d="M365.921 46.1763L356.352 42.545L361.116 37.9224L365.921 46.1763Z" fill="#59C59A"/>
<path opacity="0.2" d="M361.116 37.9224L356.352 42.545L357.879 43.1215L361.116 37.9224Z" fill="black"/>
<path d="M378.474 35.0092C378.415 35.0524 378.367 35.1069 378.33 35.1695C378.294 35.2321 378.27 35.3015 378.261 35.3734C378.24 35.546 378.282 35.7205 378.378 35.8652C378.475 36.0099 378.62 36.1153 378.787 36.1623L380.628 36.658C380.705 36.6823 380.787 36.6894 380.867 36.6789C380.948 36.6684 381.025 36.6405 381.093 36.5972C381.161 36.5538 381.219 36.4961 381.263 36.428C381.307 36.3599 381.335 36.283 381.346 36.2028C381.37 36.0325 381.333 35.8592 381.24 35.7144C381.147 35.5697 381.005 35.463 380.841 35.4138L378.979 34.9182C378.894 34.8932 378.804 34.8884 378.716 34.9042C378.628 34.92 378.545 34.956 378.474 35.0092V35.0092Z" fill="#455A64"/>
<path d="M386.9 37.2649C388.103 37.6695 389.307 38.0943 390.49 38.5293C390.653 38.5907 390.788 38.708 390.871 38.86C390.954 39.0121 390.981 39.1889 390.946 39.3587C390.925 39.437 390.887 39.5098 390.835 39.5723C390.784 39.6348 390.719 39.6855 390.646 39.721C390.574 39.7565 390.494 39.7759 390.413 39.778C390.332 39.78 390.251 39.7647 390.177 39.733C389.003 39.298 387.81 38.8833 386.616 38.4787C386.454 38.4232 386.317 38.3105 386.231 38.1616C386.146 38.0128 386.117 37.8379 386.151 37.6695C386.175 37.5397 386.247 37.4239 386.353 37.3458C386.43 37.2877 386.521 37.2499 386.616 37.2357C386.712 37.2216 386.809 37.2316 386.9 37.2649V37.2649ZM396.418 40.9266C397.601 41.4525 398.765 41.9381 399.918 42.5551C400.074 42.6281 400.197 42.7564 400.265 42.9151C400.332 43.0739 400.338 43.2519 400.282 43.4149C400.252 43.4903 400.206 43.5586 400.147 43.6151C400.089 43.6716 400.019 43.7152 399.943 43.7429C399.866 43.7706 399.785 43.7818 399.704 43.7758C399.623 43.7699 399.544 43.7468 399.473 43.7082C398.34 43.1519 397.187 42.6158 396.023 42.11C395.867 42.039 395.741 41.9143 395.668 41.7584C395.596 41.6024 395.582 41.4257 395.629 41.2603C395.662 41.1512 395.73 41.0555 395.821 40.9872C395.906 40.9244 396.006 40.8855 396.111 40.8749C396.216 40.8642 396.322 40.882 396.418 40.9266V40.9266ZM405.623 45.5694C406.755 46.2167 407.868 46.8944 408.96 47.5924C409.106 47.6827 409.214 47.8226 409.264 47.9862C409.314 48.1499 409.303 48.3262 409.234 48.4825C409.193 48.5541 409.139 48.6165 409.073 48.6656C409.007 48.7146 408.932 48.7494 408.852 48.7675C408.771 48.7856 408.688 48.7867 408.608 48.7707C408.527 48.7547 408.451 48.722 408.384 48.6747C407.312 47.997 406.209 47.3395 405.097 46.6517C404.947 46.568 404.833 46.432 404.777 46.2697C404.721 46.1073 404.727 45.93 404.793 45.7717C404.827 45.6874 404.883 45.6139 404.955 45.5593C405.055 45.4955 405.172 45.4625 405.29 45.4643C405.409 45.4661 405.524 45.5026 405.623 45.5694V45.5694ZM414.342 51.2439C415.404 52.0228 416.446 52.832 417.447 53.6412C417.583 53.7457 417.674 53.8977 417.702 54.0666C417.73 54.2354 417.693 54.4087 417.599 54.5516C417.549 54.617 417.486 54.6713 417.414 54.7108C417.341 54.7503 417.262 54.7742 417.18 54.7809C417.098 54.7876 417.015 54.7769 416.937 54.7496C416.86 54.7223 416.789 54.6789 416.729 54.6224C415.717 53.8233 414.706 53.0343 413.694 52.2656C413.552 52.167 413.453 52.0186 413.415 51.8499C413.378 51.6812 413.405 51.5046 413.492 51.3552C413.521 51.3022 413.563 51.2571 413.613 51.2237C413.722 51.1508 413.85 51.1136 413.981 51.1172C414.111 51.1208 414.238 51.1651 414.342 51.2439V51.2439ZM422.383 58.0008C423.334 58.901 424.275 59.8316 425.185 60.7824C425.303 60.9049 425.368 61.068 425.368 61.2376C425.368 61.4073 425.303 61.5704 425.185 61.6928C425.127 61.7515 425.057 61.7981 424.981 61.8299C424.905 61.8617 424.823 61.8781 424.74 61.8781C424.657 61.8781 424.575 61.8617 424.499 61.8299C424.423 61.7981 424.353 61.7515 424.295 61.6928C423.405 60.7622 422.474 59.8417 421.544 58.9617C421.417 58.8487 421.338 58.6917 421.323 58.5226C421.308 58.3534 421.358 58.185 421.463 58.0514L421.544 57.9705C421.663 57.8707 421.814 57.8187 421.969 57.8243C422.124 57.8299 422.272 57.8928 422.383 58.0008V58.0008ZM429.555 65.7085C430.212 66.5076 430.85 67.3168 431.487 68.1462L431.993 68.8239C432.098 68.9532 432.149 69.119 432.134 69.2856C432.119 69.4521 432.039 69.606 431.912 69.714V69.714C431.843 69.7615 431.765 69.7946 431.684 69.8117C431.602 69.8287 431.517 69.8292 431.435 69.8132C431.353 69.7972 431.276 69.7649 431.206 69.7184C431.137 69.6718 431.077 69.6119 431.032 69.5421L430.526 68.8745C429.909 68.0653 429.282 67.2662 428.634 66.4772C428.518 66.3565 428.452 66.1951 428.452 66.0271C428.452 65.8591 428.518 65.6977 428.634 65.577V65.577C428.699 65.5189 428.775 65.475 428.858 65.4479C428.941 65.4209 429.028 65.4114 429.115 65.4199C429.201 65.4285 429.285 65.455 429.361 65.4977C429.437 65.5404 429.503 65.5984 429.555 65.668V65.7085ZM434.865 74.0028C435.014 73.9246 435.187 73.9061 435.348 73.9512C435.51 73.9964 435.649 74.1017 435.735 74.2456C436.433 75.3583 437.121 76.4911 437.758 77.6342C437.802 77.7036 437.832 77.7812 437.846 77.8623C437.86 77.9435 437.857 78.0266 437.838 78.1067C437.819 78.1868 437.785 78.2623 437.736 78.3288C437.688 78.3953 437.626 78.4515 437.556 78.4939C437.402 78.5626 437.228 78.5705 437.068 78.516C436.909 78.4616 436.776 78.349 436.696 78.2006C436.049 77.0778 435.371 75.955 434.673 74.8727C434.583 74.7442 434.545 74.5867 434.566 74.4313C434.586 74.2759 434.664 74.1339 434.784 74.0332L434.865 74.0028ZM439.994 83.1064C440.155 83.0483 440.332 83.0535 440.49 83.1211C440.648 83.1887 440.774 83.3136 440.843 83.4705C441.4 84.654 441.946 85.8577 442.441 87.0614C442.476 87.1355 442.496 87.2159 442.499 87.2979C442.502 87.3798 442.489 87.4615 442.46 87.5381C442.43 87.6146 442.386 87.6845 442.329 87.7434C442.272 87.8023 442.203 87.849 442.128 87.8807C441.963 87.9275 441.786 87.9109 441.633 87.8342C441.479 87.7574 441.36 87.6261 441.298 87.466C440.813 86.2825 440.287 85.0991 439.731 83.946C439.661 83.8206 439.638 83.6745 439.666 83.5338C439.694 83.3931 439.77 83.2668 439.882 83.1772C439.909 83.1224 439.947 83.0741 439.994 83.0356V83.1064ZM443.888 92.7157C444.056 92.6838 444.23 92.7159 444.376 92.8057C444.522 92.8955 444.629 93.0366 444.677 93.2012C445.061 94.4353 445.425 95.6997 445.739 96.9539C445.763 97.0317 445.771 97.1137 445.761 97.1946C445.751 97.2755 445.724 97.3534 445.682 97.4231C445.64 97.4929 445.584 97.553 445.517 97.5994C445.45 97.6458 445.374 97.6774 445.294 97.6923C445.125 97.7143 444.953 97.6727 444.813 97.5755C444.673 97.4783 444.574 97.3325 444.535 97.1664C444.222 95.9323 443.868 94.6882 443.524 93.4845C443.481 93.3681 443.475 93.2412 443.508 93.1216C443.541 93.0019 443.61 92.8954 443.706 92.8169C443.751 92.7455 443.814 92.6864 443.888 92.6449V92.7157ZM446.315 102.679C446.489 102.675 446.657 102.734 446.79 102.846C446.922 102.958 447.009 103.114 447.034 103.286C447.236 104.55 447.398 105.835 447.529 107.109C447.539 107.189 447.532 107.269 447.509 107.346C447.486 107.422 447.447 107.493 447.394 107.553C447.341 107.613 447.277 107.661 447.204 107.695C447.132 107.728 447.053 107.746 446.973 107.747C446.8 107.745 446.633 107.679 446.506 107.561C446.379 107.443 446.3 107.282 446.285 107.109C446.154 105.865 446.002 104.611 445.8 103.367C445.781 103.262 445.791 103.154 445.829 103.055C445.866 102.955 445.929 102.867 446.012 102.8C446.09 102.705 446.196 102.638 446.315 102.608V102.679Z" fill="#455A64"/>
<path d="M457.392 264.176C454.681 262.558 450.858 262.78 446.609 265.188L369.573 309.694C361.349 314.438 354.673 325.726 354.673 334.901C354.673 339.382 356.272 342.517 358.861 344.004L367.125 348.769C369.826 350.306 373.599 350.063 377.786 347.646L454.833 303.14C463.056 298.396 469.722 287.107 469.722 277.933C469.722 273.482 468.144 270.336 465.575 268.829C464.169 268.06 458.747 264.985 457.392 264.176Z" fill="#E0E0E0"/>
<path d="M370.949 349.315C366.296 349.315 363.403 345.633 363.403 339.716C363.403 330.723 369.968 319.607 378.039 314.954L455.086 270.448C457.07 269.217 459.338 268.52 461.671 268.425C466.324 268.425 469.217 272.106 469.217 278.024C469.217 287.026 462.652 298.133 454.58 302.796L377.534 347.302C375.551 348.534 373.281 349.227 370.949 349.315V349.315Z" fill="#FAFAFA"/>
<path d="M461.671 268.89C466.01 268.89 468.751 272.38 468.751 277.993C468.751 286.834 462.298 297.748 454.368 302.27L377.321 346.776C375.415 347.965 373.234 348.642 370.989 348.738C370.028 348.771 369.073 348.582 368.196 348.188C367.319 347.793 366.545 347.203 365.931 346.462C364.495 344.489 363.78 342.082 363.908 339.645C363.908 330.814 370.362 319.9 378.292 315.369L455.339 270.862C457.245 269.673 459.426 268.997 461.671 268.9V268.89ZM461.671 267.888C459.247 267.98 456.889 268.706 454.833 269.992L377.786 314.499C369.563 319.253 362.897 330.531 362.897 339.705C362.897 346.129 366.164 349.821 370.989 349.821C373.411 349.727 375.767 349.005 377.827 347.727L454.873 303.22C463.097 298.476 469.763 287.188 469.763 278.014C469.763 271.591 466.496 267.899 461.671 267.899V267.888Z" fill="#EBEBEB"/>
<path d="M389.864 324.391C390.177 323.805 390.127 323.198 389.864 323.036L387.284 321.549C387.23 321.521 387.169 321.506 387.107 321.506C387.046 321.506 386.985 321.521 386.93 321.549L384.563 322.459L383.784 320.8C383.746 320.719 383.682 320.651 383.602 320.608L381.023 319.111C380.699 318.929 380.163 319.344 379.951 320.032L378.343 325.302C378.255 325.619 378.071 325.902 377.817 326.111L374.226 328.892C373.649 329.327 373.427 330.4 373.841 330.693L376.441 332.574C376.53 332.667 376.596 332.779 376.631 332.903C376.666 333.027 376.671 333.157 376.643 333.282L376.026 338.411C375.976 338.785 376.087 339.038 376.259 339.129L378.838 340.626C379.041 340.737 379.344 340.626 379.617 340.292L382.834 336.185C382.901 336.073 382.995 335.98 383.109 335.914C383.222 335.849 383.35 335.813 383.481 335.811L386.708 336.165C387.213 336.236 387.81 335.305 387.719 334.607L387.102 330.187C387.074 329.86 387.144 329.533 387.305 329.247L389.864 324.391Z" fill="#59C59A"/>
<path opacity="0.15" d="M389.833 323.016C389.778 322.99 389.718 322.977 389.656 322.977C389.595 322.977 389.535 322.99 389.479 323.016L385.878 324.391C385.832 324.414 385.781 324.428 385.729 324.43C385.676 324.432 385.624 324.423 385.576 324.404C385.527 324.385 385.483 324.356 385.446 324.319C385.41 324.282 385.381 324.238 385.363 324.189L384.533 322.429L386.9 321.529C386.955 321.501 387.016 321.487 387.077 321.487C387.139 321.487 387.199 321.501 387.254 321.529L389.833 323.016Z" fill="white"/>
<path opacity="0.15" d="M380.892 326.778C380.801 327.095 380.618 327.377 380.366 327.588L376.775 330.359C376.61 330.488 376.478 330.654 376.39 330.845L373.811 329.348C373.904 329.161 374.035 328.995 374.195 328.862L377.786 326.091C378.039 325.884 378.222 325.605 378.312 325.292V325.292L380.892 326.778Z" fill="white"/>
<path opacity="0.1" d="M383.593 320.598C383.269 320.386 382.723 320.8 382.5 321.508L380.892 326.778L378.312 325.281L379.921 320.011C380.133 319.324 380.669 318.909 380.993 319.091C381.064 319.091 383.249 320.406 383.582 320.588L383.593 320.598Z" fill="black"/>
<path opacity="0.25" d="M378.99 334.051L376.431 332.574L373.831 330.693C373.528 330.47 373.568 329.864 373.831 329.368L376.411 330.865C376.148 331.35 376.107 331.967 376.411 332.19L378.99 334.051Z" fill="black"/>
<path opacity="0.15" d="M378.616 339.888C378.616 340.262 378.677 340.515 378.869 340.616L376.279 339.119C376.177 339.033 376.102 338.92 376.063 338.792C376.024 338.665 376.021 338.529 376.057 338.401L376.674 333.272C376.699 333.151 376.696 333.026 376.665 332.907C376.633 332.787 376.574 332.677 376.492 332.584L379.051 334.061C379.133 334.151 379.193 334.26 379.225 334.378C379.257 334.496 379.259 334.62 379.233 334.739L378.616 339.888Z" fill="black"/>
<path d="M383.754 320.78L385.362 324.199C385.381 324.248 385.409 324.292 385.446 324.329C385.483 324.366 385.527 324.395 385.575 324.414C385.624 324.433 385.676 324.442 385.728 324.44C385.78 324.438 385.831 324.425 385.878 324.401L389.479 323.026C390.046 322.803 390.278 323.612 389.864 324.391L387.264 329.267C387.104 329.553 387.033 329.881 387.062 330.207L387.679 334.628C387.77 335.326 387.173 336.256 386.667 336.185L383.451 335.791C383.32 335.793 383.192 335.829 383.078 335.894C382.965 335.96 382.87 336.053 382.803 336.165L379.627 340.272C379.111 340.929 378.514 340.697 378.616 339.877L379.233 334.749C379.262 334.624 379.258 334.493 379.223 334.369C379.188 334.245 379.121 334.132 379.03 334.041L376.431 332.17C376.016 331.866 376.249 330.804 376.815 330.359L380.406 327.588C380.66 327.379 380.844 327.096 380.932 326.778L382.54 321.509C382.753 320.669 383.491 320.244 383.754 320.78Z" fill="#59C59A"/>
<path opacity="0.5" d="M383.754 320.78L385.362 324.199C385.381 324.248 385.409 324.292 385.446 324.329C385.483 324.366 385.527 324.395 385.575 324.414C385.624 324.433 385.676 324.442 385.728 324.44C385.78 324.438 385.831 324.425 385.878 324.401L389.479 323.026C390.046 322.803 390.278 323.612 389.864 324.391L387.264 329.267C387.104 329.553 387.033 329.881 387.062 330.207L387.679 334.628C387.77 335.326 387.173 336.256 386.667 336.185L383.451 335.791C383.32 335.793 383.192 335.829 383.078 335.894C382.965 335.96 382.87 336.053 382.803 336.165L379.627 340.272C379.111 340.929 378.514 340.697 378.616 339.877L379.233 334.749C379.262 334.624 379.258 334.493 379.223 334.369C379.188 334.245 379.121 334.132 379.03 334.041L376.431 332.17C376.016 331.866 376.249 330.804 376.815 330.359L380.406 327.588C380.66 327.379 380.844 327.096 380.932 326.778L382.54 321.509C382.753 320.669 383.491 320.244 383.754 320.78Z" fill="white"/>
<path d="M407.95 313.973C408.263 313.386 408.202 312.789 407.95 312.627L405.38 311.141C405.324 311.112 405.261 311.097 405.198 311.097C405.135 311.097 405.073 311.112 405.016 311.141L402.659 312.051L401.87 310.392C401.838 310.309 401.777 310.241 401.698 310.2L399.119 308.703C398.795 308.521 398.259 308.935 398.047 309.623L396.368 314.924C396.276 315.239 396.093 315.521 395.842 315.733L392.251 318.504C391.674 318.949 391.452 320.022 391.856 320.315L394.466 322.196C394.555 322.288 394.62 322.402 394.654 322.526C394.687 322.649 394.689 322.78 394.658 322.904L394.051 328.033C394.001 328.407 394.102 328.66 394.274 328.751L396.823 330.197C397.025 330.309 397.319 330.197 397.602 329.864L400.818 325.757C400.886 325.644 400.98 325.551 401.094 325.486C401.207 325.42 401.335 325.385 401.466 325.383L404.682 325.777C405.188 325.838 405.785 324.917 405.694 324.219L405.087 319.799C405.054 319.472 405.125 319.143 405.289 318.858L407.95 313.973Z" fill="#59C59A"/>
<path opacity="0.15" d="M407.889 312.617C407.833 312.593 407.773 312.58 407.712 312.58C407.651 312.58 407.59 312.593 407.535 312.617L403.903 313.993C403.856 314.016 403.804 314.029 403.751 314.032C403.698 314.034 403.646 314.026 403.596 314.007C403.547 313.988 403.502 313.959 403.464 313.921C403.427 313.884 403.397 313.84 403.377 313.791L402.558 312.031L404.915 311.13C404.972 311.103 405.034 311.088 405.097 311.088C405.16 311.088 405.222 311.103 405.279 311.13L407.889 312.617Z" fill="white"/>
<path opacity="0.15" d="M398.947 316.37C398.857 316.686 398.674 316.968 398.421 317.179L394.8 319.981C394.635 320.11 394.503 320.276 394.416 320.467L391.856 318.97C391.956 318.784 392.09 318.62 392.251 318.484L395.842 315.713C396.093 315.5 396.276 315.219 396.368 314.903V314.903L398.947 316.37Z" fill="white"/>
<path opacity="0.1" d="M401.648 310.19C401.324 309.977 400.778 310.392 400.555 311.1L398.947 316.37L396.368 314.924L397.976 309.654C398.188 308.966 398.725 308.551 399.048 308.733C399.119 308.733 401.304 310.048 401.628 310.22L401.648 310.19Z" fill="black"/>
<path opacity="0.25" d="M397.045 323.633L394.486 322.166L391.887 320.285C391.593 320.062 391.634 319.455 391.887 318.959L394.476 320.457C394.213 320.942 394.173 321.559 394.476 321.771L397.045 323.633Z" fill="black"/>
<path opacity="0.15" d="M396.631 329.469C396.58 329.853 396.691 330.106 396.874 330.207L394.294 328.71C394.122 328.609 394.021 328.367 394.072 327.992L394.689 322.864C394.712 322.743 394.708 322.618 394.676 322.499C394.645 322.38 394.587 322.27 394.507 322.176L397.066 323.643C397.148 323.733 397.208 323.841 397.24 323.959C397.272 324.077 397.274 324.201 397.248 324.32L396.631 329.469Z" fill="black"/>
<path d="M401.799 310.372L403.408 313.791C403.427 313.84 403.457 313.884 403.495 313.921C403.532 313.959 403.577 313.988 403.627 314.007C403.676 314.026 403.729 314.034 403.781 314.032C403.834 314.029 403.886 314.016 403.934 313.993L407.535 312.617C408.101 312.395 408.334 313.204 407.919 313.973L405.319 318.858C405.155 319.143 405.084 319.472 405.117 319.799L405.724 324.219C405.825 324.917 405.228 325.838 404.712 325.777L401.496 325.383C401.365 325.385 401.237 325.42 401.124 325.486C401.01 325.551 400.916 325.644 400.849 325.757L397.632 329.864C397.116 330.521 396.519 330.288 396.62 329.469L397.237 324.341C397.265 324.215 397.261 324.085 397.225 323.961C397.19 323.838 397.125 323.725 397.035 323.633L394.436 321.761C394.021 321.458 394.243 320.396 394.82 319.951L398.411 317.179C398.665 316.97 398.849 316.688 398.937 316.37L400.545 311.1C400.808 310.261 401.546 309.866 401.799 310.372Z" fill="#59C59A"/>
<path opacity="0.5" d="M401.799 310.372L403.408 313.791C403.427 313.84 403.457 313.884 403.495 313.921C403.532 313.959 403.577 313.988 403.627 314.007C403.676 314.026 403.729 314.034 403.781 314.032C403.834 314.029 403.886 314.016 403.934 313.993L407.535 312.617C408.101 312.395 408.334 313.204 407.919 313.973L405.319 318.858C405.155 319.143 405.084 319.472 405.117 319.799L405.724 324.219C405.825 324.917 405.228 325.838 404.712 325.777L401.496 325.383C401.365 325.385 401.237 325.42 401.124 325.486C401.01 325.551 400.916 325.644 400.849 325.757L397.632 329.864C397.116 330.521 396.519 330.288 396.62 329.469L397.237 324.341C397.265 324.215 397.261 324.085 397.225 323.961C397.19 323.838 397.125 323.725 397.035 323.633L394.436 321.761C394.021 321.458 394.243 320.396 394.82 319.951L398.411 317.179C398.665 316.97 398.849 316.688 398.937 316.37L400.545 311.1C400.808 310.261 401.546 309.866 401.799 310.372Z" fill="white"/>
<path d="M425.974 303.564C426.278 302.978 426.227 302.381 425.974 302.219L423.365 300.762C423.307 300.737 423.245 300.724 423.183 300.724C423.12 300.724 423.058 300.737 423.001 300.762L420.634 301.673L419.855 300.014C419.823 299.931 419.762 299.863 419.683 299.822L417.103 298.325C416.78 298.143 416.234 298.557 416.031 299.245L414.423 304.515C414.331 304.831 414.148 305.112 413.897 305.324L410.296 308.096C409.73 308.541 409.497 309.603 409.912 309.907L412.511 311.788C412.605 311.877 412.673 311.99 412.708 312.114C412.744 312.239 412.746 312.371 412.714 312.496L412.097 317.624C412.097 317.999 412.157 318.241 412.329 318.342L414.909 319.839C415.121 319.951 415.414 319.839 415.697 319.506L418.904 315.399C418.972 315.285 419.068 315.191 419.183 315.125C419.299 315.06 419.429 315.025 419.561 315.025L422.768 315.419C423.284 315.48 423.881 314.559 423.779 313.862L423.173 309.441C423.141 309.115 423.208 308.788 423.365 308.5L425.974 303.564Z" fill="#59C59A"/>
<path opacity="0.15" d="M425.944 302.209C425.887 302.184 425.825 302.171 425.762 302.171C425.699 302.171 425.637 302.184 425.58 302.209L421.989 303.585C421.942 303.608 421.89 303.621 421.837 303.623C421.784 303.626 421.731 303.617 421.682 303.598C421.633 303.579 421.588 303.55 421.55 303.513C421.512 303.476 421.483 303.431 421.463 303.382L420.634 301.622L423.001 300.722C423.056 300.694 423.116 300.68 423.178 300.68C423.239 300.68 423.3 300.694 423.355 300.722L425.944 302.209Z" fill="white"/>
<path opacity="0.15" d="M417.053 305.952C416.961 306.27 416.779 306.555 416.527 306.771L412.936 309.542C412.771 309.673 412.636 309.839 412.542 310.028L409.962 308.531C410.062 308.346 410.196 308.181 410.357 308.045L413.948 305.274C414.199 305.062 414.382 304.78 414.474 304.465V304.465L417.053 305.952Z" fill="white"/>
<path opacity="0.1" d="M419.703 299.751C419.379 299.539 418.823 299.953 418.611 300.651L417.053 305.952L414.474 304.465L416.082 299.195C416.294 298.507 416.83 298.092 417.154 298.274C417.225 298.274 419.4 299.589 419.733 299.761L419.703 299.751Z" fill="black"/>
<path opacity="0.25" d="M415.091 313.224L412.542 311.758L409.912 309.866C409.619 309.643 409.649 309.037 409.912 308.541L412.491 310.038C412.238 310.524 412.198 311.141 412.491 311.353L415.091 313.224Z" fill="black"/>
<path opacity="0.15" d="M414.686 319.061C414.635 319.445 414.747 319.698 414.929 319.799L412.349 318.302C412.177 318.201 412.076 317.958 412.117 317.584L412.734 312.445C412.76 312.327 412.758 312.204 412.728 312.086C412.698 311.968 412.641 311.859 412.562 311.768L415.111 313.234C415.19 313.326 415.248 313.435 415.279 313.552C415.311 313.67 415.315 313.793 415.293 313.912L414.686 319.061Z" fill="black"/>
<path d="M419.855 299.963L421.463 303.382C421.483 303.431 421.513 303.476 421.55 303.513C421.588 303.55 421.633 303.579 421.682 303.598C421.732 303.617 421.784 303.626 421.837 303.623C421.89 303.621 421.942 303.608 421.989 303.585L425.58 302.209C426.157 301.986 426.379 302.796 425.975 303.564L423.365 308.45C423.208 308.737 423.141 309.065 423.173 309.391L423.78 313.811C423.881 314.509 423.284 315.429 422.768 315.369L419.562 314.974C419.429 314.975 419.299 315.009 419.184 315.075C419.068 315.14 418.972 315.235 418.904 315.348L415.698 319.455C415.182 320.113 414.585 319.88 414.686 319.061L415.293 313.932C415.324 313.808 415.322 313.677 415.288 313.554C415.255 313.43 415.19 313.316 415.101 313.224L412.491 311.343C412.087 311.05 412.309 309.977 412.886 309.542L416.477 306.771C416.728 306.559 416.911 306.277 417.003 305.962L418.611 300.692C418.864 299.852 419.602 299.427 419.855 299.963Z" fill="#59C59A"/>
<path opacity="0.5" d="M419.855 299.963L421.463 303.382C421.483 303.431 421.513 303.476 421.55 303.513C421.588 303.55 421.633 303.579 421.682 303.598C421.732 303.617 421.784 303.626 421.837 303.623C421.89 303.621 421.942 303.608 421.989 303.585L425.58 302.209C426.157 301.986 426.379 302.796 425.975 303.564L423.365 308.45C423.208 308.737 423.141 309.065 423.173 309.391L423.78 313.811C423.881 314.509 423.284 315.429 422.768 315.369L419.562 314.974C419.429 314.975 419.299 315.009 419.184 315.075C419.068 315.14 418.972 315.235 418.904 315.348L415.698 319.455C415.182 320.113 414.585 319.88 414.686 319.061L415.293 313.932C415.324 313.808 415.322 313.677 415.288 313.554C415.255 313.43 415.19 313.316 415.101 313.224L412.491 311.343C412.087 311.05 412.309 309.977 412.886 309.542L416.477 306.771C416.728 306.559 416.911 306.277 417.003 305.962L418.611 300.692C418.864 299.852 419.602 299.427 419.855 299.963Z" fill="white"/>
<path d="M444.02 293.156C444.333 292.569 444.283 291.972 444.02 291.811L441.451 290.314C441.393 290.288 441.331 290.275 441.269 290.275C441.206 290.275 441.144 290.288 441.087 290.314L438.72 291.224L437.941 289.565C437.906 289.481 437.846 289.41 437.769 289.363C437.445 289.191 435.26 287.916 435.189 287.876C434.866 287.694 434.32 288.109 434.107 288.796L432.499 294.066C432.411 294.381 432.231 294.663 431.983 294.875L428.382 297.647C427.816 298.092 427.583 299.154 427.998 299.458L430.597 301.339C430.689 301.427 430.756 301.538 430.792 301.661C430.827 301.783 430.83 301.913 430.799 302.037L430.182 307.165C430.182 307.54 430.243 307.792 430.415 307.894L432.994 309.391C433.197 309.502 433.5 309.391 433.773 309.057L436.99 304.95C437.057 304.838 437.152 304.744 437.265 304.679C437.378 304.613 437.506 304.578 437.637 304.576L440.854 304.97C441.37 305.031 441.967 304.111 441.865 303.413L441.248 298.992C441.224 298.666 441.295 298.339 441.451 298.052L444.02 293.156Z" fill="#59C59A"/>
<path opacity="0.15" d="M443.99 291.801C443.934 291.775 443.874 291.762 443.813 291.762C443.752 291.762 443.691 291.775 443.636 291.801L440.035 293.176C439.988 293.199 439.937 293.212 439.885 293.215C439.833 293.217 439.781 293.208 439.732 293.189C439.683 293.17 439.639 293.141 439.603 293.104C439.566 293.067 439.537 293.023 439.519 292.974L438.689 291.214L441.056 290.314C441.111 290.283 441.171 290.268 441.233 290.268C441.295 290.268 441.356 290.283 441.41 290.314L443.99 291.801Z" fill="white"/>
<path opacity="0.15" d="M435.058 295.543C434.966 295.862 434.783 296.146 434.532 296.362L430.941 299.134C430.776 299.265 430.641 299.431 430.547 299.619L427.967 298.122C428.063 297.938 428.194 297.773 428.352 297.637L431.943 294.865C432.2 294.657 432.388 294.375 432.479 294.056L435.058 295.543Z" fill="white"/>
<path opacity="0.1" d="M437.759 289.373C437.435 289.16 436.879 289.575 436.666 290.273L435.058 295.543L432.479 294.056L434.087 288.786C434.289 288.098 434.835 287.684 435.159 287.866C435.23 287.866 437.405 289.181 437.738 289.353L437.759 289.373Z" fill="black"/>
<path opacity="0.25" d="M433.146 302.785L430.597 301.319L427.997 299.437C427.694 299.215 427.734 298.608 427.997 298.112L430.577 299.609C430.314 300.095 430.283 300.712 430.577 300.924L433.146 302.785Z" fill="black"/>
<path opacity="0.15" d="M432.731 308.652C432.731 309.037 432.802 309.289 432.984 309.391L430.385 307.843C430.213 307.742 430.111 307.499 430.152 307.125L430.769 301.986C430.793 301.868 430.79 301.745 430.76 301.628C430.73 301.511 430.675 301.402 430.597 301.309L433.146 302.775C433.226 302.867 433.282 302.976 433.312 303.094C433.342 303.211 433.344 303.335 433.318 303.453L432.731 308.652Z" fill="black"/>
<path d="M437.91 289.555L439.519 292.974C439.538 293.023 439.568 293.067 439.605 293.105C439.643 293.142 439.688 293.171 439.737 293.19C439.787 293.209 439.84 293.217 439.892 293.215C439.945 293.213 439.997 293.199 440.045 293.176L443.635 291.801C444.212 291.578 444.434 292.387 444.02 293.156L441.42 298.042C441.264 298.329 441.194 298.656 441.218 298.982L441.835 303.402C441.936 304.1 441.339 305.021 440.823 304.96L437.607 304.566C437.476 304.568 437.348 304.603 437.235 304.669C437.121 304.734 437.027 304.828 436.959 304.94L433.743 309.047C433.237 309.704 432.64 309.472 432.731 308.652L433.348 303.524C433.381 303.399 433.379 303.267 433.343 303.142C433.308 303.018 433.24 302.905 433.146 302.816L430.546 300.934C430.132 300.641 430.364 299.569 430.931 299.134L434.532 296.362C434.781 296.149 434.964 295.868 435.058 295.553L436.666 290.273C436.919 289.444 437.657 289.019 437.91 289.555Z" fill="#59C59A"/>
<path opacity="0.5" d="M437.91 289.555L439.519 292.974C439.538 293.023 439.568 293.067 439.605 293.105C439.643 293.142 439.688 293.171 439.737 293.19C439.787 293.209 439.84 293.217 439.892 293.215C439.945 293.213 439.997 293.199 440.045 293.176L443.635 291.801C444.212 291.578 444.434 292.387 444.02 293.156L441.42 298.042C441.264 298.329 441.194 298.656 441.218 298.982L441.835 303.402C441.936 304.1 441.339 305.021 440.823 304.96L437.607 304.566C437.476 304.568 437.348 304.603 437.235 304.669C437.121 304.734 437.027 304.828 436.959 304.94L433.743 309.047C433.237 309.704 432.64 309.472 432.731 308.652L433.348 303.524C433.381 303.399 433.379 303.267 433.343 303.142C433.308 303.018 433.24 302.905 433.146 302.816L430.546 300.934C430.132 300.641 430.364 299.569 430.931 299.134L434.532 296.362C434.781 296.149 434.964 295.868 435.058 295.553L436.666 290.273C436.919 289.444 437.657 289.019 437.91 289.555Z" fill="white"/>
<path d="M462.075 282.748C462.389 282.161 462.338 281.564 462.075 281.392L459.496 279.905C459.44 279.88 459.38 279.867 459.319 279.867C459.258 279.867 459.197 279.88 459.142 279.905L456.775 280.816L455.996 279.157C455.955 279.077 455.896 279.008 455.824 278.954C455.49 278.782 453.306 277.508 453.245 277.467C452.911 277.285 452.375 277.69 452.163 278.388L450.554 283.658C450.467 283.975 450.283 284.258 450.028 284.467L446.387 287.228C445.81 287.674 445.588 288.736 446.002 289.039L448.602 290.92C448.694 291.009 448.761 291.12 448.796 291.242C448.832 291.365 448.835 291.495 448.804 291.618L448.208 296.716C448.208 297.091 448.268 297.344 448.44 297.445L451.02 298.942C451.222 299.053 451.525 298.942 451.798 298.608L455.015 294.501C455.082 294.389 455.177 294.296 455.29 294.23C455.403 294.165 455.532 294.129 455.662 294.127L458.879 294.521C459.385 294.582 459.982 293.662 459.89 292.964L459.273 288.543C459.245 288.217 459.315 287.889 459.476 287.603L462.075 282.748Z" fill="#59C59A"/>
<path opacity="0.15" d="M462.045 281.392C461.99 281.365 461.929 281.35 461.868 281.35C461.806 281.35 461.746 281.365 461.691 281.392L458.09 282.768C458.043 282.791 457.992 282.804 457.94 282.806C457.888 282.809 457.836 282.8 457.787 282.781C457.739 282.762 457.695 282.733 457.658 282.696C457.621 282.659 457.593 282.614 457.574 282.565L456.745 280.805L459.112 279.895C459.166 279.867 459.227 279.852 459.289 279.852C459.35 279.852 459.411 279.867 459.466 279.895L462.045 281.392Z" fill="white"/>
<path opacity="0.15" d="M453.113 285.135C453.018 285.454 452.832 285.739 452.577 285.954L448.986 288.726C448.824 288.857 448.693 289.023 448.602 289.211L446.022 287.714C446.115 287.527 446.246 287.362 446.407 287.228L449.998 284.457C450.252 284.248 450.436 283.965 450.524 283.648V283.648L453.113 285.135Z" fill="white"/>
<path opacity="0.1" d="M455.814 278.954C455.49 278.752 454.934 279.167 454.722 279.865L453.113 285.135L450.524 283.648L452.132 278.378C452.345 277.69 452.891 277.275 453.215 277.457C453.285 277.457 455.46 278.772 455.794 278.944L455.814 278.954Z" fill="black"/>
<path opacity="0.25" d="M451.201 292.407L448.642 290.941L446.043 289.059C445.739 288.837 445.78 288.23 446.043 287.734L448.622 289.231C448.359 289.717 448.319 290.334 448.622 290.546L451.201 292.407Z" fill="black"/>
<path opacity="0.15" d="M450.787 298.244C450.787 298.628 450.848 298.881 451.04 298.972L448.41 297.475C448.238 297.374 448.137 297.131 448.177 296.747L448.794 291.618C448.819 291.499 448.816 291.376 448.784 291.258C448.752 291.14 448.694 291.032 448.612 290.941L451.171 292.407C451.252 292.499 451.309 292.608 451.339 292.726C451.369 292.843 451.37 292.967 451.343 293.085L450.787 298.244Z" fill="black"/>
<path d="M455.966 279.147L457.574 282.565C457.594 282.615 457.623 282.659 457.661 282.696C457.699 282.733 457.744 282.762 457.793 282.781C457.842 282.8 457.895 282.809 457.948 282.807C458.001 282.804 458.053 282.791 458.1 282.768L461.691 281.392C462.257 281.17 462.49 281.979 462.075 282.748L459.476 287.613C459.315 287.899 459.245 288.227 459.273 288.554L459.891 292.974C459.982 293.672 459.385 294.592 458.879 294.532L455.662 294.137C455.532 294.139 455.403 294.175 455.29 294.24C455.177 294.306 455.082 294.399 455.015 294.511L451.798 298.618C451.293 299.276 450.696 299.033 450.787 298.224L451.404 293.095C451.433 292.97 451.43 292.839 451.394 292.715C451.359 292.591 451.293 292.478 451.202 292.387L448.602 290.506C448.187 290.212 448.42 289.14 448.986 288.705L452.587 285.934C452.831 285.717 453.01 285.437 453.103 285.125L454.712 279.844C454.975 279.035 455.713 278.6 455.966 279.147Z" fill="#59C59A"/>
<path opacity="0.5" d="M455.966 279.147L457.574 282.565C457.594 282.615 457.623 282.659 457.661 282.696C457.699 282.733 457.744 282.762 457.793 282.781C457.842 282.8 457.895 282.809 457.948 282.807C458.001 282.804 458.053 282.791 458.1 282.768L461.691 281.392C462.257 281.17 462.49 281.979 462.075 282.748L459.476 287.613C459.315 287.899 459.245 288.227 459.273 288.554L459.891 292.974C459.982 293.672 459.385 294.592 458.879 294.532L455.662 294.137C455.532 294.139 455.403 294.175 455.29 294.24C455.177 294.306 455.082 294.399 455.015 294.511L451.798 298.618C451.293 299.276 450.696 299.033 450.787 298.224L451.404 293.095C451.433 292.97 451.43 292.839 451.394 292.715C451.359 292.591 451.293 292.478 451.202 292.387L448.602 290.506C448.187 290.212 448.42 289.14 448.986 288.705L452.587 285.934C452.831 285.717 453.01 285.437 453.103 285.125L454.712 279.844C454.975 279.035 455.713 278.6 455.966 279.147Z" fill="white"/>
<path d="M468.964 32.7131L460.871 36.1826L459.142 44.8107C459.092 45.0478 458.978 45.2664 458.811 45.4421C458.645 45.6177 458.432 45.7436 458.198 45.8055C457.964 45.8675 457.717 45.863 457.486 45.7928C457.254 45.7225 457.046 45.5891 456.886 45.4075L451.09 38.7821L442.341 39.7936C442.09 39.8316 441.834 39.7952 441.604 39.6889C441.374 39.5826 441.18 39.4111 441.046 39.1957C440.913 38.9804 440.845 38.7305 440.853 38.4772C440.86 38.2239 440.941 37.9782 441.086 37.7706L445.588 30.2147L441.926 22.2136C441.837 21.9988 441.807 21.7639 441.84 21.5337C441.873 21.3035 441.968 21.0864 442.114 20.9053C442.26 20.7242 442.452 20.5857 442.67 20.5044C442.887 20.4232 443.123 20.4021 443.352 20.4435L451.93 22.3957L458.403 16.4379C458.581 16.2717 458.802 16.1589 459.041 16.1126C459.28 16.0662 459.527 16.0881 459.754 16.1757C459.981 16.2634 460.179 16.4132 460.325 16.6081C460.47 16.8029 460.558 17.035 460.578 17.2775L461.377 26.0371L469.044 30.3462C469.27 30.4554 469.46 30.6279 469.589 30.8427C469.719 31.0574 469.783 31.3052 469.775 31.556C469.766 31.8067 469.685 32.0495 469.541 32.255C469.397 32.4604 469.196 32.6195 468.964 32.7131V32.7131Z" fill="#E0E0E0"/>
<path d="M424.366 17.7226C424.295 17.8159 424.209 17.8978 424.113 17.9653C423.942 18.0888 423.739 18.1619 423.528 18.1762C423.317 18.1905 423.106 18.1455 422.92 18.0462L418.418 15.6793L413.907 18.0462C413.72 18.1455 413.51 18.1905 413.299 18.1762C413.088 18.1619 412.885 18.0888 412.714 17.9653C412.54 17.8425 412.406 17.6721 412.327 17.4747C412.248 17.2773 412.227 17.0613 412.268 16.8527L413.128 11.7951L409.477 8.24473C409.325 8.09731 409.217 7.90985 409.167 7.70401C409.117 7.49818 409.126 7.28236 409.194 7.0815C409.257 6.88024 409.376 6.70111 409.537 6.565C409.698 6.42889 409.895 6.3414 410.104 6.31275L415.161 5.58447L417.417 1.01246C417.51 0.823637 417.654 0.664723 417.833 0.553839C418.012 0.442954 418.218 0.384563 418.429 0.385322C418.638 0.386879 418.844 0.446226 419.022 0.556852C419.201 0.667479 419.345 0.82511 419.44 1.01246L421.696 5.58447L426.753 6.31275C426.962 6.34332 427.159 6.43173 427.32 6.56801C427.482 6.70428 427.602 6.88299 427.667 7.08395C427.732 7.2849 427.74 7.5001 427.689 7.70522C427.639 7.91034 427.532 8.09721 427.38 8.24473L423.729 11.7951L424.599 16.8527C424.638 17.1619 424.554 17.4741 424.366 17.7226V17.7226ZM409.972 7.213L409.912 7.34449C409.887 7.42002 409.884 7.5012 409.903 7.57832C409.923 7.65545 409.965 7.72527 410.023 7.77944L413.927 11.5928L413.007 16.974C412.994 17.0532 413.004 17.1344 413.035 17.2084C413.066 17.2825 413.116 17.3466 413.181 17.3937C413.246 17.4408 413.323 17.469 413.403 17.4753C413.482 17.4816 413.563 17.4656 413.634 17.4292L418.469 14.8903L423.294 17.4292C423.363 17.4692 423.442 17.4902 423.521 17.4902C423.601 17.4902 423.68 17.4692 423.749 17.4292C423.816 17.3831 423.868 17.3183 423.899 17.2427C423.93 17.1672 423.937 17.0843 423.921 17.0044L423.001 11.6232L426.905 7.80978C426.961 7.75426 427.001 7.68442 427.021 7.60778C427.041 7.53114 427.039 7.4506 427.016 7.37484C426.993 7.29792 426.949 7.22926 426.888 7.17719C426.827 7.12513 426.752 7.09189 426.672 7.0815L421.261 6.29252L418.793 1.35637C418.759 1.28287 418.705 1.22075 418.637 1.17763C418.568 1.1345 418.489 1.11225 418.408 1.11361C418.335 1.12166 418.265 1.14815 418.205 1.19061C418.145 1.23307 418.097 1.2901 418.064 1.35637L415.657 6.25206L410.245 7.04104C410.136 7.06308 410.039 7.12424 409.972 7.213V7.213Z" fill="#E0E0E0"/>
<path d="M368.035 85.3115C360.418 80.9013 349.949 81.4981 338.378 88.174C315.113 101.627 296.208 134.572 296.208 161.771C296.208 175.457 301.003 185.036 308.72 189.517C310.511 190.528 317.51 194.574 317.51 194.574C317.182 197.653 316.119 200.607 314.41 203.188C312.7 205.769 310.395 207.9 307.689 209.403C307.244 209.656 307.517 210.091 307.911 210.314L318.603 216.494C318.747 216.58 318.91 216.628 319.078 216.635C329.608 216.635 341.797 209.555 345.195 194.848C346.47 194.241 347.754 193.583 349.059 192.825C372.324 179.382 391.229 146.427 391.229 119.237C391.229 105.542 386.445 95.9727 378.727 91.4614L368.035 85.3115Z" fill="#37474F"/>
<path d="M349.059 94.3442C325.795 107.787 306.89 140.742 306.89 167.931C306.89 186.391 315.578 197.437 328.445 198.449C327.959 204.315 326.25 210.91 318.33 215.573C317.703 215.948 318.522 216.646 319.048 216.646C329.578 216.646 341.766 209.565 345.165 194.858C346.44 194.251 347.724 193.593 349.029 192.835C372.294 179.392 391.199 146.437 391.199 119.248C391.199 92.0582 372.344 80.9013 349.059 94.3442Z" fill="#455A64"/>
<path d="M318.36 215.573C317.976 215.816 318.148 216.17 318.471 216.413L307.911 210.344C307.517 210.101 307.244 209.686 307.689 209.423C310.401 207.917 312.71 205.779 314.42 203.191C316.129 200.602 317.19 197.64 317.511 194.554L318.674 195.242L319.746 195.869C322.425 197.342 325.394 198.212 328.445 198.418C327.97 204.315 326.25 210.91 318.36 215.573Z" fill="#263238"/>
<path d="M344.609 172.19C343.486 171.391 342.919 169.954 342.919 167.881C342.944 165.72 343.515 163.601 344.578 161.721C345.544 159.841 347.016 158.268 348.827 157.179C350.546 156.188 351.959 156.07 353.065 156.825C354.167 157.574 354.724 158.99 354.724 161.063C354.691 163.262 354.11 165.417 353.035 167.335C352.092 169.233 350.634 170.828 348.827 171.937C347.148 172.898 345.742 172.989 344.609 172.19ZM343.102 117.204L354.542 110.599L352.63 149.158L345.013 153.558L343.102 117.204Z" fill="#FAFAFA"/>
<path opacity="0.2" d="M354.683 189.143C367.104 180.039 377.816 165.605 384.371 150.109C371.95 159.222 361.238 173.646 354.683 189.143Z" fill="black"/>
<path d="M434.107 241.842C429.798 241.893 426.591 238.879 424.578 235.085C437.485 219.215 446.214 198.074 446.214 179.584C446.214 165.878 441.41 156.248 433.672 151.798L423 145.648C415.384 141.248 404.925 141.855 393.363 148.521C370.098 161.974 351.193 194.918 351.193 222.118C351.193 235.804 355.978 245.383 363.696 249.884C365.496 250.895 372.587 255.002 374.337 256.024C381.963 260.464 392.453 259.877 404.045 253.181C407.149 251.375 410.096 249.311 412.855 247.011C420.684 253.212 430.233 246.455 434.016 243.218C434.521 242.793 434.582 241.842 434.107 241.842Z" fill="#E0E0E0"/>
<path d="M385.382 258.279C371.282 258.279 362.532 246.799 362.532 228.328C362.532 201.382 381.306 168.65 404.368 155.308C410.822 151.585 416.992 149.694 422.707 149.694C436.797 149.694 445.557 161.164 445.557 179.645C445.557 197.316 437.323 218.426 424.072 234.721L423.799 235.065L424.002 235.449C426.379 239.93 429.828 242.439 433.732 242.53C433.705 242.615 433.656 242.692 433.591 242.753C430.9 245.059 425.559 248.913 420.026 248.913C417.562 248.924 415.171 248.08 413.259 246.525L412.845 246.202L412.43 246.536C409.696 248.796 406.78 250.826 403.711 252.605C397.267 256.337 391.097 258.279 385.382 258.279Z" fill="#FAFAFA"/>
<path d="M422.707 149.036V150.351C436.393 150.351 444.899 161.579 444.899 179.635C444.899 197.174 436.726 218.122 423.567 234.306L423.01 234.984L423.425 235.753C425.61 239.88 428.685 242.419 432.215 243.056C429.413 245.291 424.77 248.275 420.026 248.275C417.71 248.286 415.461 247.493 413.664 246.03L412.835 245.372L412.015 246.05C409.311 248.307 406.425 250.337 403.387 252.119C397.035 255.781 390.976 257.642 385.382 257.642C371.697 257.642 363.19 246.414 363.19 228.308C363.19 201.574 381.812 169.074 404.662 155.854C411.014 152.192 417.073 150.331 422.667 150.331V149.036H422.707ZM422.667 149.036C417.043 149.036 410.711 150.867 404.004 154.741C380.74 168.184 361.834 201.129 361.834 228.328C361.834 247.699 371.413 258.937 385.342 258.937C390.966 258.937 397.298 257.106 404.004 253.232C407.108 251.425 410.055 249.361 412.814 247.062C414.838 248.714 417.374 249.608 419.986 249.59C425.772 249.59 431.305 245.544 433.975 243.268C434.481 242.844 434.542 241.893 434.066 241.893H433.965C429.717 241.893 426.541 238.909 424.538 235.136C437.445 219.265 446.174 198.125 446.174 179.635C446.174 160.264 436.595 149.036 422.667 149.036V149.036Z" fill="#59C59A"/>
<path d="M401.88 208.564C403.107 205.62 404.516 202.755 406.098 199.986C407.188 198.086 408.18 196.131 409.072 194.129C409.685 192.757 410.012 191.273 410.033 189.77C410.033 187.747 409.426 186.503 408.212 186.017C406.998 185.532 405.4 185.886 403.387 187.029C401.397 188.196 399.655 189.743 398.259 191.58C396.7 193.616 395.427 195.855 394.476 198.236L387.041 196.709C388.704 192.316 391.06 188.218 394.02 184.571C396.917 180.991 400.449 177.977 404.439 175.68C409.159 172.982 412.939 172.139 415.778 173.151C418.617 174.162 420.04 177.055 420.046 181.829C420.06 183.985 419.781 186.132 419.217 188.212C418.718 190.096 418.041 191.929 417.194 193.684C416.395 195.323 415.353 197.275 414.089 199.541C412.863 201.632 411.755 203.79 410.771 206.005C410.093 207.604 409.748 209.325 409.759 211.062L400.484 216.423C400.447 213.738 400.92 211.071 401.88 208.564V208.564ZM400.868 234.59C399.746 233.791 399.179 232.354 399.179 230.271C399.204 228.11 399.774 225.991 400.838 224.11C401.803 222.234 403.271 220.662 405.076 219.569C406.806 218.557 408.212 218.456 409.325 219.215C410.437 219.973 410.983 221.39 410.983 223.463C410.949 225.658 410.369 227.81 409.294 229.724C408.351 231.626 406.889 233.222 405.076 234.327C403.448 235.298 402.052 235.379 400.919 234.59H400.868Z" fill="#455A64"/>
<path d="M188.23 162.489L141.7 189.436L160.18 220.853C160.537 221.701 161.158 222.411 161.951 222.876C164.156 224.121 177.214 231.687 177.932 232.101C178.492 232.425 179.118 232.617 179.763 232.663C180.408 232.71 181.055 232.61 181.656 232.37C182.257 232.131 182.795 231.758 183.231 231.281C183.667 230.803 183.989 230.233 184.173 229.613L204.242 171.775L188.23 162.489Z" fill="#59C59A"/>
<path opacity="0.2" d="M188.23 162.489L141.7 189.436L160.18 220.853C160.537 221.701 161.158 222.411 161.951 222.876C164.156 224.121 177.214 231.687 177.932 232.101C178.492 232.425 179.118 232.617 179.763 232.663C180.408 232.71 181.055 232.61 181.656 232.37C182.257 232.131 182.795 231.758 183.231 231.281C183.667 230.803 183.989 230.233 184.173 229.613L204.242 171.775L188.23 162.489Z" fill="black"/>
<path d="M157.712 198.681L176.193 230.099C176.546 230.897 177.136 231.567 177.882 232.019C178.629 232.47 179.496 232.682 180.367 232.624C181.238 232.567 182.07 232.244 182.751 231.698C183.431 231.152 183.928 230.41 184.173 229.573L204.242 171.735L157.712 198.681Z" fill="#59C59A"/>
<path d="M240.14 1.35637L64.674 102.639C63.4976 103.401 62.518 104.431 61.8149 105.644C61.1118 106.856 60.7051 108.218 60.6279 109.618V231.393C60.7025 232.788 61.1084 234.145 61.812 235.352C62.5156 236.559 63.4967 237.58 64.674 238.332L79.1082 246.424C80.3634 247.056 81.749 247.385 83.1542 247.385C84.5593 247.385 85.945 247.056 87.2002 246.424L262.676 145.081C263.851 144.317 264.83 143.287 265.532 142.075C266.235 140.862 266.643 139.501 266.723 138.102V16.3267C266.647 14.932 266.241 13.5752 265.537 12.3686C264.834 11.1621 263.853 10.1403 262.676 9.38773L248.252 1.29568C246.989 0.671789 245.598 0.352323 244.189 0.362862C242.78 0.373401 241.394 0.713651 240.14 1.35637V1.35637Z" fill="#59C59A"/>
<path opacity="0.3" d="M266.652 15.5883C266.328 13.5653 264.679 12.837 262.666 13.9901L87.2103 115.303C86.0147 116.049 85.0349 117.095 84.3679 118.337L61.9023 105.542C62.5766 104.374 63.5286 103.391 64.6739 102.679L240.15 1.35638C241.406 0.727162 242.791 0.399536 244.196 0.399536C245.601 0.399536 246.986 0.727162 248.242 1.35638L262.666 9.44844C263.728 10.1304 264.633 11.0306 265.32 12.0892C266.007 13.1478 266.461 14.3406 266.652 15.5883V15.5883Z" fill="white"/>
<path d="M83.1743 244.523V122.737C83.2514 121.339 83.6582 119.978 84.3614 118.767C85.0645 117.556 86.0442 116.528 87.2203 115.768L262.676 14.5059C264.892 13.2213 266.722 14.2632 266.722 16.8324V138.567C266.643 139.967 266.235 141.327 265.532 142.54C264.829 143.752 263.851 144.782 262.676 145.547L87.2001 246.849C84.9748 248.164 83.1743 247.092 83.1743 244.523Z" fill="#59C59A"/>
<path opacity="0.2" d="M87.2004 246.384C85.9405 247 84.5566 247.32 83.1543 247.32C81.752 247.32 80.3682 247 79.1083 246.384L64.6842 238.292C63.5079 237.544 62.5272 236.526 61.8235 235.322C61.1198 234.119 60.7134 232.765 60.6382 231.373V109.588C60.71 108.151 61.1526 106.757 61.9228 105.542L84.3681 118.317C83.6283 119.507 83.2165 120.871 83.1746 122.272V244.047C83.1746 246.404 84.8334 247.759 87.2004 246.384Z" fill="black"/>
<path d="M132.405 147.013L130.655 146.002C129.985 145.619 129.227 145.417 128.455 145.417C127.683 145.417 126.925 145.619 126.255 146.002L115.563 152.172V137.566L135.358 126.146C136.285 125.599 137.053 124.82 137.585 123.884C138.117 122.949 138.396 121.891 138.393 120.815V112.622C138.396 111.546 138.117 110.488 137.585 109.553C137.053 108.618 136.285 107.838 135.358 107.292C134.422 106.75 133.36 106.465 132.278 106.465C131.197 106.465 130.135 106.75 129.198 107.292L101.746 123.142C100.121 124.079 98.7715 125.428 97.8338 127.053C96.8962 128.678 96.4035 130.521 96.4053 132.397V208.452C96.4007 209.53 96.6784 210.59 97.2108 211.527C97.7431 212.464 98.5117 213.245 99.4399 213.793V213.793C100.377 214.333 101.439 214.617 102.52 214.617C103.601 214.617 104.663 214.333 105.6 213.793L112.448 209.848C113.376 209.301 114.145 208.519 114.677 207.582C115.209 206.645 115.487 205.585 115.482 204.507V174.668L132.334 164.937C133.002 164.549 133.556 163.993 133.941 163.324C134.326 162.655 134.529 161.896 134.529 161.124V150.847C134.543 150.078 134.354 149.318 133.981 148.645C133.608 147.972 133.064 147.41 132.405 147.013V147.013Z" fill="#E0E0E0"/>
<path opacity="0.1" d="M106.227 213.429L105.64 213.773C104.703 214.311 103.642 214.594 102.561 214.594C101.481 214.593 100.419 214.309 99.4832 213.769C98.5471 213.229 97.7692 212.453 97.2272 211.518C96.6853 210.583 96.3983 209.523 96.395 208.442V132.387C96.3977 130.621 96.8391 128.883 97.6796 127.329L103.84 130.88C102.996 132.432 102.554 134.171 102.555 135.937V211.285C102.557 211.714 102.671 212.136 102.885 212.507C103.1 212.879 103.408 213.189 103.778 213.406C104.149 213.622 104.57 213.738 105 213.742C105.429 213.746 105.852 213.638 106.227 213.429V213.429Z" fill="black"/>
<path d="M115.563 137.566V159.293L132.384 149.593C132.609 149.46 132.866 149.39 133.127 149.389C133.388 149.388 133.645 149.456 133.871 149.587C134.097 149.717 134.285 149.906 134.415 150.132C134.544 150.359 134.612 150.616 134.61 150.877V161.174C134.609 161.943 134.407 162.697 134.024 163.363C133.64 164.028 133.089 164.582 132.425 164.968L115.563 174.698V204.528C115.567 205.603 115.289 206.66 114.756 207.593C114.224 208.527 113.456 209.305 112.528 209.848L106.297 213.449C105.923 213.666 105.498 213.781 105.066 213.781C104.633 213.782 104.208 213.668 103.833 213.451C103.459 213.235 103.148 212.923 102.932 212.548C102.717 212.173 102.604 211.748 102.605 211.315V135.937C102.606 134.062 103.099 132.219 104.037 130.595C104.974 128.97 106.322 127.621 107.946 126.682L135.136 110.984C135.474 110.788 135.858 110.685 136.249 110.685C136.64 110.686 137.025 110.789 137.363 110.985C137.701 111.181 137.982 111.462 138.177 111.801C138.372 112.14 138.474 112.524 138.474 112.915V120.836C138.476 121.907 138.197 122.961 137.665 123.891C137.132 124.822 136.365 125.596 135.439 126.136L115.563 137.566Z" fill="#FAFAFA"/>
<path d="M174.291 91.6232C173.979 90.5672 173.432 89.5957 172.691 88.7816C171.95 87.9675 171.033 87.3322 170.011 86.9232C168.989 86.5143 167.887 86.3425 166.789 86.4208C165.691 86.499 164.624 86.8252 163.67 87.3749L156.863 91.3097C155.986 91.815 155.224 92.4981 154.627 93.315C154.029 94.132 153.609 95.0648 153.393 96.0536L133.092 188.485C132.933 189.264 133.023 190.073 133.347 190.799C133.672 191.525 134.216 192.131 134.903 192.531L136.764 193.603C137.341 193.936 137.995 194.112 138.661 194.112C139.327 194.112 139.981 193.936 140.557 193.603L148.761 188.87C149.902 188.17 150.832 187.174 151.451 185.987C152.143 184.788 152.651 183.492 152.958 182.143L156.256 165.291L172.845 155.712L174.564 162.56C174.808 163.453 175.364 164.229 176.132 164.745C176.82 165.15 181.604 167.891 182.292 168.306C182.736 168.496 183.224 168.562 183.703 168.498C184.182 168.434 184.635 168.242 185.013 167.941L195.027 162.156L174.291 91.6232ZM160.808 142.027L164.358 123.749L164.571 122.737L168.333 137.677L160.808 142.027Z" fill="#E0E0E0"/>
<path opacity="0.1" d="M182.211 168.255C181.311 167.719 176.8 165.14 176.142 164.745C175.374 164.229 174.818 163.453 174.575 162.56L172.855 155.712L177.447 153.062L180.735 166.111C180.977 166.969 181.496 167.722 182.211 168.255Z" fill="black"/>
<path opacity="0.1" d="M174.494 141.228L168.334 137.667L164.571 122.737C164.571 122.737 164.571 122.737 164.571 122.677C164.894 121.22 165.218 119.561 165.582 117.72C166.017 115.424 166.422 112.976 166.806 110.356C167.245 112.46 167.679 114.399 168.111 116.173C168.546 117.943 168.951 119.46 169.335 120.734L174.494 141.228Z" fill="black"/>
<path opacity="0.1" d="M139.364 191.52C139.309 191.762 139.318 192.015 139.39 192.253C139.463 192.492 139.595 192.707 139.776 192.878C139.956 193.05 140.178 193.171 140.42 193.231C140.662 193.291 140.915 193.286 141.154 193.219V193.3L140.578 193.624C140.001 193.957 139.347 194.132 138.681 194.132C138.015 194.132 137.361 193.957 136.784 193.624L134.903 192.531C134.216 192.131 133.672 191.525 133.347 190.799C133.023 190.073 132.933 189.264 133.092 188.485L153.383 96.0941C153.569 95.2394 153.912 94.4266 154.395 93.6968L160.555 97.2573C160.067 97.9803 159.723 98.7909 159.543 99.6445L139.364 191.52Z" fill="black"/>
<path d="M195.037 162.186L185.013 167.972C183.89 168.619 182.99 168.741 182.302 168.336C181.536 167.818 180.979 167.043 180.734 166.151L177.447 153.082L156.205 165.312L152.918 182.163C152.601 183.514 152.09 184.812 151.401 186.017C150.785 187.204 149.854 188.198 148.71 188.89L141.458 193.088C141.214 193.226 140.935 193.291 140.655 193.275C140.375 193.259 140.105 193.162 139.879 192.997C139.652 192.831 139.478 192.604 139.378 192.342C139.278 192.08 139.255 191.794 139.313 191.52L159.493 99.6142C159.71 98.6271 160.131 97.6963 160.728 96.8812C161.325 96.066 162.086 95.3845 162.962 94.8803L169.507 91.0973C169.972 90.8291 170.492 90.67 171.028 90.6318C171.563 90.5937 172.101 90.6777 172.599 90.8773C173.098 91.0769 173.545 91.387 173.906 91.7843C174.267 92.1816 174.534 92.6557 174.686 93.1709L195.037 162.186ZM174.493 141.248L169.335 120.714C168.95 119.45 168.546 117.922 168.111 116.152C167.676 114.382 167.241 112.44 166.806 110.336C166.432 112.956 166.017 115.394 165.592 117.7C165.167 120.006 164.743 121.989 164.358 123.708L159.24 150.007L174.493 141.248Z" fill="#FAFAFA"/>
<path d="M242.983 126.783C244.749 123.746 246.301 120.59 247.626 117.336C248.994 113.981 250.143 110.542 251.065 107.039C251.995 103.499 252.704 99.9042 253.189 96.2762C253.685 92.6118 253.935 88.9183 253.937 85.2204C254.045 79.7837 253.35 74.3609 251.874 69.1273C250.821 65.1944 248.805 61.5858 246.007 58.6279C245.126 57.7838 244.14 57.0564 243.074 56.4633L237.005 52.9432C235.083 51.8294 232.922 51.1945 230.703 51.0922C227.143 50.8899 223.198 52.0396 218.868 54.5414C214.338 57.202 210.322 60.6556 207.014 64.7374C203.365 69.1665 200.292 74.0403 197.87 79.2424C192.656 90.4619 189.937 102.678 189.899 115.05C189.794 120.494 190.496 125.924 191.983 131.163C193.032 135.108 195.056 138.725 197.87 141.683C198.747 142.553 199.737 143.301 200.813 143.908C201.825 144.474 205.82 146.801 206.811 147.378C208.757 148.503 210.948 149.139 213.194 149.229C216.754 149.404 220.706 148.241 225.049 145.739C226.896 144.672 228.652 143.454 230.298 142.097L232.807 144.98C233.149 145.331 233.537 145.634 233.96 145.881C234.668 146.295 239.706 149.188 240.09 149.421C240.765 149.836 241.555 150.027 242.346 149.967C243.81 149.792 245.217 149.291 246.462 148.5L257.093 142.371L242.983 126.783ZM233.495 101.394C232.851 104.963 231.816 108.45 230.41 111.793C229.177 114.755 227.525 117.524 225.504 120.016C223.658 122.29 221.417 124.213 218.889 125.691C217.036 126.891 214.902 127.588 212.698 127.714C211.59 125.917 210.799 123.943 210.362 121.877C209.584 118.303 209.224 114.651 209.289 110.994C209.27 106.943 209.629 102.9 210.362 98.9162C210.99 95.3495 212.007 91.8625 213.396 88.5179C214.641 85.5428 216.303 82.7602 218.332 80.2539C220.19 77.9493 222.453 76.0024 225.008 74.5086C226.828 73.3449 228.92 72.6755 231.077 72.5665C232.198 74.3786 232.999 76.3699 233.444 78.4534C234.238 82.0327 234.614 85.6917 234.567 89.3575C234.579 93.4076 234.22 97.4503 233.495 101.435V101.394Z" fill="#E0E0E0"/>
<path opacity="0.1" d="M206.558 147.266C205.274 146.528 201.744 144.475 200.813 143.949C199.737 143.341 198.747 142.593 197.87 141.723C195.056 138.766 193.032 135.148 191.983 131.204C190.496 125.965 189.794 120.535 189.899 115.09C189.899 108.862 190.598 102.652 191.983 96.5796C193.217 91.0492 195.006 85.6575 197.323 80.4866L203.483 84.0471C198.618 94.9505 196.089 106.752 196.059 118.691C195.953 124.132 196.656 129.559 198.143 134.794C199.19 138.743 201.215 142.364 204.03 145.324C204.799 146.062 205.647 146.714 206.558 147.266V147.266Z" fill="black"/>
<path opacity="0.1" d="M236.57 75.1964C235.975 74.4506 235.232 73.8363 234.387 73.3923C233.543 72.9484 232.616 72.6844 231.664 72.617C231.492 72.617 231.31 72.617 231.138 72.617C232.254 74.427 233.051 76.4147 233.495 78.4939C234.268 82.0619 234.628 85.7071 234.567 89.3575C234.583 93.4278 234.224 97.491 233.495 101.496C232.851 105.064 231.816 108.551 230.41 111.894C229.177 114.856 227.525 117.625 225.504 120.117C223.658 122.392 221.417 124.314 218.889 125.792C217.036 126.992 214.902 127.69 212.698 127.815C212.919 128.17 213.166 128.508 213.437 128.826C214.03 129.578 214.778 130.194 215.629 130.631C216.481 131.069 217.416 131.32 218.373 131.365C220.747 131.353 223.067 130.651 225.049 129.342C227.577 127.864 229.818 125.942 231.664 123.668C233.681 121.173 235.332 118.404 236.57 115.444C237.977 112.099 239.012 108.608 239.655 105.036C240.385 101.031 240.743 96.9681 240.727 92.8978C240.786 89.2575 240.426 85.6226 239.655 82.0645C239.173 79.5669 238.117 77.2156 236.57 75.1964V75.1964Z" fill="black"/>
<path opacity="0.1" d="M232.048 140.621C231.472 141.147 230.895 141.632 230.298 142.138L232.807 145.021C233.149 145.372 233.537 145.674 233.96 145.921C234.648 146.326 239.392 149.047 240.029 149.431C239.637 149.19 239.277 148.902 238.957 148.571L232.048 140.621Z" fill="black"/>
<path d="M257.093 142.411L246.462 148.551C245.217 149.333 243.815 149.83 242.356 150.007C241.719 150.039 241.084 149.926 240.497 149.677C239.91 149.429 239.387 149.05 238.967 148.571L232.048 140.621C229.91 142.589 227.563 144.319 225.049 145.779C220.706 148.281 216.754 149.444 213.194 149.269C209.746 149.142 206.473 147.719 204.03 145.284C201.218 142.321 199.194 138.701 198.143 134.754C196.665 129.531 195.962 124.119 196.059 118.691C196.097 106.32 198.816 94.1033 204.03 82.8838C206.456 77.6701 209.536 72.7858 213.194 68.3485C216.505 64.269 220.52 60.8158 225.049 58.1525C229.378 55.6439 233.323 54.4942 236.883 54.7032C240.317 54.8672 243.565 56.3106 245.987 58.7493C248.79 61.707 250.807 65.3203 251.854 69.2588C253.338 74.4737 254.041 79.8802 253.937 85.3013C253.939 88.9989 253.692 92.6925 253.199 96.3571C252.705 100.002 251.989 103.613 251.055 107.17C250.129 110.67 248.977 114.106 247.605 117.457C246.285 120.713 244.733 123.87 242.963 126.905L257.093 142.411ZM209.29 111.054C209.224 114.715 209.584 118.371 210.362 121.948C210.838 124.432 211.876 126.775 213.396 128.796C213.994 129.543 214.742 130.156 215.593 130.593C216.444 131.031 217.377 131.284 218.332 131.335C220.707 131.322 223.026 130.619 225.008 129.312C227.537 127.834 229.778 125.912 231.624 123.637C233.643 121.143 235.299 118.374 236.54 115.414C237.93 112.066 238.947 108.576 239.574 105.005C240.309 101.002 240.668 96.938 240.646 92.8674C240.71 89.227 240.35 85.5915 239.574 82.0342C239.1 79.5494 238.062 77.2066 236.54 75.1862C235.943 74.4402 235.198 73.8258 234.352 73.3819C233.506 72.938 232.577 72.6741 231.624 72.6069C229.275 72.5876 226.974 73.2633 225.008 74.549C222.451 76.036 220.188 77.98 218.332 80.2842C216.307 82.793 214.645 85.5751 213.396 88.5483C212.012 91.8945 210.994 95.381 210.362 98.9466C209.631 102.927 209.272 106.967 209.29 111.014V111.054Z" fill="#FAFAFA"/>
</svg>
