<svg width="103" height="118" viewBox="0 0 103 118" fill="none" xmlns="http://www.w3.org/2000/svg">
<path d="M9.33355 86.855C8.05005 86.8545 6.79523 87.2347 5.72783 87.9474C4.66043 88.6602 3.8284 89.6735 3.337 90.8592C2.84559 92.0449 2.71689 93.3498 2.96716 94.6086C3.21744 95.8675 3.83545 97.0238 4.74303 97.9314C5.6506 98.839 6.80696 99.457 8.06582 99.7073C9.32469 99.9575 10.6295 99.8289 11.8152 99.3374C13.0009 98.846 14.0142 98.014 14.727 96.9466C15.4398 95.8792 15.8199 94.6244 15.8194 93.3409C15.8194 91.6207 15.1361 89.971 13.9198 88.7547C12.7034 87.5383 11.0537 86.855 9.33355 86.855ZM9.33355 95.6776C8.86939 95.6776 8.41566 95.54 8.02973 95.2821C7.64379 95.0242 7.343 94.6577 7.16537 94.2289C6.98775 93.8001 6.94127 93.3282 7.03182 92.873C7.12238 92.4177 7.34589 91.9996 7.6741 91.6714C8.00231 91.3431 8.42047 91.1196 8.87571 91.0291C9.33095 90.9385 9.80282 90.985 10.2316 91.1626C10.6605 91.3402 11.027 91.6411 11.2849 92.027C11.5427 92.4129 11.6804 92.8666 11.6804 93.3308C11.6817 93.6398 11.622 93.9461 11.5046 94.232C11.3873 94.5179 11.2146 94.7778 10.9966 94.9968C10.7785 95.2158 10.5194 95.3895 10.234 95.5081C9.94859 95.6267 9.64259 95.6877 9.33355 95.6877V95.6776Z" fill="#263238"/>
<path d="M9.33355 76.6409C8.54184 76.6409 7.76791 76.8757 7.10963 77.3155C6.45134 77.7554 5.93827 78.3806 5.6353 79.112C5.33233 79.8434 5.25305 80.6483 5.40751 81.4248C5.56196 82.2013 5.94321 82.9146 6.50303 83.4744C7.06286 84.0342 7.77611 84.4155 8.55261 84.5699C9.32911 84.7244 10.134 84.6451 10.8654 84.3421C11.5969 84.0391 12.222 83.5261 12.6619 82.8678C13.1017 82.2095 13.3365 81.4356 13.3365 80.6439C13.3365 79.5822 12.9148 78.5641 12.1641 77.8134C11.4134 77.0627 10.3952 76.6409 9.33355 76.6409V76.6409ZM9.33355 82.0908C9.04738 82.0908 8.76763 82.0059 8.52969 81.8469C8.29174 81.6879 8.10629 81.462 7.99678 81.1976C7.88726 80.9332 7.85861 80.6423 7.91444 80.3616C7.97027 80.0809 8.10807 79.8231 8.31043 79.6207C8.51278 79.4184 8.7706 79.2806 9.05127 79.2248C9.33194 79.1689 9.62287 79.1976 9.88726 79.3071C10.1516 79.4166 10.3776 79.6021 10.5366 79.84C10.6956 80.078 10.7805 80.3577 10.7805 80.6439C10.7805 81.0276 10.628 81.3956 10.3567 81.667C10.0853 81.9383 9.71729 82.0908 9.33355 82.0908Z" fill="#263238"/>
<path d="M16.674 74.589H1.99312C1.4446 74.589 0.999939 75.0337 0.999939 75.5822V100.722C0.999939 101.27 1.4446 101.715 1.99312 101.715H16.674C17.2225 101.715 17.6672 101.27 17.6672 100.722V75.5822C17.6672 75.0337 17.2225 74.589 16.674 74.589Z" stroke="#263238" stroke-miterlimit="10"/>
<path d="M88.4751 86.855C87.1917 86.855 85.9371 87.2356 84.8701 87.9487C83.803 88.6617 82.9714 89.6752 82.4804 90.861C81.9893 92.0467 81.861 93.3515 82.1116 94.6102C82.3621 95.8689 82.9803 97.025 83.888 97.9323C84.7957 98.8396 85.952 99.4574 87.2108 99.7075C88.4696 99.9575 89.7743 99.8287 90.9599 99.3372C92.1454 98.8457 93.1586 98.0137 93.8713 96.9463C94.5839 95.879 94.964 94.6243 94.9635 93.3409C94.9635 92.4889 94.7957 91.6453 94.4696 90.8583C94.1435 90.0712 93.6655 89.3561 93.063 88.7538C92.4604 88.1515 91.7451 87.6738 90.9579 87.348C90.1707 87.0222 89.3271 86.8547 88.4751 86.855V86.855ZM88.4751 95.6776C88.011 95.6776 87.5572 95.54 87.1713 95.2821C86.7854 95.0242 86.4846 94.6577 86.3069 94.2289C86.1293 93.8001 86.0828 93.3282 86.1734 92.873C86.2639 92.4177 86.4875 91.9996 86.8157 91.6714C87.1439 91.3431 87.562 91.1196 88.0173 91.0291C88.4725 90.9385 88.9444 90.985 89.3732 91.1626C89.802 91.3402 90.1686 91.6411 90.4264 92.027C90.6843 92.4129 90.8219 92.8666 90.8219 93.3308C90.8236 93.6399 90.7641 93.9463 90.6469 94.2324C90.5296 94.5184 90.357 94.7785 90.1389 94.9975C89.9208 95.2166 89.6615 95.3903 89.3759 95.5088C89.0904 95.6272 88.7842 95.688 88.4751 95.6877V95.6776Z" fill="#263238"/>
<path d="M88.4751 76.6409C87.6834 76.6409 86.9095 76.8757 86.2512 77.3155C85.5929 77.7554 85.0798 78.3806 84.7768 79.112C84.4739 79.8434 84.3946 80.6483 84.5491 81.4248C84.7035 82.2013 85.0848 82.9146 85.6446 83.4744C86.2044 84.0342 86.9177 84.4155 87.6942 84.5699C88.4707 84.7244 89.2755 84.6451 90.007 84.3421C90.7384 84.0391 91.3636 83.5261 91.8034 82.8678C92.2433 82.2095 92.478 81.4356 92.478 80.6439C92.478 79.5822 92.0563 78.5641 91.3056 77.8134C90.5549 77.0627 89.5367 76.6409 88.4751 76.6409V76.6409ZM88.4751 82.0908C88.189 82.0903 87.9095 82.005 87.6719 81.8457C87.4343 81.6864 87.2492 81.4603 87.1401 81.1958C87.031 80.9314 87.0027 80.6406 87.0588 80.36C87.1149 80.0795 87.2529 79.822 87.4554 79.6199C87.6578 79.4178 87.9157 79.2802 88.1963 79.2246C88.4769 79.169 88.7677 79.1978 89.0319 79.3073C89.2961 79.4169 89.522 79.6024 89.6809 79.8403C89.8397 80.0782 89.9245 80.3578 89.9245 80.6439C89.9245 80.8341 89.887 81.0225 89.8142 81.1982C89.7413 81.3739 89.6345 81.5335 89.4998 81.6679C89.3652 81.8023 89.2054 81.9088 89.0296 81.9814C88.8537 82.0539 88.6653 82.0911 88.4751 82.0908V82.0908Z" fill="#263238"/>
<path d="M95.8181 74.589H81.1372C80.5887 74.589 80.144 75.0337 80.144 75.5822V100.722C80.144 101.27 80.5887 101.715 81.1372 101.715H95.8181C96.3666 101.715 96.8112 101.27 96.8112 100.722V75.5822C96.8112 75.0337 96.3666 74.589 95.8181 74.589Z" stroke="#263238" stroke-miterlimit="10"/>
<path d="M24.6925 11.7214V15.9563" stroke="#263238" stroke-linecap="round" stroke-linejoin="round"/>
<path d="M26.8099 13.8389H22.5725" stroke="#263238" stroke-linecap="round" stroke-linejoin="round"/>
<path d="M15.4262 37.66V40.5714" stroke="#263238" stroke-linecap="round" stroke-linejoin="round"/>
<path d="M16.8832 39.117H13.9717" stroke="#263238" stroke-linecap="round" stroke-linejoin="round"/>
<path d="M79.4836 9.604V12.5155" stroke="#263238" stroke-linecap="round" stroke-linejoin="round"/>
<path d="M80.938 11.0585H78.0266" stroke="#263238" stroke-linecap="round" stroke-linejoin="round"/>
<path d="M62.0122 77.629V80.5405" stroke="#263238" stroke-linecap="round" stroke-linejoin="round"/>
<path d="M63.4692 79.086H60.5578" stroke="#263238" stroke-linecap="round" stroke-linejoin="round"/>
<path d="M76.1738 35.2779V38.7187" stroke="#263238" stroke-linecap="round" stroke-linejoin="round"/>
<path d="M77.8955 36.9995H74.4547" stroke="#263238" stroke-linecap="round" stroke-linejoin="round"/>
<path d="M84.7771 11.1921V14.6329" stroke="#263238" stroke-linecap="round" stroke-linejoin="round"/>
<path d="M86.4963 12.9112H83.0555" stroke="#263238" stroke-linecap="round" stroke-linejoin="round"/>
<path d="M9.07389 27.2039C9.07439 27.4399 9.00483 27.6708 8.874 27.8673C8.74318 28.0637 8.55699 28.2169 8.33902 28.3075C8.12105 28.398 7.88111 28.4219 7.64959 28.3759C7.41807 28.33 7.20539 28.2164 7.03849 28.0495C6.87159 27.8826 6.75798 27.6699 6.71205 27.4384C6.66613 27.2069 6.68995 26.9669 6.78051 26.749C6.87106 26.531 7.02428 26.3448 7.22074 26.214C7.4172 26.0832 7.64807 26.0136 7.8841 26.0141C8.19965 26.0141 8.50228 26.1395 8.72541 26.3626C8.94854 26.5857 9.07389 26.8883 9.07389 27.2039V27.2039Z" stroke="#263238" stroke-linecap="round" stroke-linejoin="round"/>
<path d="M71.0138 72.6001C71.0138 72.8359 70.9439 73.0665 70.8129 73.2625C70.6819 73.4586 70.4957 73.6114 70.2778 73.7017C70.0599 73.7919 69.8202 73.8155 69.5889 73.7695C69.3576 73.7235 69.1452 73.61 68.9784 73.4432C68.8117 73.2765 68.6981 73.064 68.6521 72.8327C68.6061 72.6015 68.6297 72.3617 68.72 72.1438C68.8102 71.926 68.963 71.7398 69.1591 71.6087C69.3552 71.4777 69.5857 71.4078 69.8215 71.4078C69.9781 71.4078 70.1331 71.4387 70.2778 71.4986C70.4225 71.5585 70.5539 71.6463 70.6646 71.757C70.7753 71.8677 70.8632 71.9992 70.9231 72.1438C70.983 72.2885 71.0138 72.4435 71.0138 72.6001Z" stroke="#263238" stroke-linecap="round" stroke-linejoin="round"/>
<path d="M90.3354 33.0294C90.3354 33.2652 90.2655 33.4957 90.1345 33.6918C90.0034 33.8878 89.8172 34.0407 89.5994 34.1309C89.3815 34.2212 89.1418 34.2448 88.9105 34.1988C88.6792 34.1528 88.4667 34.0392 88.3 33.8724C88.1332 33.7057 88.0197 33.4932 87.9737 33.262C87.9277 33.0307 87.9513 32.7909 88.0415 32.5731C88.1318 32.3552 88.2846 32.169 88.4807 32.038C88.6767 31.907 88.9073 31.837 89.1431 31.837C89.2998 31.8367 89.455 31.8673 89.5998 31.9271C89.7446 31.9869 89.8761 32.0747 89.9869 32.1855C90.0977 32.2963 90.1855 32.4279 90.2453 32.5727C90.3051 32.7175 90.3357 32.8727 90.3354 33.0294V33.0294Z" stroke="#263238" stroke-linecap="round" stroke-linejoin="round"/>
<path d="M15.4262 7.48658C15.9385 7.48658 16.3538 7.07126 16.3538 6.55894C16.3538 6.04662 15.9385 5.6313 15.4262 5.6313C14.9139 5.6313 14.4986 6.04662 14.4986 6.55894C14.4986 7.07126 14.9139 7.48658 15.4262 7.48658Z" stroke="#263238" stroke-linecap="round" stroke-linejoin="round"/>
<path d="M28.9273 73.3942C29.4397 73.3942 29.855 72.9789 29.855 72.4665C29.855 71.9542 29.4397 71.5389 28.9273 71.5389C28.415 71.5389 27.9997 71.9542 27.9997 72.4665C27.9997 72.9789 28.415 73.3942 28.9273 73.3942Z" stroke="#263238" stroke-linecap="round" stroke-linejoin="round"/>
<path d="M7.48582 50.6318C7.99814 50.6318 8.41346 50.2165 8.41346 49.7041C8.41346 49.1918 7.99814 48.7765 7.48582 48.7765C6.9735 48.7765 6.55819 49.1918 6.55819 49.7041C6.55819 50.2165 6.9735 50.6318 7.48582 50.6318Z" stroke="#263238" stroke-linecap="round" stroke-linejoin="round"/>
<path d="M2.82748 57.7907H5.07095V55.0582C5.07095 54.7239 5.20374 54.4034 5.44011 54.167C5.67648 53.9306 5.99706 53.7978 6.33133 53.7978V53.7978C6.6656 53.7978 6.98619 53.9306 7.22255 54.167C7.45892 54.4034 7.59171 54.7239 7.59171 55.0582V62.8473C7.59171 63.2039 7.73318 63.5459 7.98507 63.7983C8.23697 64.0506 8.5787 64.1928 8.93527 64.1934C9.29227 64.1934 9.63465 64.0516 9.88709 63.7992C10.1395 63.5467 10.2813 63.2043 10.2813 62.8473V48.7311C10.282 48.2983 10.4544 47.8835 10.7607 47.5777C11.0669 47.272 11.482 47.1002 11.9148 47.1002V47.1002C12.129 47.1002 12.3411 47.1424 12.5389 47.2243C12.7368 47.3063 12.9166 47.4264 13.068 47.5779C13.2195 47.7293 13.3396 47.9091 13.4216 48.107C13.5035 48.3049 13.5457 48.517 13.5457 48.7311V67.6368C13.5457 68.0446 13.7077 68.4357 13.9961 68.7241C14.2845 69.0124 14.6756 69.1744 15.0834 69.1744V69.1744C15.4908 69.1738 15.8812 69.0115 16.169 68.7232C16.4569 68.4349 16.6185 68.0441 16.6185 67.6368V44.5719C16.6185 44.037 16.831 43.5241 17.2092 43.1459C17.5874 42.7677 18.1003 42.5553 18.6351 42.5553V42.5553C19.17 42.5553 19.6829 42.7677 20.0611 43.1459C20.4393 43.5241 20.6517 44.037 20.6517 44.5719V67.5359C20.6517 67.9692 20.8238 68.3846 21.1302 68.691C21.4365 68.9973 21.852 69.1694 22.2852 69.1694V69.1694C22.7184 69.1694 23.1339 68.9973 23.4402 68.691C23.7465 68.3846 23.9186 67.9692 23.9186 67.5359V49.2378C23.9186 48.7284 24.121 48.2398 24.4812 47.8796C24.8414 47.5194 25.33 47.317 25.8394 47.317V47.317C26.3489 47.317 26.8374 47.5194 27.1977 47.8796C27.5579 48.2398 27.7602 48.7284 27.7602 49.2378V62.7364C27.7602 63.1182 27.9119 63.4843 28.1818 63.7542C28.4518 64.0241 28.8179 64.1758 29.1996 64.1758V64.1758C29.3888 64.1761 29.5763 64.1391 29.7512 64.0669C29.9261 63.9948 30.0851 63.8888 30.219 63.7551C30.3529 63.6214 30.4592 63.4626 30.5317 63.2878C30.6042 63.113 30.6415 62.9257 30.6415 62.7364V55.3985C30.6415 55.0342 30.7862 54.6847 31.0438 54.4271C31.3015 54.1694 31.6509 54.0247 32.0153 54.0247V54.0247C32.3796 54.0247 32.7291 54.1694 32.9867 54.4271C33.2443 54.6847 33.3891 55.0342 33.3891 55.3985V57.7907H35.9451" stroke="#263238" stroke-miterlimit="10"/>
<path d="M34.1428 57.7907H36.3762V55.0582C36.3762 54.7261 36.5072 54.4074 36.7409 54.1714C36.9745 53.9354 37.2919 53.8012 37.6239 53.7979V53.7979C37.9582 53.7979 38.2788 53.9306 38.5152 54.167C38.7515 54.4034 38.8843 54.724 38.8843 55.0582V62.8474C38.8843 63.2044 39.0261 63.5467 39.2786 63.7992C39.531 64.0516 39.8734 64.1934 40.2304 64.1934V64.1934C40.587 64.1928 40.9287 64.0507 41.1806 63.7983C41.4325 63.5459 41.574 63.2039 41.574 62.8474V48.7311C41.5746 48.2984 41.747 47.8835 42.0533 47.5778C42.3595 47.272 42.7746 47.1002 43.2074 47.1002V47.1002C43.64 47.1002 44.0548 47.272 44.3607 47.5779C44.6665 47.8838 44.8383 48.2986 44.8383 48.7311V67.6368C44.8383 68.0446 45.0003 68.4357 45.2887 68.7241C45.5771 69.0124 45.9682 69.1744 46.376 69.1744V69.1744C46.7834 69.1738 47.1738 69.0115 47.4617 68.7232C47.7495 68.4349 47.9111 68.0442 47.9111 67.6368V44.5719C47.9111 44.0371 48.1236 43.5241 48.5018 43.1459C48.88 42.7678 49.3929 42.5553 49.9277 42.5553C50.4626 42.5553 50.9755 42.7678 51.3537 43.1459C51.7319 43.5241 51.9443 44.0371 51.9443 44.5719V67.536C51.944 67.7503 51.986 67.9627 52.0678 68.1609C52.1496 68.359 52.2697 68.5391 52.4211 68.6908C52.5726 68.8425 52.7525 68.9629 52.9506 69.045C53.1486 69.1271 53.3609 69.1694 53.5753 69.1694C53.7898 69.1694 54.0022 69.1272 54.2004 69.0451C54.3985 68.963 54.5786 68.8427 54.7303 68.691C54.882 68.5393 55.0023 68.3592 55.0844 68.1611C55.1665 67.9629 55.2087 67.7505 55.2087 67.536V49.2378C55.2087 48.7284 55.4111 48.2398 55.7713 47.8796C56.1315 47.5194 56.6201 47.317 57.1295 47.317V47.317C57.639 47.317 58.1275 47.5194 58.4877 47.8796C58.848 48.2398 59.0503 48.7284 59.0503 49.2378V62.7364C59.0503 63.1182 59.202 63.4843 59.4719 63.7542C59.7418 64.0242 60.108 64.1758 60.4897 64.1758V64.1758C60.6789 64.1761 60.8664 64.1391 61.0413 64.067C61.2162 63.9948 61.3752 63.8888 61.5091 63.7551C61.643 63.6214 61.7493 63.4626 61.8218 63.2878C61.8943 63.113 61.9316 62.9257 61.9316 62.7364V55.3985C61.9316 55.0351 62.0756 54.6864 62.3322 54.4289C62.5887 54.1714 62.9369 54.0261 63.3003 54.0247V54.0247C63.6647 54.0247 64.0141 54.1695 64.2718 54.4271C64.5294 54.6847 64.6741 55.0342 64.6741 55.3985V57.7907H67.2302" stroke="#263238" stroke-miterlimit="10"/>
<path d="M65.4581 57.7907H67.6915V55.0582C67.6915 54.7261 67.8225 54.4074 68.0562 54.1714C68.2898 53.9354 68.6072 53.8012 68.9393 53.7979V53.7979C69.2713 53.8012 69.5887 53.9354 69.8223 54.1714C70.056 54.4074 70.1871 54.7261 70.187 55.0582V62.8474C70.187 63.2044 70.3289 63.5467 70.5813 63.7992C70.8337 64.0516 71.1761 64.1934 71.5331 64.1934V64.1934C71.8901 64.1934 72.2325 64.0516 72.4849 63.7992C72.7374 63.5467 72.8792 63.2044 72.8792 62.8474V48.7311C72.8799 48.2984 73.0523 47.8835 73.3585 47.5778C73.6648 47.272 74.0799 47.1002 74.5126 47.1002V47.1002C74.7268 47.1002 74.9389 47.1424 75.1368 47.2244C75.3346 47.3063 75.5144 47.4265 75.6659 47.5779C75.8173 47.7293 75.9375 47.9091 76.0194 48.107C76.1014 48.3049 76.1436 48.517 76.1436 48.7311V67.6368C76.1436 68.0424 76.3038 68.4316 76.5895 68.7196C76.8751 69.0077 77.263 69.1711 77.6686 69.1744V69.1744C77.8704 69.1744 78.0703 69.1347 78.2567 69.0574C78.4431 68.98 78.6124 68.8667 78.755 68.7239C78.8976 68.5811 79.0106 68.4116 79.0876 68.225C79.1646 68.0385 79.2041 67.8386 79.2038 67.6368V44.5719C79.2038 44.0371 79.4162 43.5241 79.7944 43.1459C80.1726 42.7678 80.6855 42.5553 81.2204 42.5553C81.7552 42.5553 82.2681 42.7678 82.6463 43.1459C83.0245 43.5241 83.237 44.0371 83.237 44.5719V67.536C83.237 67.9687 83.4087 68.3838 83.7145 68.6901C84.0203 68.9964 84.4351 69.1687 84.8679 69.1694V69.1694C85.0824 69.1694 85.2948 69.1272 85.493 69.0451C85.6912 68.963 85.8712 68.8427 86.0229 68.691C86.1746 68.5393 86.2949 68.3592 86.377 68.1611C86.4591 67.9629 86.5013 67.7505 86.5013 67.536V49.2378C86.5013 48.7284 86.7037 48.2398 87.0639 47.8796C87.4242 47.5194 87.9127 47.317 88.4222 47.317V47.317C88.9316 47.317 89.4202 47.5194 89.7804 47.8796C90.1406 48.2398 90.343 48.7284 90.343 49.2378V62.7364C90.343 63.1182 90.4946 63.4843 90.7645 63.7542C91.0345 64.0242 91.4006 64.1758 91.7823 64.1758V64.1758C91.9716 64.1761 92.159 64.1391 92.3339 64.067C92.5088 63.9948 92.6678 63.8888 92.8017 63.7551C92.9357 63.6214 93.0419 63.4626 93.1144 63.2878C93.1869 63.113 93.2242 62.9257 93.2242 62.7364V55.3985C93.2242 55.0342 93.3689 54.6847 93.6266 54.4271C93.8842 54.1695 94.2336 54.0247 94.598 54.0247V54.0247C94.9624 54.0247 95.3118 54.1695 95.5694 54.4271C95.8271 54.6847 95.9718 55.0342 95.9718 55.3985V57.7907H98.5405" stroke="#263238" stroke-miterlimit="10"/>
<path d="M47.8532 117.069C61.3753 117.069 72.3372 114.462 72.3372 111.246C72.3372 108.03 61.3753 105.423 47.8532 105.423C34.331 105.423 23.3691 108.03 23.3691 111.246C23.3691 114.462 34.331 117.069 47.8532 117.069Z" stroke="#263238" stroke-linecap="round" stroke-linejoin="round"/>
<path d="M39.1616 12.4701C39.1616 12.4701 39.5574 11.2349 39.9178 10.2644C40.2783 9.29393 40.8883 8.4999 41.1984 8.27807C41.5084 8.05624 43.0511 7.52184 46.0508 8.18984C49.0505 8.85784 50.4193 9.95437 50.9033 10.3526C51.3873 10.7509 51.3898 11.4114 51.478 12.2054C51.539 12.7248 51.6274 13.2406 51.7427 13.7506C51.7427 13.7506 51.4326 13.0877 47.6389 12.5583C43.8452 12.0289 42.3781 11.676 41.279 12.2054C40.18 12.7348 38.8969 13.3977 38.8969 13.3977L39.1616 12.4701Z" fill="#263238" stroke="#263238" stroke-linecap="round" stroke-linejoin="round"/>
<path d="M40.1094 18.8425C39.5153 18.7891 38.9257 18.6939 38.3449 18.5577C36.9055 18.2703 35.7283 17.1965 37.0366 15.4093C38.3449 13.6221 39.1944 12.2609 39.1944 12.2609C39.1944 12.2609 39.7363 11.2526 41.8109 10.7156C43.8855 10.1787 48.385 11.5374 50.1496 12.213C51.9141 12.8885 53.3232 13.7179 53.9736 14.8648C54.6239 16.0117 54.0618 16.3621 53.0031 17.4713C51.9443 18.5804 51.2839 18.9182 49.5194 19.4021C47.7549 19.8861 40.1094 18.8425 40.1094 18.8425Z" fill="#263238" stroke="#263238" stroke-linecap="round" stroke-linejoin="round"/>
<path d="M41.4807 12.9616C41.4807 12.9616 39.7792 14.5321 39.7792 15.316C39.7792 16.1 39.9103 18.7165 40.1069 19.6971C40.3035 20.6777 41.7429 23.6874 42.3302 24.1462C42.9175 24.605 44.9467 24.0807 44.9467 24.0807L45.9298 25.3889L51.2234 21.9884C51.2234 21.9884 50.3714 20.0903 50.3059 19.8937C50.2557 19.4376 50.2338 18.9787 50.2403 18.5199C50.2403 18.5199 51.0268 18.1292 51.289 17.4738C51.4537 16.9864 51.5388 16.4757 51.541 15.9613C51.541 15.9613 49.2522 13.6725 46.7012 12.8885C44.1502 12.1046 41.4807 12.9616 41.4807 12.9616Z" fill="white" stroke="#263238" stroke-linecap="round" stroke-linejoin="round"/>
<path d="M41.9395 15.3891L42.0706 16.4352C42.0706 16.4352 41.4152 17.1536 41.4152 17.678C41.4152 18.2023 42.3302 18.2023 42.3302 18.2023" stroke="#263238" stroke-linecap="round" stroke-linejoin="round"/>
<path d="M43.8351 15.0614L43.9006 15.5202L45.5366 14.9959" stroke="#263238" stroke-linecap="round" stroke-linejoin="round"/>
<path d="M40.6312 16.4352L40.4598 17.1637L41.5059 16.5739" stroke="#263238" stroke-linecap="round" stroke-linejoin="round"/>
<path d="M45.1585 15.7143C45.3311 15.7143 45.4711 15.5935 45.4711 15.4446C45.4711 15.2956 45.3311 15.1749 45.1585 15.1749C44.9859 15.1749 44.8459 15.2956 44.8459 15.4446C44.8459 15.5935 44.9859 15.7143 45.1585 15.7143Z" fill="#263238"/>
<path d="M41.3748 17.1637C41.5475 17.1637 41.6874 17.043 41.6874 16.894C41.6874 16.745 41.5475 16.6243 41.3748 16.6243C41.2022 16.6243 41.0623 16.745 41.0623 16.894C41.0623 17.043 41.2022 17.1637 41.3748 17.1637Z" fill="#263238"/>
<path d="M42.9553 14.4993C42.9553 14.4993 43.3108 13.2389 44.4981 12.9994C44.7414 12.9495 44.9932 12.9597 45.2317 13.0291C45.4703 13.0985 45.6882 13.225 45.8668 13.3977" stroke="#263238" stroke-width="2" stroke-linecap="round" stroke-linejoin="round"/>
<path d="M41.4983 15.1169C41.4983 15.1169 41.1051 14.8119 40.7925 14.9404C40.6153 15.0174 40.4611 15.1392 40.3453 15.294C40.2295 15.4487 40.156 15.6309 40.1321 15.8227" stroke="#263238" stroke-width="2" stroke-linecap="round" stroke-linejoin="round"/>
<path d="M48.6472 14.6757C49.4034 15.2933 49.2648 16.221 49.837 15.9991C50.2153 15.8376 50.5732 15.632 50.9033 15.3866C50.0119 14.6156 49.031 13.9546 47.9817 13.4179C47.9909 13.6641 48.0556 13.9051 48.1708 14.1228C48.286 14.3406 48.4489 14.5296 48.6472 14.6757V14.6757Z" fill="#263238" stroke="#263238" stroke-linecap="round" stroke-linejoin="round"/>
<path d="M44.9467 24.0882L47.0566 22.5279L45.9298 25.3965L44.9467 24.0882Z" fill="#263238" stroke="#263238" stroke-linecap="round" stroke-linejoin="round"/>
<path d="M44.3468 101.453C44.3468 101.453 41.0824 103.747 40.5531 103.835C40.0237 103.923 37.7298 104.364 37.4651 104.894C37.2005 105.423 37.024 106.129 37.9063 106.305C38.7885 106.482 42.7587 106.746 44.1703 106.746C45.582 106.746 47.17 106.834 47.9515 106.658C48.7329 106.482 49.9807 106.834 50.4218 105.07C50.8629 103.305 50.7747 101.894 50.51 100.923C50.2454 99.9528 44.3468 101.453 44.3468 101.453Z" fill="white" stroke="#263238" stroke-linecap="round" stroke-linejoin="round"/>
<path d="M48.6573 105.942C46.8823 105.757 45.0977 105.678 43.3133 105.708C41.0597 105.776 38.0197 105.304 37.3366 105.191C37.1727 105.657 37.1828 106.159 37.9063 106.305C38.7885 106.482 42.7587 106.746 44.1703 106.746C45.582 106.746 47.17 106.834 47.9515 106.658C48.3724 106.565 48.9144 106.618 49.3984 106.429L48.6573 105.942Z" stroke="#263238" stroke-linecap="round" stroke-linejoin="round"/>
<path d="M43.6561 104.901C43.6387 104.901 43.6214 104.898 43.6054 104.891C43.5893 104.884 43.5747 104.874 43.5625 104.862C43.5503 104.849 43.5407 104.835 43.5343 104.818C43.5278 104.802 43.5247 104.785 43.525 104.767L43.5376 104.306C43.5376 104.289 43.5411 104.272 43.5479 104.256C43.5547 104.24 43.5646 104.225 43.5771 104.213C43.5895 104.201 43.6043 104.192 43.6205 104.186C43.6367 104.18 43.6539 104.177 43.6712 104.178C43.7065 104.179 43.7398 104.194 43.7642 104.219C43.7887 104.245 43.8023 104.278 43.8023 104.314V104.772C43.8025 104.791 43.7987 104.809 43.7911 104.826C43.7836 104.843 43.7725 104.858 43.7587 104.87C43.7448 104.882 43.7284 104.892 43.7107 104.897C43.693 104.902 43.6744 104.904 43.6561 104.901V104.901Z" fill="white" stroke="#263238" stroke-linecap="round" stroke-linejoin="round"/>
<path d="M43.6662 104.576C43.5973 104.571 43.5328 104.541 43.4859 104.49C43.439 104.439 43.4133 104.373 43.4141 104.304L43.4545 102.526C43.4595 102.458 43.4901 102.394 43.5401 102.348C43.59 102.301 43.6558 102.275 43.7242 102.274C43.793 102.278 43.8579 102.308 43.905 102.358C43.9521 102.408 43.9776 102.475 43.9762 102.544L43.9359 104.321C43.9333 104.391 43.9036 104.456 43.8531 104.504C43.8027 104.551 43.7355 104.577 43.6662 104.576Z" fill="white" stroke="#263238" stroke-linecap="round" stroke-linejoin="round"/>
<path d="M40.548 104.228C40.4759 104.228 40.4053 104.208 40.3439 104.17C40.2825 104.132 40.2327 104.078 40.2002 104.014C40.1494 103.923 40.1227 103.82 40.1227 103.716C40.1227 103.612 40.1494 103.51 40.2002 103.419C40.4018 103.068 40.911 103 41.1228 102.988C41.2246 102.988 41.3226 103.026 41.3966 103.096C41.4707 103.166 41.5152 103.262 41.521 103.363C41.5268 103.465 41.4935 103.565 41.4279 103.643C41.3622 103.721 41.2693 103.77 41.1681 103.782C41.0932 103.788 41.019 103.801 40.9463 103.82C40.9492 103.896 40.9301 103.971 40.8912 104.036C40.8522 104.101 40.7952 104.154 40.727 104.188C40.6711 104.214 40.61 104.228 40.548 104.228V104.228Z" fill="white" stroke="#263238" stroke-linecap="round" stroke-linejoin="round"/>
<path d="M41.5286 103.623C41.4559 103.624 41.3845 103.604 41.3225 103.566C41.2605 103.528 41.2105 103.474 41.1782 103.409C41.1274 103.318 41.1008 103.215 41.1008 103.111C41.1008 103.007 41.1274 102.905 41.1782 102.814C41.3824 102.463 41.8916 102.398 42.1008 102.385C42.1528 102.382 42.2049 102.389 42.2541 102.406C42.3033 102.423 42.3487 102.45 42.3877 102.484C42.4266 102.519 42.4584 102.561 42.4812 102.608C42.504 102.654 42.5174 102.705 42.5205 102.757C42.5237 102.809 42.5165 102.861 42.4996 102.91C42.4826 102.96 42.4561 103.005 42.4215 103.044C42.387 103.083 42.3451 103.115 42.2983 103.138C42.2515 103.16 42.2007 103.174 42.1487 103.177C42.0729 103.183 41.9978 103.195 41.9244 103.215C41.9273 103.291 41.9081 103.366 41.8692 103.431C41.8303 103.496 41.7733 103.549 41.7051 103.583C41.6501 103.609 41.5897 103.623 41.5286 103.623V103.623Z" fill="white" stroke="#263238" stroke-linecap="round" stroke-linejoin="round"/>
<path d="M42.5066 103.021C42.4342 103.021 42.3631 103.001 42.3013 102.963C42.2394 102.925 42.1892 102.871 42.1563 102.806C42.1053 102.715 42.0785 102.613 42.0785 102.509C42.0785 102.405 42.1053 102.302 42.1563 102.211C42.3579 101.859 42.8671 101.793 43.0763 101.78C43.1813 101.774 43.2845 101.81 43.3632 101.879C43.4419 101.949 43.4897 102.047 43.496 102.152C43.5024 102.257 43.4668 102.36 43.3971 102.439C43.3273 102.518 43.2292 102.566 43.1242 102.572C43.0491 102.578 42.9747 102.591 42.9024 102.612C42.9039 102.688 42.8842 102.762 42.8454 102.827C42.8066 102.891 42.7503 102.944 42.6831 102.978C42.6282 103.005 42.5679 103.019 42.5066 103.021V103.021Z" fill="white" stroke="#263238" stroke-linecap="round" stroke-linejoin="round"/>
<path d="M38.1911 104.533C38.1911 104.533 38.234 104.619 39.0961 104.619C39.9582 104.619 40.2153 105.007 40.301 105.307" stroke="#263238" stroke-linecap="round" stroke-linejoin="round"/>
<path d="M46.3458 104.233C46.5353 104.061 46.7665 103.942 47.0163 103.888" stroke="#263238" stroke-linecap="round" stroke-linejoin="round"/>
<path d="M45.166 105.652C45.4056 105.268 45.6799 104.907 45.9853 104.573" stroke="#263238" stroke-linecap="round" stroke-linejoin="round"/>
<path d="M40.7497 58.3075C40.7497 58.3075 40.6615 63.8657 40.6615 69.6004C40.6615 75.3351 40.9564 80.5808 41.6698 82.2571C42.3831 83.9334 44.2661 92.63 44.4426 93.777C44.619 94.9239 44.3544 96.6884 44.3544 97.5581C44.3565 98.0983 44.4459 98.6345 44.619 99.1462C44.619 99.1462 44.1779 99.852 44.1779 100.293C44.1779 100.734 43.6486 101.617 44.1779 101.881C44.7073 102.146 45.0602 102.411 47.707 102.852C50.3538 103.293 52.0301 100.734 52.4712 100.028C52.9123 99.3226 50.4042 82.5092 50.0513 79.4213C49.6984 76.3334 49.9328 69.9407 50.4621 67.4704C50.9915 65.0001 50.7268 59.2653 50.3739 58.1184C50.021 56.9715 46.5802 56.2657 44.7274 56.4421C42.8747 56.6186 40.7497 58.3075 40.7497 58.3075Z" fill="#263238" stroke="#263238" stroke-linecap="round" stroke-linejoin="round"/>
<path d="M47.5431 60.7778C47.5431 60.7778 45.6324 74.3168 45.6324 76.5224C45.6324 78.7281 46.6029 81.1984 46.8676 82.2571C47.1322 83.3158 48.1405 95.2768 48.4052 96.0709C48.6699 96.8649 48.7581 98.9823 48.7581 98.9823C48.7581 98.9823 48.0523 99.247 47.9641 99.7764C47.8759 100.306 48.317 100.659 48.317 101.1C48.317 101.541 47.8759 102.247 47.6994 102.864C47.6019 103.275 47.6327 103.706 47.7876 104.099C47.7876 104.099 46.0231 106.482 45.2291 107.276C44.435 108.07 42.4058 109.569 41.2589 110.364C40.1119 111.158 37.8181 112.128 37.7298 113.363C37.6416 114.598 38.5239 115.657 40.7295 115.745C42.9352 115.834 46.9054 115.922 49.111 115.657C51.3167 115.392 55.6398 112.922 56.3456 112.04C57.0514 111.158 57.5026 111.069 57.5026 108.599C57.5026 106.129 57.5908 103.747 57.5026 103.482C57.4144 103.217 57.2505 102.776 57.4144 101.364C57.5295 100.561 57.4384 99.7411 57.1497 98.9823C57.2943 98.5488 57.4121 98.1068 57.5026 97.6589C57.5908 97.1296 56.885 95.8944 56.885 95.8944C56.885 95.8944 57.3766 86.7567 57.3766 84.7275C57.3766 82.6983 54.818 78.2869 54.818 78.2869C54.818 78.2869 55.1709 76.4342 55.1709 76.0813C55.1709 75.7284 54.6416 74.8461 54.6416 74.8461C54.6416 74.8461 57.2505 67.5712 57.5026 66.6007C57.7547 65.6302 58.4731 62.4541 58.6496 61.3954C58.826 60.3367 58.2084 58.131 57.4144 56.8076C56.6203 55.4842 53.1795 53.8961 51.9444 54.9548C50.7092 56.0136 47.5431 60.7778 47.5431 60.7778Z" fill="#263238" stroke="#263238" stroke-linecap="round" stroke-linejoin="round"/>
<path d="M40.0439 58.3957C40.0439 58.3957 42.426 62.5423 44.0141 63.3364C45.6021 64.1304 47.1902 62.9835 49.3959 60.6014C51.6015 58.2192 52.9249 56.3665 54.513 56.9841C56.1011 57.6017 59.0125 63.601 59.4537 64.3069C59.8948 65.0127 59.8066 58.4839 58.9243 56.4547C58.0421 54.4255 53.5425 53.6315 48.0851 54.3373C42.6276 55.0431 40.0439 58.3957 40.0439 58.3957Z" fill="white" stroke="#263238" stroke-linecap="round" stroke-linejoin="round"/>
<path d="M39.6053 55.5624C39.6053 55.5624 39.4288 57.1504 39.4288 58.0327C39.4288 58.915 40.7522 58.8267 40.7522 58.8267C40.7522 58.8267 44.7224 57.1504 49.1337 56.8858C53.545 56.6211 57.9563 57.768 58.6622 57.768C59.368 57.768 59.7209 57.1504 59.7209 56.4446C59.7209 55.7388 58.9268 54.1507 58.9268 54.1507C58.9268 54.1507 57.0741 52.1215 51.6041 51.9451C46.134 51.7686 42.1638 51.8569 41.0169 52.8273C39.87 53.7978 39.6053 55.5624 39.6053 55.5624Z" fill="#666666" stroke="#263238" stroke-linecap="round" stroke-linejoin="round"/>
<path d="M50.9335 20.9877C50.9335 20.9877 45.9802 24.7688 44.9669 25.5478C43.9536 26.3267 44.798 27.0098 45.0249 27.1787C45.2599 27.4175 45.4671 27.6822 45.6425 27.9677C44.4752 29.0117 43.2343 29.9704 41.9294 30.8363C39.7338 32.3009 39.3406 32.5252 38.7205 33.3117C38.1004 34.0982 35.7964 36.6895 35.7964 36.6895C35.9832 35.8762 36.0962 35.0477 36.1342 34.2141C36.1342 33.2058 36.598 31.9732 36.0913 31.1287C35.5847 30.2843 34.347 29.2155 33.2227 29.2155C32.0985 29.2155 31.0826 29.6087 30.407 30.6775C29.7315 31.7463 29.2122 33.9318 28.819 36.2963C28.4257 38.6607 26.694 41.5394 27.425 42.6637C28.156 43.7879 29.3382 45.1844 30.9137 45.1844C32.4892 45.1844 33.8958 45.071 34.6293 44.3954C35.3628 43.7199 38.8339 42.2477 39.2271 41.9654C39.6626 41.6951 40.1138 41.451 40.5783 41.2344C40.5783 41.2344 40.5228 45.5676 40.2985 47.3119C40.0741 49.0563 38.6096 53.2206 38.4961 54.118C38.3827 55.0154 39.7918 55.9178 39.7918 55.9178C39.7918 55.9178 41.2538 54.4053 45.5895 54.0045C49.0574 53.7354 52.5429 53.792 56.0002 54.1734C57.069 54.3423 58.5891 55.0759 59.2772 54.4003C59.9654 53.7247 60.4015 53.7247 60.2855 52.2047C60.1696 50.6847 59.9503 49.0538 59.9503 48.3782C59.9503 47.7027 60.3989 42.3007 60.3989 42.1318C60.3989 41.9629 61.8635 35.5476 61.8635 35.5476C61.8635 35.5476 65.1833 34.5393 67.4344 34.0856C69.6854 33.6318 70.6408 30.5414 69.9097 28.739C69.1787 26.9367 66.3076 25.0814 65.0699 24.237C63.8322 23.3925 59.7234 23.2287 59.1613 23.4505C58.5991 23.6723 56.8548 23.3371 55.5036 23.1682C54.1525 22.9993 53.4215 22.9993 53.1972 23.0547L52.9703 23.1127C52.9703 23.1127 52.6325 21.2549 52.1284 20.9171C51.6242 20.5794 50.9335 20.9877 50.9335 20.9877Z" fill="#92E3A9" stroke="#263238" stroke-linecap="round" stroke-linejoin="round"/>
<path d="M63.7868 33.2008C64.0995 33.2633 64.4163 33.3038 64.7346 33.3218" stroke="#263238" stroke-linecap="round" stroke-linejoin="round"/>
<path d="M57.9261 24.5999C57.9261 24.5999 56.4615 25.3889 56.8548 26.6821C57.248 27.9752 59.8948 30.9674 61.1401 31.9757C61.6668 32.4032 62.2639 32.7358 62.9046 32.9588" stroke="#263238" stroke-linecap="round" stroke-linejoin="round"/>
<path d="M60.6258 31.8673C60.6258 31.8673 61.5837 33.2184 62.5391 33.6116C63.0904 33.8454 63.6847 33.9604 64.2834 33.9494" stroke="#263238" stroke-linecap="round" stroke-linejoin="round"/>
<path d="M35.5368 40.6269C35.4124 41.0879 35.2204 41.5279 34.9671 41.9326" stroke="#263238" stroke-linecap="round" stroke-linejoin="round"/>
<path d="M35.7964 36.6895C35.7964 36.6895 35.6401 38.7817 35.6401 39.8505" stroke="#263238" stroke-linecap="round" stroke-linejoin="round"/>
<path d="M35.6981 41.6503C35.6981 41.6503 35.2469 42.7191 34.5713 42.888" stroke="#263238" stroke-linecap="round" stroke-linejoin="round"/>
<path d="M40.1422 36.5861L40.5783 41.247L39.3557 37.544" stroke="#263238" stroke-linecap="round" stroke-linejoin="round"/>
<path d="M55.844 32.0841C55.844 32.0841 56.4061 34.562 58.3647 35.1241C60.3233 35.6862 61.5736 35.5173 61.5736 35.5173" stroke="#263238" stroke-linecap="round" stroke-linejoin="round"/>
<path d="M42.673 52.3383C42.4209 53.2987 42.4789 53.9516 43.1318 54.249" stroke="#263238" stroke-linecap="round" stroke-linejoin="round"/>
<path d="M43.7191 49.0916C43.5877 49.6442 43.4193 50.1874 43.215 50.7175L43.1116 50.9897" stroke="#263238" stroke-linecap="round" stroke-linejoin="round"/>
<path d="M45.4912 31.2926C45.184 32.1646 44.9265 33.0533 44.7199 33.9545C44.2787 36.0719 44.1905 41.1008 44.1905 44.0123C44.2155 45.4666 44.1092 46.9203 43.8729 48.3555" stroke="#263238" stroke-linecap="round" stroke-linejoin="round"/>
<path d="M45.955 24.8671C45.955 24.8671 45.2492 26.1023 45.6021 26.4552C45.955 26.8081 46.6609 28.1315 46.6609 28.1315C46.6609 28.1315 46.1996 29.2709 45.7131 30.6523" stroke="#263238" stroke-linecap="round" stroke-linejoin="round"/>
<path d="M44.8131 43.9215C44.3084 43.9363 43.8158 43.765 43.4292 43.4401C42.4487 42.6032 42.1134 40.7605 42.3378 37.4659C42.3378 37.3348 42.3579 37.2012 42.3731 37.0676C42.4008 33.6419 44.2258 29.7272 44.3191 29.5053C44.3745 29.3717 44.6316 28.8399 44.7652 28.8953C44.8988 28.9508 45.0173 28.6432 44.9644 28.7668C44.9644 28.7668 44.919 28.8751 44.851 29.0516C45.1585 28.3609 45.3753 27.9173 45.4055 27.8542C45.4369 27.7914 45.4919 27.7434 45.5584 27.7208C45.6249 27.6981 45.6977 27.7026 45.7609 27.7332C45.7933 27.7474 45.8224 27.7681 45.8462 27.7942C45.87 27.8203 45.8881 27.8511 45.8993 27.8846C45.9105 27.9181 45.9145 27.9536 45.9111 27.9887C45.9076 28.0239 45.8968 28.0579 45.8794 28.0887C45.8542 28.1416 43.3133 33.3369 42.9024 37.1004C42.8993 37.3952 42.9162 37.69 42.9528 37.9826C43.036 38.6179 43.2856 39.3917 43.9939 39.4774C45.0854 39.6085 46.8852 38.1288 47.8254 35.7165C49.2245 32.1345 52.4737 24.6655 52.5065 24.5899C52.5302 24.523 52.5795 24.4683 52.6436 24.4378C52.7076 24.4073 52.7812 24.4035 52.848 24.4273C52.9149 24.451 52.9696 24.5003 53.0001 24.5644C53.0306 24.6284 53.0344 24.702 53.0106 24.7688C52.1875 27.7383 51.571 30.7612 51.1654 33.8158C50.5957 38.3053 48.6447 43.1426 45.5794 43.8358C45.328 43.8929 45.071 43.9216 44.8131 43.9215V43.9215ZM42.7965 39.2304C42.7965 41.247 43.1091 42.4746 43.767 43.0393C44.1754 43.3871 44.7249 43.4779 45.4509 43.314C47.8506 42.7721 49.9882 38.8372 50.6285 33.7352C50.9108 31.5169 51.3242 29.4146 51.6898 27.7887C50.6184 30.2918 49.1413 33.7755 48.3145 35.8929C47.3641 38.328 45.398 40.1782 43.9258 39.9866C43.6922 39.9578 43.4686 39.8743 43.2733 39.743C43.0779 39.6116 42.9163 39.436 42.8016 39.2304H42.7965Z" fill="white" stroke="#263238" stroke-linecap="round" stroke-linejoin="round"/>
<path d="M45.6021 26.4552L45.3375 28.4844L46.1315 28.1315L45.6021 26.4552Z" fill="white" stroke="#263238" stroke-linecap="round" stroke-linejoin="round"/>
<path d="M52.9174 25.2755C52.9174 25.2755 50.6663 26.2334 49.9908 26.6821" stroke="#263238" stroke-linecap="round" stroke-linejoin="round"/>
<path d="M56.7464 23.9824C56.7464 23.9824 56.9153 24.5999 57.8706 25.4444C58.826 26.2888 60.6838 26.12 61.4173 25.7267C62.1509 25.3335 62.3576 24.0832 62.3576 24.0832C62.3576 24.0832 61.2484 22.8556 60.6838 22.8001C60.1191 22.7447 56.9682 22.4069 56.7464 23.9824Z" fill="#666666" stroke="#263238" stroke-linecap="round" stroke-linejoin="round"/>
<path d="M62.7508 23.3522C62.6424 23.148 62.5265 22.9514 62.408 22.7598C62.4298 22.7333 62.45 22.7055 62.4685 22.6766C62.542 22.5823 62.5908 22.4711 62.6106 22.3532C62.6304 22.2352 62.6205 22.1142 62.5819 22.0011C62.4685 21.7767 61.9618 20.8213 61.7929 20.8213C61.7047 20.8213 61.314 20.8818 60.9586 20.9398L60.893 20.8768C60.7334 20.732 60.5898 20.5706 60.4645 20.3953C60.5779 20.0147 60.9964 18.9888 60.893 18.6308C60.7897 18.2729 59.7688 17.8998 59.3806 17.9553C59.1285 17.9931 58.5588 18.6938 58.1958 19.1829L57.6917 19.0921C57.5127 18.5703 57.1598 17.6023 56.9531 17.562C56.6733 17.504 56.1666 18.1241 56.1666 18.4065C56.1666 18.4972 56.1843 18.7266 56.2095 18.9938L55.5465 19.4173C55.5465 19.4173 54.6466 21.6129 54.2534 22.0641C53.8601 22.5153 52.2368 23.5261 51.2133 23.5765C50.1899 23.6269 49.0757 23.7454 49.3001 24.421C49.5244 25.0965 50.3084 25.152 51.8208 25.3209C53.3333 25.4898 54.634 24.7588 55.1961 24.421C55.7583 24.0832 56.9405 24.2521 57.7295 24.2521C58.5185 24.2521 59.5873 23.9723 59.8116 23.9723C60.036 23.9723 60.6561 24.4764 61.3241 24.6478C61.9921 24.8193 63.2373 24.421 63.2373 24.421C63.2373 24.421 63.313 24.421 62.7508 23.3522Z" fill="white" stroke="#263238" stroke-linecap="round" stroke-linejoin="round"/>
<path d="M59.2041 18.7947L59.1487 20.3701C59.1487 20.3701 58.7554 21.6633 58.9798 22.1145C59.2041 22.5657 60.104 22.1699 60.2175 21.9456C60.3309 21.7212 61.1753 18.9207 61.1174 18.5703C61.0594 18.2199 60.2729 17.7813 59.8242 17.7813C59.6859 17.7853 59.5497 17.8172 59.4241 17.8753C59.2984 17.9333 59.1859 18.0163 59.0932 18.1191" fill="white"/>
<path d="M59.2041 18.7947L59.1487 20.3701C59.1487 20.3701 58.7554 21.6633 58.9798 22.1145C59.2041 22.5657 60.104 22.1699 60.2175 21.9456C60.3309 21.7212 61.1753 18.9207 61.1174 18.5703C61.0594 18.2199 60.2729 17.7813 59.8242 17.7813C59.6859 17.7853 59.5497 17.8172 59.4241 17.8753C59.2984 17.9333 59.1859 18.0163 59.0932 18.1191" stroke="#263238" stroke-linecap="round" stroke-linejoin="round"/>
<path d="M63.1441 22.001C63.1441 22.001 64.1524 22.6766 64.2129 22.9009C64.2734 23.1253 64.0994 24.4134 64.0994 25.0965C64.0994 25.7796 63.8751 26.4476 63.4818 26.0544C63.0886 25.6612 63.0886 24.3655 63.0306 24.1412C62.9726 23.9168 62.6928 23.8034 62.6928 23.8034" fill="white"/>
<path d="M63.1441 22.001C63.1441 22.001 64.1524 22.6766 64.2129 22.9009C64.2734 23.1253 64.0994 24.4134 64.0994 25.0965C64.0994 25.7796 63.8751 26.4476 63.4818 26.0544C63.0886 25.6612 63.0886 24.3655 63.0306 24.1412C62.9726 23.9168 62.6928 23.8034 62.6928 23.8034" stroke="#263238" stroke-linecap="round" stroke-linejoin="round"/>
<path d="M56.6733 16.9948C56.6733 16.9948 55.2667 16.715 55.1608 17.2771C55.055 17.8393 54.9919 19.6971 55.4432 19.7979C55.8944 19.8987 56.6229 19.9668 56.7363 19.7979C56.8497 19.629 57.2405 17.6578 57.1875 17.32C57.1346 16.9822 56.6733 16.9948 56.6733 16.9948Z" fill="white" stroke="#263238" stroke-linecap="round" stroke-linejoin="round"/>
<path d="M60.6107 20.9877C60.6107 20.9877 61.9618 19.9794 62.3551 19.8635C62.7483 19.7475 63.7642 20.776 63.7642 20.776C63.6712 21.5185 63.5203 22.2526 63.3129 22.9715C63.0306 23.816 62.6928 24.0958 62.3551 24.0958C62.2626 24.0929 62.1716 24.0716 62.0874 24.0331C62.0033 23.9946 61.9277 23.9397 61.865 23.8717C61.8023 23.8036 61.7539 23.7237 61.7224 23.6367C61.691 23.5496 61.6773 23.4572 61.682 23.3648C61.682 22.9136 61.8509 21.4515 61.8509 21.4515" fill="white"/>
<path d="M60.6107 20.9877C60.6107 20.9877 61.9618 19.9794 62.3551 19.8635C62.7483 19.7475 63.7642 20.776 63.7642 20.776C63.6712 21.5185 63.5203 22.2526 63.3129 22.9715C63.0306 23.816 62.6928 24.0958 62.3551 24.0958C62.2626 24.0929 62.1716 24.0716 62.0874 24.0331C62.0033 23.9946 61.9277 23.9397 61.865 23.8717C61.8023 23.8036 61.7539 23.7237 61.7224 23.6367C61.691 23.5496 61.6773 23.4572 61.682 23.3648C61.682 22.9136 61.8509 21.4515 61.8509 21.4515" stroke="#263238" stroke-linecap="round" stroke-linejoin="round"/>
<path d="M57.6866 19.5811C57.6866 19.5811 57.1825 20.2567 56.7287 20.3701C56.3772 20.444 56.0191 20.482 55.6599 20.4836" fill="white"/>
<path d="M57.6866 19.5811C57.6866 19.5811 57.1825 20.2567 56.7287 20.3701C56.3772 20.444 56.0191 20.482 55.6599 20.4836" stroke="#263238" stroke-linecap="round" stroke-linejoin="round"/>
<path d="M58.2588 19.9189C58.2833 20.0894 58.3623 20.2474 58.4841 20.3692C58.6059 20.491 58.7639 20.57 58.9344 20.5945" fill="white"/>
<path d="M58.2588 19.9189C58.2833 20.0894 58.3623 20.2474 58.4841 20.3692C58.6059 20.491 58.7639 20.57 58.9344 20.5945" stroke="#263238" stroke-linecap="round" stroke-linejoin="round"/>
<path d="M60.8376 21.7843C60.8376 21.7843 60.7241 22.5153 61.5686 22.3464Z" fill="white"/>
<path d="M60.8376 21.7843C60.8376 21.7843 60.7241 22.5153 61.5686 22.3464" stroke="#263238" stroke-linecap="round" stroke-linejoin="round"/>
<path d="M34.7402 28.3155C35.3534 27.3599 35.8992 26.3626 36.3737 25.331C37.0492 23.8185 37.6114 22.8556 38.3424 22.0111C39.0734 21.1667 40.9892 19.6668 41.1555 19.6492C41.6597 19.5912 41.6597 20.2113 41.6597 20.2113C41.6597 20.2113 42.5596 19.7072 42.8419 19.929C43.1242 20.1508 43.0058 20.7129 42.5596 21.0558C41.8286 21.6179 40.8732 23.0724 40.8152 23.2488C40.7723 23.3676 40.7156 23.481 40.6463 23.5866C40.6463 23.5866 41.884 24.3201 41.884 24.6579C41.8549 24.9488 41.7792 25.2331 41.6597 25.4998C41.7136 25.9698 41.6117 26.4445 41.3698 26.851C40.9766 27.4711 40.6968 28.0887 40.3615 28.0887C40.0262 28.0887 39.8573 28.0332 39.8573 27.6954C39.8573 27.3576 40.2506 26.5712 40.2506 26.5712C39.916 26.8747 39.6144 27.2127 39.3507 27.5795C39.0129 28.0836 38.6751 28.7062 38.113 28.9306C37.5509 29.1549 36.5375 29.4347 36.5375 29.4347L35.5141 31.111C35.0204 31.2084 34.5082 31.1318 34.0647 30.8943C33.4471 30.501 33.2782 29.6566 33.2782 29.6566L34.7402 28.3155Z" fill="white" stroke="#263238" stroke-linecap="round" stroke-linejoin="round"/>
<path d="M34.347 28.371C34.347 28.5592 34.3929 28.7446 34.4807 28.9111C34.5686 29.0776 34.6957 29.2201 34.8511 29.3264C35.4133 29.7776 36.54 29.8305 36.54 29.8305C36.54 29.8305 36.7644 29.6616 36.7644 29.9439C36.7644 30.2263 35.9199 31.6883 35.5821 32.2504C35.2444 32.8126 33.3891 32.926 32.7135 32.0261C32.038 31.1262 32.0934 29.9439 32.2094 29.7751C32.3253 29.6062 33.8403 28.2626 33.8403 28.2626C33.8403 28.2626 34.2915 27.9778 34.347 28.371Z" fill="#666666" stroke="#263238" stroke-linecap="round" stroke-linejoin="round"/>
<path d="M41.6622 20.2113C41.6622 20.2113 40.2556 21.1667 39.8044 21.7868C39.3532 22.4069 39.0734 22.7447 39.0734 22.7447" stroke="#263238" stroke-linecap="round" stroke-linejoin="round"/>
<path d="M40.3691 24.6579L41.6622 25.4999" stroke="#263238" stroke-linecap="round" stroke-linejoin="round"/>
<path d="M40.6489 23.5866C40.6489 23.5866 40.2556 23.3068 39.9733 23.4757" stroke="#263238" stroke-linecap="round" stroke-linejoin="round"/>
<path d="M57.5177 105.937C57.2405 106.182 56.938 106.452 56.6103 106.746C54.8457 108.334 52.1989 108.334 52.1989 108.334C52.1989 108.334 51.3167 104.364 50.258 104.099C49.1993 103.835 47.7876 104.099 47.7876 104.099C47.7876 104.099 46.0231 106.482 45.2291 107.276C44.435 108.07 42.4058 109.569 41.2589 110.364C40.1119 111.158 37.8181 112.128 37.7298 113.363C37.6416 114.598 37.9416 115.158 40.0615 115.778C42.0252 116.35 46.9054 115.922 49.111 115.657C51.3167 115.392 55.6398 112.922 56.3456 112.04C57.0514 111.158 57.5026 111.069 57.5026 108.599C57.5026 107.661 57.5026 106.734 57.5177 105.937Z" fill="white" stroke="#263238" stroke-linecap="round" stroke-linejoin="round"/>
<path d="M57.3312 109.736C55.3102 111.384 53.0344 112.691 50.5932 113.608C47.3415 114.848 43.1595 114.926 40.1371 114.384C38.5869 114.104 37.9769 113.643 37.75 113.26C37.7409 113.294 37.7341 113.328 37.7298 113.363C37.6416 114.598 37.9416 115.158 40.0615 115.778C42.0252 116.35 46.9054 115.922 49.111 115.657C51.3167 115.392 55.6398 112.922 56.3456 112.04C56.9354 111.304 57.3388 111.117 57.4572 109.648C57.4144 109.678 57.3741 109.703 57.3312 109.736Z" stroke="#263238" stroke-linecap="round" stroke-linejoin="round"/>
<path d="M42.668 109.57C42.668 109.57 41.637 109.915 42.1512 110.356C42.3882 110.558 44.735 111.939 45.3375 111.551C46.2626 110.956 42.668 109.57 42.668 109.57Z" stroke="#263238" stroke-linecap="round" stroke-linejoin="round"/>
<path d="M45.6374 110.82C45.6374 110.82 50.5151 107.412 51.1352 106.406" stroke="#263238" stroke-linecap="round" stroke-linejoin="round"/>
<path d="M46.4894 110.908C46.3838 110.908 46.2826 110.866 46.2071 110.792C44.6947 109.28 43.4343 109.423 43.3713 109.431C43.2673 109.447 43.1612 109.421 43.0764 109.359C42.9915 109.297 42.9348 109.203 42.9188 109.099C42.9027 108.995 42.9287 108.889 42.9908 108.804C43.053 108.72 43.1463 108.663 43.2503 108.647C43.3183 108.647 44.9442 108.395 46.7793 110.23C46.8164 110.267 46.8459 110.31 46.866 110.359C46.8861 110.407 46.8965 110.459 46.8965 110.511C46.8965 110.563 46.8861 110.615 46.866 110.663C46.8459 110.711 46.8164 110.755 46.7793 110.792C46.7411 110.83 46.6958 110.859 46.6461 110.879C46.5963 110.899 46.543 110.909 46.4894 110.908V110.908Z" fill="white" stroke="#263238" stroke-linecap="round" stroke-linejoin="round"/>
<path d="M47.8053 110.056C47.7502 110.056 47.6958 110.045 47.6454 110.023C47.5951 110.001 47.5499 109.968 47.5129 109.927C46.0407 108.314 44.3065 108.503 44.2913 108.503C44.2397 108.509 44.1873 108.506 44.1372 108.492C44.0871 108.478 44.0402 108.454 43.9993 108.422C43.9583 108.39 43.924 108.35 43.8985 108.305C43.8729 108.259 43.8565 108.209 43.8502 108.158C43.8439 108.106 43.8479 108.054 43.8618 108.004C43.8758 107.954 43.8995 107.907 43.9315 107.866C43.9636 107.825 44.0034 107.791 44.0487 107.765C44.094 107.739 44.1439 107.723 44.1956 107.717C44.2838 107.717 46.3533 107.48 48.0977 109.391C48.1504 109.447 48.1853 109.518 48.1983 109.594C48.2112 109.67 48.2015 109.749 48.1704 109.819C48.1393 109.89 48.0881 109.95 48.0233 109.992C47.9584 110.034 47.8826 110.057 47.8053 110.056V110.056Z" fill="white" stroke="#263238" stroke-linecap="round" stroke-linejoin="round"/>
<path d="M48.9673 109.204C48.9075 109.204 48.8485 109.191 48.7947 109.164C48.741 109.138 48.6939 109.1 48.6573 109.053C47.5431 107.656 45.713 107.54 45.398 107.636C45.3051 107.676 45.2005 107.679 45.1056 107.644C45.0106 107.61 44.9323 107.541 44.8865 107.45C44.8407 107.36 44.8308 107.256 44.8588 107.159C44.8868 107.062 44.9507 106.979 45.0375 106.928C45.529 106.655 47.8834 106.809 49.2774 108.559C49.3247 108.617 49.3545 108.687 49.3633 108.762C49.3721 108.836 49.3595 108.912 49.327 108.98C49.2945 109.047 49.2434 109.104 49.1797 109.144C49.116 109.184 49.0424 109.205 48.9673 109.204V109.204Z" fill="white" stroke="#263238" stroke-linecap="round" stroke-linejoin="round"/>
<path d="M49.8975 108.274C49.8421 108.274 49.7873 108.263 49.7365 108.241C49.6857 108.219 49.6401 108.186 49.6026 108.145C48.7573 107.213 47.5815 106.648 46.3256 106.57C46.2258 106.562 46.1326 106.517 46.0647 106.443C45.9967 106.369 45.959 106.273 45.959 106.173C45.959 106.073 45.9967 105.976 46.0647 105.903C46.1326 105.829 46.2258 105.784 46.3256 105.776C47.8031 105.854 49.1896 106.514 50.1823 107.611C50.2342 107.668 50.2685 107.738 50.2809 107.814C50.2934 107.89 50.2835 107.967 50.2525 108.038C50.2215 108.108 50.1707 108.168 50.1063 108.21C50.042 108.252 49.9668 108.274 49.8899 108.274H49.8975Z" fill="white" stroke="#263238" stroke-linecap="round" stroke-linejoin="round"/>
<path d="M50.9814 111.241C50.9123 111.237 50.8474 111.206 50.8004 111.156C50.7534 111.105 50.7279 111.038 50.7294 110.969L50.7445 110.27C50.7444 110.236 50.7513 110.202 50.7648 110.171C50.7782 110.139 50.7979 110.111 50.8227 110.087C50.8475 110.064 50.8768 110.046 50.9088 110.034C50.9409 110.022 50.975 110.016 51.0092 110.018C51.078 110.021 51.1429 110.051 51.19 110.102C51.2371 110.152 51.2626 110.219 51.2612 110.288L51.2461 110.989C51.2429 111.057 51.2136 111.121 51.1643 111.168C51.115 111.215 51.0495 111.241 50.9814 111.241Z" fill="white" stroke="#263238" stroke-linecap="round" stroke-linejoin="round"/>
<path d="M50.9965 110.671C50.8913 110.668 50.7915 110.624 50.7187 110.548C50.646 110.472 50.6063 110.37 50.6083 110.265L50.6688 107.558C50.6659 107.503 50.6743 107.448 50.6935 107.397C50.7127 107.346 50.7423 107.299 50.7804 107.259C50.8186 107.22 50.8645 107.189 50.9153 107.168C50.966 107.147 51.0205 107.137 51.0754 107.138C51.1302 107.139 51.1842 107.152 51.234 107.175C51.2838 107.198 51.3283 107.231 51.3647 107.272C51.401 107.313 51.4285 107.361 51.4454 107.414C51.4623 107.466 51.4683 107.521 51.4629 107.576L51.4024 110.283C51.3997 110.388 51.3556 110.488 51.2795 110.561C51.2035 110.633 51.1018 110.673 50.9965 110.671V110.671Z" fill="white" stroke="#263238" stroke-linecap="round" stroke-linejoin="round"/>
<path d="M48.932 113.197C49.0571 113.403 49.1354 113.635 49.1614 113.875" stroke="#263238" stroke-linecap="round" stroke-linejoin="round"/>
<path d="M39.8699 111.422C39.8699 111.422 39.2246 111.851 40.3438 112.325C41.4631 112.799 44.3922 112.499 46.3281 112.11C46.8962 111.975 47.4938 112.043 48.017 112.302" stroke="#263238" stroke-linecap="round" stroke-linejoin="round"/>
<path d="M56.1868 108.067C56.2855 107.869 56.401 107.68 56.5321 107.502" stroke="#263238" stroke-linecap="round" stroke-linejoin="round"/>
<path d="M55.5843 110.767C55.5884 110.057 55.7041 109.353 55.9271 108.68" stroke="#263238" stroke-linecap="round" stroke-linejoin="round"/>
<path d="M56.5977 37.7709C56.6796 37.2537 56.6063 36.7238 56.387 36.2483C56.1677 35.7728 55.8123 35.3731 55.3657 35.0996C54.9192 34.8261 54.4016 34.6913 53.8783 34.7121C53.3551 34.7329 52.8498 34.9084 52.4264 35.2165C52.003 35.5245 51.6804 35.9512 51.4996 36.4426C51.3187 36.9341 51.2877 37.4681 51.4104 37.9771C51.5331 38.4862 51.8041 38.9474 52.189 39.3024C52.5739 39.6574 53.0555 39.8903 53.5728 39.9715C54.2654 40.079 54.9725 39.9078 55.5393 39.4954C56.1062 39.0831 56.4867 38.463 56.5977 37.7709V37.7709Z" fill="#666666" stroke="#263238" stroke-linecap="round" stroke-linejoin="round"/>
<path d="M67.3335 40.5034L55.5894 39.4295L56.1616 35.8148L67.6562 38.4112C67.8093 38.4452 67.9437 38.5364 68.0318 38.6662C68.1199 38.796 68.155 38.9545 68.1301 39.1094L67.9915 39.9917C67.9655 40.1437 67.8836 40.2806 67.7618 40.3753C67.6401 40.47 67.4873 40.5157 67.3335 40.5034Z" fill="#263238" stroke="#263238" stroke-linecap="round" stroke-linejoin="round"/>
<path d="M56.7792 35.9484L56.1616 35.8097L55.5894 39.4245L56.2221 39.4825L56.7792 35.9484Z" fill="white" stroke="#263238" stroke-linecap="round" stroke-linejoin="round"/>
<path d="M53.2173 39.8858C53.3346 39.9224 53.4542 39.951 53.5753 39.9715H53.6484L54.4777 34.7561C54.4525 34.7561 54.4298 34.7561 54.4046 34.741C54.2834 34.7243 54.1614 34.715 54.0391 34.7132L53.2173 39.8858Z" fill="white" stroke="#263238" stroke-linecap="round" stroke-linejoin="round"/>
</svg>
