<svg width="128" height="122" viewBox="0 0 128 122" fill="none" xmlns="http://www.w3.org/2000/svg">
<path opacity="0.4" d="M121.364 97.0478V97.2567C113.014 110.315 95.3009 119.329 64.3518 119.329C35.5782 119.329 18.1228 111.538 8.9371 99.9475V95.0813H12.2576V98.2529H14.2184V101.877H18.1657V95.0841H20.6704V89.7227H25.0013V82.4005L25.737 81.6677V89.7256H27.2312V98.4075H28.9744V108.372H31.2816V101.276L35.0028 97.5544V90.4812L36.039 91.5146V101.576L37.2785 102.819V106.254H41.6438V102.332H40.0694V101.276H41.6466V99.7643H45.7772V95.0211H46.8363V99.7643H48.6568V110.032H53.5832V106.259L56.4456 103.397H58.7614V98.104H60.1068V103.388H61.7613L64.6438 106.274V110.032H68.4366V103.088H71.9288L75.9363 99.0801V93.5555H77.0669V99.4551L80.6822 103.07H85.5742V107.155H88.5369V98.5563H92.2953V88.3344H91.5969V84.3813H92.2953V81.6677H93.4031V90.8648L94.9918 92.4506V98.8597H98.8418V100.52H103.136V93.2006H105.096V85.7582H105.746V93.2006H108.448L111.631 96.4209V99.1603H114.328V94.7836H118.702V97.0478H121.364Z" fill="#F1D54B"/>
<path d="M23.5673 90.6444H21.7839V92.4277H23.5673V90.6444Z" fill="white"/>
<path d="M25.8143 90.6444H24.031V92.4277H25.8143V90.6444Z" fill="white"/>
<path d="M23.5673 92.923H21.7839V94.7063H23.5673V92.923Z" fill="white"/>
<path d="M25.8143 92.923H24.031V94.7063H25.8143V92.923Z" fill="white"/>
<path d="M23.5673 95.1986H21.7839V96.9819H23.5673V95.1986Z" fill="white"/>
<path d="M25.8143 95.1986H24.031V96.9819H25.8143V95.1986Z" fill="white"/>
<path d="M23.5673 97.4772H21.7839V99.2605H23.5673V97.4772Z" fill="white"/>
<path d="M25.8143 97.4772H24.031V99.2605H25.8143V97.4772Z" fill="white"/>
<path d="M23.5673 99.7557H21.7839V101.539H23.5673V99.7557Z" fill="white"/>
<path d="M25.8143 99.7557H24.031V101.539H25.8143V99.7557Z" fill="white"/>
<path d="M23.5673 102.034H21.7839V103.818H23.5673V102.034Z" fill="white"/>
<path d="M23.5673 104.313H21.7839V106.096H23.5673V104.313Z" fill="white"/>
<path d="M25.8143 104.313H24.031V106.096H25.8143V104.313Z" fill="white"/>
<path d="M23.5673 106.591H21.7839V108.375H23.5673V106.591Z" fill="white"/>
<path d="M25.8143 106.591H24.031V108.375H25.8143V106.591Z" fill="white"/>
<path d="M23.5673 108.87H21.7839V110.653H23.5673V108.87Z" fill="white"/>
<path d="M25.8143 108.87H24.031V110.653H25.8143V108.87Z" fill="white"/>
<path d="M28.0585 99.7557H26.2751V101.539H28.0585V99.7557Z" fill="white"/>
<path d="M28.0585 102.034H26.2751V103.818H28.0585V102.034Z" fill="white"/>
<path d="M28.0585 104.313H26.2751V106.096H28.0585V104.313Z" fill="white"/>
<path d="M28.0585 108.87H26.2751V110.653H28.0585V108.87Z" fill="white"/>
<path d="M21.3202 97.4772H19.5368V99.2605H21.3202V97.4772Z" fill="white"/>
<path d="M21.3202 99.7557H19.5368V101.539H21.3202V99.7557Z" fill="white"/>
<path d="M21.3202 102.034H19.5368V103.818H21.3202V102.034Z" fill="white"/>
<path d="M21.3202 104.313H19.5368V106.096H21.3202V104.313Z" fill="white"/>
<path d="M35.4322 99.2061H34.0038V100.989H35.4322V99.2061Z" fill="white"/>
<path d="M35.4322 101.459H34.0038V103.242H35.4322V101.459Z" fill="white"/>
<path d="M35.4322 103.709H34.0038V105.492H35.4322V103.709Z" fill="white"/>
<path d="M35.4322 105.959H34.0038V107.742H35.4322V105.959Z" fill="white"/>
<path d="M35.4322 108.209H34.0038V109.992H35.4322V108.209Z" fill="white"/>
<path d="M35.4322 110.459H34.0038V112.242H35.4322V110.459Z" fill="white"/>
<path d="M33.5602 101.47H32.1318V103.254H33.5602V101.47Z" fill="white"/>
<path d="M33.5602 103.72H32.1318V105.504H33.5602V103.72Z" fill="white"/>
<path d="M33.5602 105.967H32.1318V107.751H33.5602V105.967Z" fill="white"/>
<path d="M33.5602 108.217H32.1318V110H33.5602V108.217Z" fill="white"/>
<path d="M33.5602 110.464H32.1318V112.248H33.5602V110.464Z" fill="white"/>
<path d="M33.5602 112.714H32.1318V114.497H33.5602V112.714Z" fill="white"/>
<path d="M13.1621 99.4551H11.7338V101.238H13.1621V99.4551Z" fill="white"/>
<path d="M13.1621 101.734H11.7338V103.517H13.1621V101.734Z" fill="white"/>
<path d="M13.1621 104.012H11.7338V105.796H13.1621V104.012Z" fill="white"/>
<path d="M13.1621 108.566H11.7338V110.35H13.1621V108.566Z" fill="white"/>
<path d="M13.1621 110.845H11.7338V112.628H13.1621V110.845Z" fill="white"/>
<path d="M11.2901 99.4551H9.86169V101.238H11.2901V99.4551Z" fill="white"/>
<path d="M11.2901 101.734H9.86169V103.517H11.2901V101.734Z" fill="white"/>
<path d="M11.2901 104.012H9.86169V105.796H11.2901V104.012Z" fill="white"/>
<path d="M11.2901 106.288H9.86169V108.071H11.2901V106.288Z" fill="white"/>
<path d="M11.2901 108.566H9.86169V110.35H11.2901V108.566Z" fill="white"/>
<path d="M45.8946 100.626H44.3374V102.409H45.8946V100.626Z" fill="white"/>
<path d="M47.8554 100.626H46.2982V102.409H47.8554V100.626Z" fill="white"/>
<path d="M45.8946 102.873H44.3374V104.656H45.8946V102.873Z" fill="white"/>
<path d="M47.8554 102.873H46.2982V104.656H47.8554V102.873Z" fill="white"/>
<path d="M45.8946 105.12H44.3374V106.903H45.8946V105.12Z" fill="white"/>
<path d="M47.8554 105.12H46.2982V106.903H47.8554V105.12Z" fill="white"/>
<path d="M45.8946 107.367H44.3374V109.15H45.8946V107.367Z" fill="white"/>
<path d="M47.8554 107.367H46.2982V109.15H47.8554V107.367Z" fill="white"/>
<path d="M45.8946 109.614H44.3374V111.397H45.8946V109.614Z" fill="white"/>
<path d="M47.8554 109.614H46.2982V111.397H47.8554V109.614Z" fill="white"/>
<path d="M45.8946 111.861H44.3374V113.644H45.8946V111.861Z" fill="white"/>
<path d="M47.8554 111.861H46.2982V113.644H47.8554V111.861Z" fill="white"/>
<path d="M43.9366 100.626H42.3795V102.409H43.9366V100.626Z" fill="white"/>
<path d="M43.9366 102.873H42.3795V104.656H43.9366V102.873Z" fill="white"/>
<path d="M43.9366 105.12H42.3795V106.903H43.9366V105.12Z" fill="white"/>
<path d="M43.9366 107.367H42.3795V109.15H43.9366V107.367Z" fill="white"/>
<path d="M58.9675 106.282H57.1841V108.065H58.9675V106.282Z" fill="white"/>
<path d="M61.2145 106.282H59.4312V108.065H61.2145V106.282Z" fill="white"/>
<path d="M58.9675 108.518H57.1841V110.301H58.9675V108.518Z" fill="white"/>
<path d="M61.2145 108.518H59.4312V110.301H61.2145V108.518Z" fill="white"/>
<path d="M58.9675 110.753H57.1841V112.537H58.9675V110.753Z" fill="white"/>
<path d="M61.2145 110.753H59.4312V112.537H61.2145V110.753Z" fill="white"/>
<path d="M58.9675 112.986H57.1841V114.769H58.9675V112.986Z" fill="white"/>
<path d="M61.2145 112.986H59.4312V114.769H61.2145V112.986Z" fill="white"/>
<path d="M58.9675 115.222H57.1841V117.005H58.9675V115.222Z" fill="white"/>
<path d="M61.2145 115.222H59.4312V117.005H61.2145V115.222Z" fill="white"/>
<path d="M63.4587 106.282H61.6754V108.065H63.4587V106.282Z" fill="white"/>
<path d="M63.4587 108.518H61.6754V110.301H63.4587V108.518Z" fill="white"/>
<path d="M63.4587 112.986H61.6754V114.769H63.4587V112.986Z" fill="white"/>
<path d="M63.4587 115.222H61.6754V117.005H63.4587V115.222Z" fill="white"/>
<path d="M56.7233 106.282H54.94V108.065H56.7233V106.282Z" fill="white"/>
<path d="M56.7233 108.518H54.94V110.301H56.7233V108.518Z" fill="white"/>
<path d="M56.7233 110.753H54.94V112.537H56.7233V110.753Z" fill="white"/>
<path d="M93.5434 99.7557H91.76V101.539H93.5434V99.7557Z" fill="white"/>
<path d="M95.7904 99.7557H94.0071V101.539H95.7904V99.7557Z" fill="white"/>
<path d="M93.5434 102.04H91.76V103.823H93.5434V102.04Z" fill="white"/>
<path d="M95.7904 102.04H94.0071V103.823H95.7904V102.04Z" fill="white"/>
<path d="M93.5434 104.321H91.76V106.105H93.5434V104.321Z" fill="white"/>
<path d="M95.7904 104.321H94.0071V106.105H95.7904V104.321Z" fill="white"/>
<path d="M93.5434 106.606H91.76V108.389H93.5434V106.606Z" fill="white"/>
<path d="M95.7904 106.606H94.0071V108.389H95.7904V106.606Z" fill="white"/>
<path d="M93.5434 108.89H91.76V110.673H93.5434V108.89Z" fill="white"/>
<path d="M95.7904 108.89H94.0071V110.673H95.7904V108.89Z" fill="white"/>
<path d="M98.0374 99.7557H96.2541V101.539H98.0374V99.7557Z" fill="white"/>
<path d="M98.0374 102.04H96.2541V103.823H98.0374V102.04Z" fill="white"/>
<path d="M98.0374 108.89H96.2541V110.673H98.0374V108.89Z" fill="white"/>
<path d="M106.001 96.6757H104.218V98.459H106.001V96.6757Z" fill="white"/>
<path d="M108.248 96.6757H106.465V98.459H108.248V96.6757Z" fill="white"/>
<path d="M106.001 98.9599H104.218V100.743H106.001V98.9599Z" fill="white"/>
<path d="M108.248 98.9599H106.465V100.743H108.248V98.9599Z" fill="white"/>
<path d="M106.001 101.241H104.218V103.025H106.001V101.241Z" fill="white"/>
<path d="M108.248 101.241H106.465V103.025H108.248V101.241Z" fill="white"/>
<path d="M106.001 103.526H104.218V105.309H106.001V103.526Z" fill="white"/>
<path d="M108.248 103.526H106.465V105.309H108.248V103.526Z" fill="white"/>
<path d="M106.001 105.81H104.218V107.593H106.001V105.81Z" fill="white"/>
<path d="M108.248 105.81H106.465V107.593H108.248V105.81Z" fill="white"/>
<path d="M110.492 96.6757H108.709V98.459H110.492V96.6757Z" fill="white"/>
<path d="M110.492 98.9599H108.709V100.743H110.492V98.9599Z" fill="white"/>
<path d="M110.492 101.241H108.709V103.025H110.492V101.241Z" fill="white"/>
<path d="M110.492 103.526H108.709V105.309H110.492V103.526Z" fill="white"/>
<path d="M110.492 105.81H108.709V107.593H110.492V105.81Z" fill="white"/>
<path d="M116.581 97.8521H115.083V99.6355H116.581V97.8521Z" fill="white"/>
<path d="M118.541 97.8521H117.044V99.6355H118.541V97.8521Z" fill="white"/>
<path d="M116.581 100.131H115.083V101.914H116.581V100.131Z" fill="white"/>
<path d="M118.541 100.131H117.044V101.914H118.541V100.131Z" fill="white"/>
<path d="M116.581 102.409H115.083V104.193H116.581V102.409Z" fill="white"/>
<path d="M118.541 102.409H117.044V104.193H118.541V102.409Z" fill="white"/>
<path d="M118.541 104.688H117.044V106.471H118.541V104.688Z" fill="white"/>
<path d="M116.581 106.966H115.083V108.75H116.581V106.966Z" fill="white"/>
<path d="M120.502 97.8521H119.005V99.6355H120.502V97.8521Z" fill="white"/>
<path d="M120.502 104.688H119.005V106.471H120.502V104.688Z" fill="white"/>
<path d="M91.2992 99.7557H89.5158V101.539H91.2992V99.7557Z" fill="white"/>
<path d="M91.2992 102.04H89.5158V103.823H91.2992V102.04Z" fill="white"/>
<path d="M91.2992 104.321H89.5158V106.105H91.2992V104.321Z" fill="white"/>
<path d="M91.2992 106.606H89.5158V108.389H91.2992V106.606Z" fill="white"/>
<path d="M80.1241 106.574H78.3408V108.357H80.1241V106.574Z" fill="white"/>
<path d="M77.9371 106.574H76.1538V108.357H77.9371V106.574Z" fill="white"/>
<path d="M75.7531 106.574H73.9697V108.357H75.7531V106.574Z" fill="white"/>
<path d="M73.5661 106.574H71.7828V108.357H73.5661V106.574Z" fill="white"/>
<path d="M71.3792 106.574H69.5959V108.357H71.3792V106.574Z" fill="white"/>
<path d="M82.311 106.574H80.5277V108.357H82.311V106.574Z" fill="white"/>
<path d="M84.4979 106.574H82.7146V108.357H84.4979V106.574Z" fill="white"/>
<path d="M80.1241 108.847H78.3408V110.63H80.1241V108.847Z" fill="white"/>
<path d="M77.9371 108.847H76.1538V110.63H77.9371V108.847Z" fill="white"/>
<path d="M75.7531 108.847H73.9697V110.63H75.7531V108.847Z" fill="white"/>
<path d="M73.5661 108.847H71.7828V110.63H73.5661V108.847Z" fill="white"/>
<path d="M71.3792 108.847H69.5959V110.63H71.3792V108.847Z" fill="white"/>
<path d="M82.311 108.847H80.5277V110.63H82.311V108.847Z" fill="white"/>
<path d="M84.4979 108.847H82.7146V110.63H84.4979V108.847Z" fill="white"/>
<path d="M80.1241 111.123H78.3408V112.906H80.1241V111.123Z" fill="white"/>
<path d="M77.9371 111.123H76.1538V112.906H77.9371V111.123Z" fill="white"/>
<path d="M75.7531 111.123H73.9697V112.906H75.7531V111.123Z" fill="white"/>
<path d="M73.5661 111.123H71.7828V112.906H73.5661V111.123Z" fill="white"/>
<path d="M82.311 111.123H80.5277V112.906H82.311V111.123Z" fill="white"/>
<path d="M80.1241 113.395H78.3408V115.179H80.1241V113.395Z" fill="white"/>
<path d="M77.9371 113.395H76.1538V115.179H77.9371V113.395Z" fill="white"/>
<path d="M73.5661 113.395H71.7828V115.179H73.5661V113.395Z" fill="white"/>
<path d="M82.311 113.395H80.5277V115.179H82.311V113.395Z" fill="white"/>
<path d="M80.1241 115.668H78.3408V117.452H80.1241V115.668Z" fill="white"/>
<path d="M77.9371 115.668H76.1538V117.452H77.9371V115.668Z" fill="white"/>
<path d="M75.7531 115.668H73.9697V117.452H75.7531V115.668Z" fill="white"/>
<path d="M73.5661 115.668H71.7828V117.452H73.5661V115.668Z" fill="white"/>
<path d="M71.3792 115.668H69.5959V117.452H71.3792V115.668Z" fill="white"/>
<path d="M82.311 115.668H80.5277V117.452H82.311V115.668Z" fill="white"/>
<path d="M84.4979 115.668H82.7146V117.452H84.4979V115.668Z" fill="white"/>
<path d="M80.1241 117.941H78.3408V119.724H80.1241V117.941Z" fill="white"/>
<path d="M75.7531 117.941H73.9697V119.724H75.7531V117.941Z" fill="white"/>
<path d="M73.5661 117.941H71.7828V119.724H73.5661V117.941Z" fill="white"/>
<path d="M71.3792 117.941H69.5959V119.724H71.3792V117.941Z" fill="white"/>
<path d="M80.1241 120.217H78.3408V122H80.1241V120.217Z" fill="white"/>
<path d="M73.5661 120.217H71.7828V122H73.5661V120.217Z" fill="white"/>
<path d="M84.4979 120.217H82.7146V122H84.4979V120.217Z" fill="white"/>
<path d="M80.1241 104.301H78.3408V106.085H80.1241V104.301Z" fill="white"/>
<path d="M77.9371 104.301H76.1538V106.085H77.9371V104.301Z" fill="white"/>
<path d="M75.7531 104.301H73.9697V106.085H75.7531V104.301Z" fill="white"/>
<path d="M73.5661 104.301H71.7828V106.085H73.5661V104.301Z" fill="white"/>
<path d="M71.3792 104.301H69.5959V106.085H71.3792V104.301Z" fill="white"/>
<path d="M82.311 104.301H80.5277V106.085H82.311V104.301Z" fill="white"/>
<path d="M84.4979 104.301H82.7146V106.085H84.4979V104.301Z" fill="white"/>
<path d="M108.248 108.091H106.465V109.875H108.248V108.091Z" fill="white"/>
<path d="M108.248 110.375H106.465V112.159H108.248V110.375Z" fill="white"/>
<path d="M106.001 112.657H104.218V114.44H106.001V112.657Z" fill="white"/>
<path d="M110.492 108.091H108.709V109.875H110.492V108.091Z" fill="white"/>
<path d="M110.492 110.375H108.709V112.159H110.492V110.375Z" fill="white"/>
<path d="M95.7904 111.171H94.0071V112.955H95.7904V111.171Z" fill="white"/>
<path d="M93.5434 113.456H91.76V115.239H93.5434V113.456Z" fill="white"/>
<path d="M95.7904 113.456H94.0071V115.239H95.7904V113.456Z" fill="white"/>
<path d="M93.5434 115.74H91.76V117.523H93.5434V115.74Z" fill="white"/>
<path d="M95.7904 115.74H94.0071V117.523H95.7904V115.74Z" fill="white"/>
<path d="M98.0374 111.171H96.2541V112.955H98.0374V111.171Z" fill="white"/>
<path d="M98.0374 113.456H96.2541V115.239H98.0374V113.456Z" fill="white"/>
<path d="M91.2992 111.171H89.5158V112.955H91.2992V111.171Z" fill="white"/>
<path d="M58.9675 117.454H57.1841V119.238H58.9675V117.454Z" fill="white"/>
<path d="M61.2145 117.454H59.4312V119.238H61.2145V117.454Z" fill="white"/>
<path d="M58.9675 119.69H57.1841V121.473H58.9675V119.69Z" fill="white"/>
<path d="M56.7233 117.454H54.94V119.238H56.7233V117.454Z" fill="white"/>
<path d="M45.8946 114.108H44.3374V115.891H45.8946V114.108Z" fill="white"/>
<path d="M47.8554 114.108H46.2982V115.891H47.8554V114.108Z" fill="white"/>
<path d="M47.8554 116.355H46.2982V118.139H47.8554V116.355Z" fill="white"/>
<path d="M43.9366 114.108H42.3795V115.891H43.9366V114.108Z" fill="white"/>
<path d="M43.9366 118.602H42.3795V120.386H43.9366V118.602Z" fill="white"/>
<path d="M35.4322 117.208H34.0038V118.992H35.4322V117.208Z" fill="white"/>
<path d="M35.4322 119.461H34.0038V121.244H35.4322V119.461Z" fill="white"/>
<path d="M33.5602 114.964H32.1318V116.747H33.5602V114.964Z" fill="white"/>
<path d="M33.5602 117.211H32.1318V118.994H33.5602V117.211Z" fill="white"/>
<path d="M25.8143 111.171H24.031V112.955H25.8143V111.171Z" fill="white"/>
<path d="M23.5673 113.45H21.7839V115.233H23.5673V113.45Z" fill="white"/>
<path d="M64.3547 12.7879C64.3547 12.4358 64.3547 12.0837 64.3404 11.7316" stroke="#263238" stroke-linecap="round" stroke-linejoin="round"/>
<path d="M64.3404 23.3161C64.3728 21.154 64.3862 18.9918 64.3805 16.8297" stroke="#263238" stroke-linecap="round" stroke-linejoin="round"/>
<path d="M64.3404 29.064V27.232" stroke="#263238" stroke-linecap="round" stroke-linejoin="round"/>
<path d="M79.0821 15.6504C79.3684 15.0178 79.6546 14.388 79.9666 13.7669" stroke="#263238" stroke-linecap="round" stroke-linejoin="round"/>
<path d="M74.9602 25.4458C76.1367 22.8981 77.1271 20.2733 78.2062 17.6856" stroke="#263238" stroke-linecap="round" stroke-linejoin="round"/>
<path d="M72.633 30.8759C73.1387 29.6927 73.6444 28.5124 74.1501 27.335" stroke="#263238" stroke-linecap="round" stroke-linejoin="round"/>
<path d="M70.5376 29.0639L73.5948 18.2008" stroke="#263238" stroke-linecap="round" stroke-linejoin="round"/>
<path d="M52.9821 20.3076C54.024 23.5594 54.9085 26.8713 55.9619 30.0715" stroke="#263238" stroke-linecap="round" stroke-linejoin="round"/>
<path d="M50.9869 13.7669C51.4545 15.2935 51.9201 16.8202 52.3838 18.3468" stroke="#263238" stroke-linecap="round" stroke-linejoin="round"/>
<path d="M53.4372 29.9227L53.8666 30.8759" stroke="#263238" stroke-linecap="round" stroke-linejoin="round"/>
<path d="M50.4631 23.3161L52.6329 28.1336" stroke="#263238" stroke-linecap="round" stroke-linejoin="round"/>
<path d="M38.2489 34.9464C39.3538 36.223 40.4501 37.5083 41.5179 38.8193" stroke="#263238" stroke-linecap="round" stroke-linejoin="round"/>
<path d="M33.314 29.1097C34.459 30.561 35.6813 31.9722 36.895 33.3806" stroke="#263238" stroke-linecap="round" stroke-linejoin="round"/>
<path d="M31.0412 26.4247L31.8999 27.4524" stroke="#263238" stroke-linecap="round" stroke-linejoin="round"/>
<path d="M33.8779 34.746L39.7259 40.3908" stroke="#263238" stroke-linecap="round" stroke-linejoin="round"/>
<path d="M34.499 53.2891L36.2795 53.7442" stroke="#263238" stroke-linecap="round" stroke-linejoin="round"/>
<path d="M21.7639 50.0344L32.6957 52.8397" stroke="#263238" stroke-linecap="round" stroke-linejoin="round"/>
<path d="M18.515 49.2043L19.6972 49.5078" stroke="#263238" stroke-linecap="round" stroke-linejoin="round"/>
<path d="M32.1203 49.5936L36.2795 51.4743" stroke="#263238" stroke-linecap="round" stroke-linejoin="round"/>
<path d="M27.3972 47.4611L30.2597 48.7549" stroke="#263238" stroke-linecap="round" stroke-linejoin="round"/>
<path d="M99.941 27.6871L100.654 27.0974" stroke="#263238" stroke-linecap="round" stroke-linejoin="round"/>
<path d="M96.6205 30.4408L98.2808 29.0639" stroke="#263238" stroke-linecap="round" stroke-linejoin="round"/>
<path d="M89.7878 36.1028L94.9689 31.8091" stroke="#263238" stroke-linecap="round" stroke-linejoin="round"/>
<path d="M85.5514 39.6122L88.2192 37.4023" stroke="#263238" stroke-linecap="round" stroke-linejoin="round"/>
<path d="M86.1639 26.4247L80.4017 34.3681" stroke="#263238" stroke-linecap="round" stroke-linejoin="round"/>
<path d="M109.004 44.6959L110.255 44.3181" stroke="#263238" stroke-linecap="round" stroke-linejoin="round"/>
<path d="M97.3591 48.2225C100.619 47.2693 103.891 46.3533 107.112 45.2713" stroke="#263238" stroke-linecap="round" stroke-linejoin="round"/>
<path d="M91.574 49.9915C92.822 49.5822 94.0786 49.1957 95.3381 48.8179" stroke="#263238" stroke-linecap="round" stroke-linejoin="round"/>
<path d="M92.2724 53.1345L102.921 51.7433" stroke="#263238" stroke-linecap="round" stroke-linejoin="round"/>
<path d="M107.624 71.6175L109.21 72.127" stroke="#263238" stroke-linecap="round" stroke-linejoin="round"/>
<path d="M91.9232 66.5796C96.6091 67.9049 101.02 69.6682 105.712 70.9992" stroke="#263238" stroke-linecap="round" stroke-linejoin="round"/>
<path d="M99.2054 65.7208L105.454 66.5796" stroke="#263238" stroke-linecap="round" stroke-linejoin="round"/>
<path d="M92.2724 64.7476L97.09 65.4346" stroke="#263238" stroke-linecap="round" stroke-linejoin="round"/>
<path d="M96.7666 91.0566L97.5709 92.0613" stroke="#263238" stroke-linecap="round" stroke-linejoin="round"/>
<path d="M85.5514 77.0333C88.8862 81.1467 92.1952 85.3345 95.5701 89.5509" stroke="#263238" stroke-linecap="round" stroke-linejoin="round"/>
<path d="M90.4805 79.2689C91.448 80.2116 92.4146 81.1543 93.3802 82.0971" stroke="#263238" stroke-linecap="round" stroke-linejoin="round"/>
<path d="M86.8624 75.7395L89.2726 78.0896" stroke="#263238" stroke-linecap="round" stroke-linejoin="round"/>
<path d="M34.9513 91.2112L34.3159 92.0871" stroke="#263238" stroke-linecap="round" stroke-linejoin="round"/>
<path d="M38.8729 85.8412C37.9741 87.1035 37.0638 88.3602 36.1278 89.5968" stroke="#263238" stroke-linecap="round" stroke-linejoin="round"/>
<path d="M44.3632 78.2957C42.8775 80.205 41.4749 82.1801 40.0695 84.1552" stroke="#263238" stroke-linecap="round" stroke-linejoin="round"/>
<path d="M39.2336 79.8328L35.9733 82.764" stroke="#263238" stroke-linecap="round" stroke-linejoin="round"/>
<path d="M42.6056 76.8015L40.6791 78.5333" stroke="#263238" stroke-linecap="round" stroke-linejoin="round"/>
<path d="M25.8659 72.9429L22.096 74.8235" stroke="#263238" stroke-linecap="round" stroke-linejoin="round"/>
<path d="M37.2069 67.2952C34.1784 68.7923 30.8694 70.3351 27.6749 72.0469" stroke="#263238" stroke-linecap="round" stroke-linejoin="round"/>
<path d="M36.2795 62.7124L28.0299 64.1522" stroke="#263238" stroke-linecap="round" stroke-linejoin="round"/>
<path d="M88.514 44.3181L93.3803 41.3497" stroke="#263238" stroke-linecap="round" stroke-linejoin="round"/>
<path d="M44.0025 29.6536L46.9709 34.3681" stroke="#263238" stroke-linecap="round" stroke-linejoin="round"/>
<path d="M82.9322 84.2869L84.767 88.1913" stroke="#263238" stroke-linecap="round" stroke-linejoin="round"/>
<path d="M81.3635 80.9406C81.6183 81.4845 81.8759 82.0312 82.1307 82.578" stroke="#263238" stroke-linecap="round" stroke-linejoin="round"/>
<path d="M98.4869 74.6088L99.5174 75.2157" stroke="#263238" stroke-linecap="round" stroke-linejoin="round"/>
<path d="M90.9471 70.1577L96.7293 73.5697" stroke="#263238" stroke-linecap="round" stroke-linejoin="round"/>
<path d="M105.062 60.159H107.81" stroke="#263238" stroke-linecap="round" stroke-linejoin="round"/>
<path d="M93.1025 60.159C96.3887 60.1877 99.6862 60.1877 103.101 60.159" stroke="#263238" stroke-linecap="round" stroke-linejoin="round"/>
<path d="M23.1808 60.2821L18.1686 60.3651" stroke="#263238" stroke-linecap="round" stroke-linejoin="round"/>
<path d="M32.9476 60.1361C30.2998 60.1905 27.652 60.202 25.0014 60.2363" stroke="#263238" stroke-linecap="round" stroke-linejoin="round"/>
<path d="M35.9732 60.056L34.9027 60.0903" stroke="#263238" stroke-linecap="round" stroke-linejoin="round"/>
<path d="M31.1958 39.7066L27.0767 37.0645" stroke="#263238" stroke-linecap="round" stroke-linejoin="round"/>
<path d="M38.3892 44.3181L32.9877 40.8573" stroke="#263238" stroke-linecap="round" stroke-linejoin="round"/>
<path d="M63.3786 33.2489C49.9564 33.4378 39.0475 44.444 38.9502 57.8662C38.9215 61.5971 39.7373 65.2861 41.3365 68.657C42.9357 72.0279 45.2768 74.9932 48.1846 77.331C49.1991 78.1623 49.9508 79.27 50.3486 80.5198L51.4936 84.0607H75.962L77.1328 80.4483C77.5229 79.2351 78.2567 78.1611 79.2453 77.3568C83.2696 74.125 86.1844 69.7173 87.5827 64.749C88.9811 59.7807 88.7932 54.4997 87.0452 49.6433C85.2973 44.7869 82.0766 40.5975 77.8327 37.66C73.5889 34.7224 68.5337 33.1833 63.3729 33.2575L63.3786 33.2489Z" fill="white"/>
<path d="M57.7023 82.0112C57.7166 82.6324 57.7023 82.9844 57.7023 82.9844" stroke="#263238" stroke-linecap="round" stroke-linejoin="round"/>
<path d="M57.1012 74.4285C57.4075 76.6784 57.5621 78.7365 57.6393 80.2708" stroke="#263238" stroke-linecap="round" stroke-linejoin="round"/>
<path d="M54.8942 61.8479H53.1538C54.9543 64.5758 56.042 68.3343 56.7004 71.9295" stroke="#263238" stroke-linecap="round" stroke-linejoin="round"/>
<path d="M58.3578 61.1351L58.1546 61.8479H55.481" stroke="#263238" stroke-linecap="round" stroke-linejoin="round"/>
<path d="M60.2699 63.1589L60.0381 63.9432L58.7013 59.9272L58.4895 60.6686" stroke="#263238" stroke-linecap="round" stroke-linejoin="round"/>
<path d="M63.0322 62.2114L62.5027 63.9432L61.2174 59.9272L60.5276 62.2801" stroke="#263238" stroke-linecap="round" stroke-linejoin="round"/>
<path d="M66.785 61.7563L66.2497 59.9272L64.9644 63.9432L63.7336 59.9272L63.3729 61.1037" stroke="#263238" stroke-linecap="round" stroke-linejoin="round"/>
<path d="M70.1026 61.8479H69.3097L68.7658 59.9272L67.4262 63.9432L67.0054 62.5034" stroke="#263238" stroke-linecap="round" stroke-linejoin="round"/>
<path d="M71.1416 70.0747C71.8172 67.0776 72.819 64.1064 74.3104 61.8479H70.9327" stroke="#263238" stroke-linecap="round" stroke-linejoin="round"/>
<path d="M70.4117 74.0564C70.5491 73.0917 70.718 72.0927 70.9184 71.0909" stroke="#263238" stroke-linecap="round" stroke-linejoin="round"/>
<path d="M69.9165 78.7795C69.988 77.7719 70.0911 76.6355 70.2371 75.4218" stroke="#263238" stroke-linecap="round" stroke-linejoin="round"/>
<path d="M69.7963 80.9407C69.7963 80.6773 69.8221 80.3911 69.8364 80.0819" stroke="#263238" stroke-linecap="round" stroke-linejoin="round"/>
<path d="M69.7534 82.9845C69.7534 82.9845 69.7534 82.515 69.7705 81.7049" stroke="#263238" stroke-linecap="round" stroke-linejoin="round"/>
<path opacity="0.2" d="M63.3786 33.2489C49.9564 33.4378 39.0475 44.444 38.9502 57.8662C38.9215 61.5971 39.7373 65.2861 41.3365 68.657C42.9357 72.0279 45.2768 74.9932 48.1846 77.331C49.1991 78.1623 49.9508 79.27 50.3486 80.5198L51.4936 84.0607H75.962L77.1328 80.4483C77.5229 79.2351 78.2567 78.1611 79.2453 77.3568C83.2696 74.125 86.1844 69.7173 87.5827 64.749C88.9811 59.7807 88.7932 54.4997 87.0452 49.6433C85.2973 44.7869 82.0766 40.5975 77.8327 37.66C73.5889 34.7224 68.5337 33.1833 63.3729 33.2575L63.3786 33.2489ZM63.7335 73.8102C59.9808 73.8108 56.3121 72.6984 53.1916 70.6137C50.0711 68.5291 47.6389 65.5659 46.2026 62.0988C44.7664 58.6318 44.3906 54.8166 45.1228 51.136C45.855 47.4553 47.6623 44.0745 50.3161 41.4211C52.9699 38.7677 56.351 36.9609 60.0318 36.2293C63.7125 35.4976 67.5276 35.874 70.9944 37.3108C74.4613 38.7475 77.4241 41.1802 79.5083 44.301C81.5925 47.4218 82.7043 51.0906 82.7032 54.8434C82.7024 59.874 80.7035 64.6983 77.1461 68.2551C73.5887 71.812 68.7641 73.8102 63.7335 73.8102V73.8102Z" fill="#F1D54B"/>
<path d="M63.3786 33.2489C49.9564 33.4378 39.0475 44.444 38.9502 57.8662C38.9215 61.5971 39.7373 65.2861 41.3365 68.657C42.9357 72.0279 45.2768 74.9932 48.1846 77.331C49.1991 78.1623 49.9508 79.27 50.3486 80.5198L51.4936 84.0607H75.962L77.1328 80.4483C77.5229 79.2351 78.2567 78.1611 79.2453 77.3568C83.2696 74.125 86.1844 69.7173 87.5827 64.749C88.9811 59.7807 88.7932 54.4997 87.0452 49.6433C85.2973 44.7869 82.0766 40.5975 77.8327 37.66C73.5889 34.7224 68.5337 33.1833 63.3729 33.2575L63.3786 33.2489Z" stroke="#263238" stroke-linecap="round" stroke-linejoin="round"/>
<path d="M66.5989 107.877H60.8739C60.7319 107.877 60.5925 107.839 60.4697 107.768C60.347 107.696 60.2455 107.594 60.1755 107.47L59.3167 105.959L56.0049 104.038H71.4994L68.1904 105.959L67.3317 107.47C67.2582 107.598 67.1511 107.704 67.0219 107.775C66.8928 107.847 66.7465 107.882 66.5989 107.877V107.877Z" fill="#263238" stroke="#263238" stroke-linecap="round" stroke-linejoin="round"/>
<path d="M73.0051 102.899H54.462C54.7904 103.584 55.3055 104.162 55.9482 104.567C56.5908 104.972 57.3348 105.188 58.0945 105.189H69.3698C70.1298 105.188 70.8741 104.972 71.5172 104.567C72.1603 104.162 72.676 103.584 73.0051 102.899V102.899Z" fill="#757575" stroke="#263238" stroke-linecap="round" stroke-linejoin="round"/>
<path d="M73.0051 102.899H54.462L52.255 87.1837H75.2121L73.0051 102.899Z" fill="#999999"/>
<path opacity="0.4" d="M55.4123 97.7291L55.6156 99.5296L71.9918 98.2615L72.2008 96.3952L55.4123 97.7291Z" fill="white"/>
<path opacity="0.4" d="M61.5809 102.361H70.1254C70.4008 102.36 70.6711 102.287 70.9093 102.149C71.1475 102.011 71.3451 101.812 71.4822 101.573L61.5809 102.361Z" fill="white"/>
<path opacity="0.4" d="M55.7015 100.294L55.7759 100.967C55.8238 101.374 56.0293 101.746 56.3484 102.003L71.7113 100.812L71.9145 99.0057L55.7015 100.294Z" fill="white"/>
<path opacity="0.4" d="M72.5728 93.0947L72.6358 92.5279H63.5875H63.2154H54.8312L55.0459 94.4544L72.5728 93.0947Z" fill="white"/>
<path opacity="0.4" d="M55.1318 95.2187L55.3293 96.9619L72.2866 95.648L72.487 93.8418L55.1318 95.2187Z" fill="white"/>
<path d="M73.0051 102.899H54.462L52.255 87.1837H75.2121L73.0051 102.899Z" stroke="#263238" stroke-linecap="round" stroke-linejoin="round"/>
<path d="M53.1452 94.9782C52.9699 94.9847 52.7991 94.9212 52.6705 94.8018C52.542 94.6823 52.4661 94.5167 52.4597 94.3413C52.4532 94.166 52.5167 93.9952 52.6361 93.8666C52.7556 93.7381 52.9212 93.6622 53.0966 93.6558L74.2789 92.09C74.4539 92.0771 74.6269 92.1342 74.7597 92.2488C74.8926 92.3634 74.9745 92.5261 74.9874 92.7011C75.0003 92.8761 74.9431 93.0491 74.8285 93.1819C74.7139 93.3148 74.5512 93.3967 74.3762 93.4096L53.1939 94.9754L53.1452 94.9782Z" fill="#BFBFBF"/>
<g opacity="0.4">
<path opacity="0.4" d="M74.903 92.4449C74.8518 92.5449 74.7755 92.6298 74.6817 92.6915C74.5879 92.7532 74.4797 92.7896 74.3677 92.797L53.1853 94.3628H53.1367C53.0786 94.3959 53.013 94.4137 52.9462 94.4146C52.8793 94.4154 52.8134 94.3993 52.7544 94.3677C52.6955 94.3361 52.6456 94.2901 52.6093 94.2339C52.573 94.1778 52.5516 94.1133 52.547 94.0466C52.5424 93.9799 52.5549 93.9131 52.5831 93.8525C52.6114 93.7919 52.6546 93.7395 52.7087 93.7002C52.7627 93.6608 52.8259 93.6359 52.8922 93.6276C52.9586 93.6193 53.0259 93.628 53.088 93.6529L74.2704 92.0871C74.3993 92.0781 74.528 92.1072 74.6405 92.1708C74.753 92.2345 74.8443 92.3298 74.903 92.4449Z" fill="white"/>
</g>
<path d="M53.1452 94.9782C52.9699 94.9847 52.7991 94.9212 52.6705 94.8018C52.542 94.6823 52.4661 94.5167 52.4597 94.3413C52.4532 94.166 52.5167 93.9952 52.6361 93.8666C52.7556 93.7381 52.9212 93.6622 53.0966 93.6558L74.2789 92.09C74.4539 92.0771 74.6269 92.1342 74.7597 92.2488C74.8926 92.3634 74.9745 92.5261 74.9874 92.7011C75.0003 92.8761 74.9431 93.0491 74.8285 93.1819C74.7139 93.3148 74.5512 93.3967 74.3762 93.4096L53.1939 94.9754L53.1452 94.9782Z" stroke="#263238" stroke-linecap="round" stroke-linejoin="round"/>
<path d="M53.5231 97.5315C53.3477 97.538 53.177 97.4745 53.0484 97.3551C52.9198 97.2356 52.844 97.07 52.8375 96.8946C52.8311 96.7193 52.8945 96.5485 53.014 96.42C53.1334 96.2914 53.299 96.2155 53.4744 96.2091L73.924 94.6948C74.0989 94.6819 74.2719 94.7391 74.4048 94.8537C74.5376 94.9683 74.6195 95.131 74.6324 95.306C74.6453 95.481 74.5882 95.6539 74.4736 95.7868C74.359 95.9196 74.1963 96.0015 74.0213 96.0144L53.5717 97.5287L53.5231 97.5315Z" fill="#BFBFBF"/>
<g opacity="0.4">
<path opacity="0.4" d="M74.5423 95.0498C74.4911 95.1497 74.4149 95.2347 74.3211 95.2964C74.2273 95.3581 74.1191 95.3944 74.007 95.4019L53.5575 96.9218H53.5231C53.465 96.9549 53.3995 96.9728 53.3326 96.9736C53.2658 96.9745 53.1998 96.9584 53.1409 96.9268C53.0819 96.8952 53.032 96.8491 52.9957 96.793C52.9595 96.7368 52.938 96.6723 52.9335 96.6056C52.9289 96.5389 52.9413 96.4722 52.9696 96.4116C52.9979 96.351 53.0411 96.2986 53.0951 96.2592C53.1492 96.2199 53.2123 96.1949 53.2787 96.1866C53.345 96.1784 53.4124 96.1871 53.4745 96.2119L73.924 94.6977C74.0498 94.692 74.1746 94.7221 74.284 94.7844C74.3934 94.8467 74.483 94.9387 74.5423 95.0498V95.0498Z" fill="white"/>
</g>
<path d="M53.5231 97.5315C53.3477 97.538 53.177 97.4745 53.0484 97.3551C52.9198 97.2356 52.844 97.07 52.8375 96.8946C52.8311 96.7193 52.8945 96.5485 53.014 96.42C53.1334 96.2914 53.299 96.2155 53.4744 96.2091L73.924 94.6948C74.0989 94.6819 74.2719 94.7391 74.4048 94.8537C74.5376 94.9683 74.6195 95.131 74.6324 95.306C74.6453 95.481 74.5882 95.6539 74.4736 95.7868C74.359 95.9196 74.1963 96.0015 74.0213 96.0144L53.5717 97.5287L53.5231 97.5315Z" stroke="#263238" stroke-linecap="round" stroke-linejoin="round"/>
<path d="M53.8694 100.085C53.6941 100.091 53.5235 100.027 53.3952 99.9074C53.2669 99.7877 53.1914 99.6219 53.1853 99.4465C53.1792 99.2712 53.2431 99.1006 53.3628 98.9723C53.4825 98.844 53.6483 98.7685 53.8236 98.7624L73.5461 97.3054C73.6328 97.299 73.7198 97.3098 73.8023 97.337C73.8848 97.3643 73.9611 97.4075 74.0269 97.4643C74.0927 97.521 74.1467 97.5902 74.1857 97.6678C74.2248 97.7454 74.2482 97.8299 74.2546 97.9166C74.261 98.0032 74.2502 98.0903 74.223 98.1728C74.1957 98.2552 74.1525 98.3316 74.0957 98.3974C74.039 98.4631 73.9698 98.5171 73.8922 98.5562C73.8146 98.5952 73.7301 98.6186 73.6434 98.625L53.921 100.085H53.8694Z" fill="#BFBFBF"/>
<g opacity="0.4">
<path opacity="0.4" d="M74.1787 97.6604C74.1282 97.7608 74.0522 97.8463 73.9582 97.9081C73.8643 97.9699 73.7557 98.0059 73.6434 98.0125L53.921 99.4723H53.8694C53.8113 99.5048 53.7459 99.522 53.6793 99.5224C53.6128 99.5229 53.5472 99.5064 53.4886 99.4747C53.4301 99.443 53.3805 99.397 53.3445 99.341C53.3085 99.285 53.2873 99.2208 53.2827 99.1543C53.2782 99.0879 53.2905 99.0214 53.3186 98.961C53.3466 98.9006 53.3895 98.8483 53.4432 98.8089C53.4968 98.7695 53.5596 98.7444 53.6256 98.7357C53.6917 98.7271 53.7588 98.7353 53.8208 98.7596L73.5433 97.3026C73.6726 97.2933 73.8018 97.3223 73.9148 97.3859C74.0278 97.4496 74.1196 97.545 74.1787 97.6604V97.6604Z" fill="white"/>
</g>
<path d="M53.8694 100.085C53.6941 100.091 53.5235 100.027 53.3952 99.9074C53.2669 99.7877 53.1914 99.6219 53.1853 99.4465C53.1792 99.2712 53.2431 99.1006 53.3628 98.9723C53.4825 98.844 53.6483 98.7685 53.8236 98.7624L73.5461 97.3054C73.6328 97.299 73.7198 97.3098 73.8023 97.337C73.8848 97.3643 73.9611 97.4075 74.0269 97.4643C74.0927 97.521 74.1467 97.5902 74.1857 97.6678C74.2248 97.7454 74.2482 97.8299 74.2546 97.9166C74.261 98.0032 74.2502 98.0903 74.223 98.1728C74.1957 98.2552 74.1525 98.3316 74.0957 98.3974C74.039 98.4631 73.9698 98.5171 73.8922 98.5562C73.8146 98.5952 73.7301 98.6186 73.6434 98.625L53.921 100.085H53.8694Z" stroke="#263238" stroke-linecap="round" stroke-linejoin="round"/>
<path d="M54.233 102.647C54.0576 102.653 53.8869 102.59 53.7583 102.47C53.6297 102.351 53.5539 102.185 53.5474 102.01C53.541 101.835 53.6045 101.664 53.7239 101.535C53.8434 101.407 54.009 101.331 54.1843 101.324L73.1826 99.9189C73.3576 99.906 73.5306 99.9631 73.6634 100.078C73.7963 100.192 73.8782 100.355 73.8911 100.53C73.904 100.705 73.8468 100.878 73.7322 101.011C73.6176 101.144 73.4549 101.226 73.2799 101.238L54.2817 102.647H54.233Z" fill="#BFBFBF"/>
<g opacity="0.4">
<path opacity="0.4" d="M73.818 100.265C73.7668 100.365 73.6906 100.451 73.5968 100.513C73.5031 100.575 73.3949 100.612 73.2828 100.62L54.2816 102.026H54.233C54.1749 102.059 54.1093 102.077 54.0425 102.077C53.9756 102.078 53.9096 102.062 53.8507 102.031C53.7918 101.999 53.7418 101.953 53.7056 101.897C53.6693 101.841 53.6479 101.776 53.6433 101.709C53.6387 101.643 53.6512 101.576 53.6794 101.515C53.7077 101.455 53.7509 101.402 53.805 101.363C53.859 101.324 53.9222 101.299 53.9885 101.29C54.0549 101.282 54.1222 101.291 54.1843 101.316L73.1826 99.9103C73.3115 99.9011 73.4404 99.9299 73.5533 99.9929C73.6661 100.056 73.7582 100.151 73.818 100.265V100.265Z" fill="white"/>
</g>
<path d="M54.233 102.647C54.0576 102.653 53.8869 102.59 53.7583 102.47C53.6297 102.351 53.5539 102.185 53.5474 102.01C53.541 101.835 53.6045 101.664 53.7239 101.535C53.8434 101.407 54.009 101.331 54.1843 101.324L73.1826 99.9189C73.3576 99.906 73.5306 99.9631 73.6634 100.078C73.7963 100.192 73.8782 100.355 73.8911 100.53C73.904 100.705 73.8468 100.878 73.7322 101.011C73.6176 101.144 73.4549 101.226 73.2799 101.238L54.2817 102.647H54.233Z" stroke="#263238" stroke-linecap="round" stroke-linejoin="round"/>
<path d="M77.7712 82.2259L77.0441 90.3381L75.3438 91.6205H52.1234L50.4202 90.3381L49.696 82.2259L50.1998 80.9406H77.2645L77.7712 82.2259Z" fill="#F1D54B"/>
<path opacity="0.2" d="M77.0441 90.3382L75.3438 91.6205H52.1233L50.4202 90.3382H77.0441Z" fill="black" fill-opacity="0.7"/>
<path opacity="0.4" d="M77.7712 82.2259H49.696L50.1998 80.9406H77.2645L77.7712 82.2259Z" fill="white"/>
<path d="M77.7712 82.2259L77.0441 90.3381L75.3438 91.6205H52.1234L50.4202 90.3381L49.696 82.2259L50.1998 80.9406H77.2645L77.7712 82.2259Z" stroke="#263238" stroke-linecap="round" stroke-linejoin="round"/>
<path d="M49.696 82.2259H60.0925" stroke="#263238" stroke-linecap="round" stroke-linejoin="round"/>
<path d="M61.724 82.2259H64.3403" stroke="#263238" stroke-linecap="round" stroke-linejoin="round"/>
<path d="M66.2039 82.2259H66.7849" stroke="#263238" stroke-linecap="round" stroke-linejoin="round"/>
<path d="M77.7712 82.2259H75.2121" stroke="#263238" stroke-linecap="round" stroke-linejoin="round"/>
<path d="M77.0441 90.3381H66.7849" stroke="#263238" stroke-linecap="round" stroke-linejoin="round"/>
<path d="M65.0989 90.3381H61.724" stroke="#263238" stroke-linecap="round" stroke-linejoin="round"/>
<path d="M59.1049 90.3381H58.4065" stroke="#263238" stroke-linecap="round" stroke-linejoin="round"/>
<path d="M50.4202 90.3381H53.2082" stroke="#263238" stroke-linecap="round" stroke-linejoin="round"/>
<path opacity="0.4" d="M57.7681 103.279C58.7328 104.167 61.0399 104.794 63.7335 104.794C66.4271 104.794 68.7314 104.167 69.6989 103.279H57.7681Z" fill="white"/>
<path opacity="0.2" d="M64.973 107.513H62.4826C62.3963 107.512 62.3124 107.484 62.243 107.433C62.1735 107.381 62.1222 107.309 62.0962 107.227L61.747 106.153H65.7172L65.368 107.227C65.342 107.311 65.2894 107.384 65.2182 107.436C65.147 107.487 65.0609 107.514 64.973 107.513V107.513Z" fill="white"/>
<path opacity="0.2" d="M61.747 105.738H65.7173L66.1609 105.401H61.3062L61.747 105.738Z" fill="white"/>
</svg>
